<svg xmlns="http://www.w3.org/2000/svg" width="470" height="299" viewBox="0 0 470 299">
  <defs>
    <linearGradient id="sg_language_illustration-a" x1="50%" x2="50%" y1="100%" y2="-.003%">
      <stop offset="0%" stop-color="gray" stop-opacity=".25"/>
      <stop offset="54%" stop-color="gray" stop-opacity=".12"/>
      <stop offset="100%" stop-color="gray" stop-opacity=".1"/>
    </linearGradient>
  </defs>
  <g fill="none" fill-rule="evenodd">
    <path fill="#EDE8E5" fill-rule="nonzero" d="M23.6969516,16.1722922 C10.8440854,24.0924369 1.29513148,38.3363223 0.129044834,53.9291073 C-1.55962138,76.617022 13.5951862,96.7308897 29.7476456,111.886417 C45.9001051,127.041944 64.5186218,140.716569 73.9336918,161.205818 C84.2643557,183.732855 80.7358639,212.497006 65.2960129,231.546604 C58.6536379,239.747254 49.4026838,248.046906 50.6594661,258.739101 C51.8341904,268.713533 62.4714919,274.938272 72.0334024,274.472139 C81.5953129,274.006005 90.254586,268.730034 98.6029026,263.812944 C128.53246,246.178246 161.148335,231.07222 195.465833,230.78759 C232.258026,230.48646 267.007408,247.143514 300.353168,263.462312 L348.292285,286.929866 C358.260167,291.80983 368.482859,296.764046 379.435436,297.81594 C390.388013,298.867834 401.509025,295.877155 411.235051,290.469181 C421.643454,284.694075 431.101712,275.231152 433.2309,263.07043 C436.051102,246.908385 425.456989,231.546604 424.023134,215.18243 C422.615193,198.991509 430.307046,183.46885 439.26,170.219108 C448.212954,156.969366 458.794111,144.569389 464.594312,129.492239 C476.50999,98.5046721 464.905268,61.2717415 441.989506,38.0805676 C419.073744,14.8893937 386.958855,4.04457048 355.27153,0.901263021 C343.390402,-0.278508544 331.362435,-0.476512163 319.559046,1.38389684 C296.055922,5.0964647 274.496276,16.7621779 252.185151,25.3093342 C212.304988,40.5721132 167.734565,45.86871 127.318866,32.2188355 C94.7850485,21.2461349 57.3493484,-4.56033681 23.6969516,16.1722922 Z"/>
    <ellipse cx="246.754" cy="245.824" fill="#A38881" fill-rule="nonzero" opacity=".16" rx="165.896" ry="31.754"/>
    <g transform="translate(48.328 118.652)">
      <path fill="#124F69" fill-rule="nonzero" d="M4.22873237,17.4942503 C1.82780374,19.6287533 -0.570026928,22.9590737 0.588614762,27.6060323 C2.87801639,36.751247 14.4148657,37.2717063 17.6987165,46.2496304 C18.6807738,48.9386705 18.5847366,51.7082579 18.0797671,54.0162473 C17.0915139,58.5299932 14.721565,61.7611784 12.9402309,65.5499987 C11.1588967,69.338819 9.95068745,74.2522033 11.4501061,79.6024017 C12.8937613,84.7512318 16.5586627,89.0883932 20.2576417,91.699984 C23.9566208,94.3115748 27.7888127,95.5600577 31.574535,97.2236689 C36.2080622,99.2904782 40.6143152,101.833106 44.72233,104.810603 C46.5408399,106.11485 48.3686436,107.546113 49.9486095,109.497836 C51.7485315,111.72218 53.1147374,114.488669 54.4468655,117.199395 C55.1067336,118.543915 54.9301492,121.226759 56.4295679,121.226759 C94.7236051,121.096644 67.8920659,121.078057 86.6905626,121.167898 C90.0332748,121.183388 94.8165443,121.205073 101.666161,121.226759 C108.95569,121.251543 107.64215,108.097552 106.681779,99.5409522 C105.318671,87.4216841 95.1325375,77.433821 90.0580586,65.630546 C86.421039,57.1730812 85.5659986,48.0464545 82.5237897,39.3752296 C78.1401587,26.8811068 69.4317582,16.3046289 60.3237192,10.000255 C51.2156803,3.69588111 41.7358846,1.22369911 32.7145889,0.396540471 C28.8978869,0.0433716141 25.0533031,-0.0185878346 21.8499996,1.59855378 C18.4422299,3.31792848 17.6553449,7.64579596 15.0344602,10.3131502 C12.0108391,13.4266125 7.49089734,14.5945481 4.22873237,17.4942503 Z"/>
      <path fill="#FFF" fill-rule="nonzero" d="M4.22873237,17.4942503 C1.82780374,19.6287533 -0.570026928,22.9590737 0.588614762,27.6060323 C2.87801639,36.751247 14.4148657,37.2717063 17.6987165,46.2496304 C18.6807738,48.9386705 18.5847366,51.7082579 18.0797671,54.0162473 C17.0915139,58.5299932 14.721565,61.7611784 12.9402309,65.5499987 C11.1588967,69.338819 9.95068745,74.2522033 11.4501061,79.6024017 C12.8937613,84.7512318 16.5586627,89.0883932 20.2576417,91.699984 C23.9566208,94.3115748 27.7888127,95.5600577 31.574535,97.2236689 C36.2080622,99.2904782 40.6143152,101.833106 44.72233,104.810603 C46.5408399,106.11485 48.3686436,107.546113 49.9486095,109.497836 C51.7485315,111.72218 53.1147374,114.488669 54.4468655,117.199395 C55.1067336,118.543915 54.9301492,121.226759 56.4295679,121.226759 C94.7236051,121.096644 67.8920659,121.078057 86.6905626,121.167898 C90.0332748,121.183388 94.8165443,121.205073 101.666161,121.226759 C108.95569,121.251543 107.64215,108.097552 106.681779,99.5409522 C105.318671,87.4216841 95.1325375,77.433821 90.0580586,65.630546 C86.421039,57.1730812 85.5659986,48.0464545 82.5237897,39.3752296 C78.1401587,26.8811068 69.4317582,16.3046289 60.3237192,10.000255 C51.2156803,3.69588111 41.7358846,1.22369911 32.7145889,0.396540471 C28.8978869,0.0433716141 25.0533031,-0.0185878346 21.8499996,1.59855378 C18.4422299,3.31792848 17.6553449,7.64579596 15.0344602,10.3131502 C12.0108391,13.4266125 7.49089734,14.5945481 4.22873237,17.4942503 Z" opacity=".2"/>
      <path stroke="#535461" stroke-width="2" d="M19.3127601 3.83838784C19.3127601 3.83838784 60.1006652 62.9229181 86.6750727 121.198878M.799276888 28.1481775C.799276888 28.1481775 37.2035509 28.5849916 54.2547912 59.4376991M12.3856938 82.2046985C12.3856938 82.2046985 57.5231521 64.0257963 66.8139715 81.702827M60.236976 9.78649491C60.236976 9.78649491 50.9430587 28.7491842 56.866382 63.9514449M106.539272 99.8631414C106.539272 99.8631414 99.7237326 112.1497 74.9957167 97.1679054"/>
    </g>
    <g fill-rule="nonzero" transform="scale(-1 1) rotate(-15 353.282 1657.423)">
      <path fill="#D3CFCD" d="M56.3453813,49.0010767 C60.2742041,49.2531775 62.9994791,53.0066778 64.2860302,56.5360886 C65.1022293,58.8049955 65.6279169,61.1859472 66.1121028,63.5388877 C66.6239565,66.0178786 67.0666407,68.4968695 67.4401556,71.0038716 C68.9065472,80.9478464 69.1140554,91.0878996 68.2978563,101.087897 C67.869006,106.354002 67.1358102,111.57809 66.1397706,116.760161 L69.5152381,116.760161 C71.3689784,106.914226 72.2681808,96.8722117 72.0606726,86.8442033 C71.9500015,81.5080703 71.5073172,76.185943 70.7602875,70.8918268 C70.3867727,68.2587743 69.9440884,65.6397275 69.404567,63.0346862 C68.8927133,60.5837065 68.3670258,58.1187212 67.5369928,55.7517751 C65.7385879,50.7097597 62.0172734,45.9898731 56.3592151,45.6257275 C55.4600127,45.5697051 54.6991492,46.4380522 54.6991492,47.3063993 C54.6853153,48.2727856 55.4461788,48.9310487 56.3453813,49.0010767 Z"/>
      <path fill="#338996" d="M57.30841,47.4706585 C60.9949972,47.7072157 63.5522426,51.2292901 64.7594701,54.5410914 C65.5253456,56.6701066 66.0186213,58.9042582 66.4729543,61.1121258 C66.9532491,63.4382719 67.3686392,65.7644181 67.7191246,68.1168483 C69.0951043,77.4477171 69.2898184,86.9625748 68.5239429,96.3460118 C68.1215337,101.28743 67.4335439,106.189421 66.4989161,111.051987 L69.6662657,111.051987 C71.4057118,101.813112 72.2494729,92.3902491 72.0547588,82.980528 C71.9509113,77.9733998 71.5355212,72.9794137 70.8345504,68.0117118 C70.484065,65.5410029 70.0686749,63.083436 69.5624182,60.6390113 C69.0821234,58.3391493 68.5888476,56.0261452 67.8099912,53.8051356 C66.1224688,49.0739909 62.6305958,44.6451137 57.321391,44.30342 C56.4776298,44.2508517 55.7636781,45.0656599 55.7636781,45.8804682 C55.7506971,46.7872709 56.4646489,47.4049482 57.30841,47.4706585 Z"/>
      <g>
        <g>
          <path fill="#00A793" d="M12.3456383,38.4466079 C12.3956383,38.4966079 12.4956383,38.4966079 12.5456383,38.5466079 C12.4956383,38.5466079 12.4456383,38.5966079 12.3956383,38.5966079 C12.3956383,38.5466079 12.3456383,38.4966079 12.3456383,38.4466079 Z"/>
          <path fill="#D3CFCD" d="M34.7003939,70.0971141 C41.2381156,70.9317089 48.3737997,69.3971314 53.3435312,64.8203211 C58.0607898,60.4858125 60.7715525,53.9571273 59.6022039,47.5092092 C67.1498176,44.0900627 74.0861809,38.1671318 75.2953937,29.4308086 C76.3717259,21.6098475 71.4551465,15.0811623 65.8475885,10.3293563 C64.6383757,9.2928434 63.3627227,8.35055893 62.0339175,7.46211928 C64.465631,13.3581278 64.465631,20.2233432 61.7548684,26.065507 C61.0771777,27.5193173 60.2134543,29.3769638 58.5657358,29.8750285 C57.2103545,30.2788647 55.6955165,29.6461879 55.3898913,28.1654552 C55.0444019,26.5097268 56.3997833,24.9482268 57.0774739,23.5751837 C58.1670942,21.3944682 58.8182088,19.0118346 59.0308176,16.5753562 C59.4294592,12.0389296 58.113942,7.51596411 55.5227718,3.85451588 C52.5994003,2.54877883 49.5431483,1.55264954 46.433744,0.879589201 C44.4538243,0.448830586 42.4473284,0.166145245 40.4408325,0.0180719716 C43.5901009,2.89877021 45.9420861,6.60060205 47.3506197,10.6793477 C48.3605116,13.5869683 50.6726327,21.6636924 45.4371401,22.094451 C43.4173562,22.2559855 42.0752629,20.3579553 41.849366,18.51377 C41.7031974,17.3291838 41.9689585,16.1445976 42.0885509,14.9734726 C42.2480076,13.3177442 42.0619748,11.7293218 41.5570288,10.1543606 C40.1883595,5.91408051 36.7467539,3.23530038 33.9031107,0.0315331783 C30.7538423,0.273834899 27.6444381,0.866127994 24.6147622,1.79495126 C23.5915821,2.11802022 22.5684021,2.46801159 21.5717982,2.84492538 C27.5115576,6.02177016 32.188952,11.1908735 34.7801222,17.5176407 C35.0193071,18.0964726 34.5010731,18.7426105 33.8898227,18.6618433 C29.6775101,18.0157053 28.4018571,13.5869683 25.7575347,10.8408822 C23.1663645,8.14864083 19.6981828,5.99484775 16.0306804,5.22755897 C10.9812205,7.59673135 6.07792918,10.3158951 0.869012675,12.2677701 C0.0850175886,12.5639166 -0.247183719,13.6408132 0.284338373,14.3138735 C5.29393409,20.7079467 8.64252328,28.1923776 10.0776329,36.2017956 C14.3165216,39.1228775 19.7646231,39.6882481 24.4420175,37.399843 C25.5316378,36.8748559 26.4883775,36.1883344 27.4451173,35.4345068 C28.0829438,34.9364422 28.7872106,34.4249163 29.6110698,34.4383775 C30.8867228,34.4518387 32.0029192,35.6768085 31.431533,36.9556232 C31.0993317,37.7094508 30.2621844,38.3152051 29.664222,38.8805757 C28.7207703,39.7555542 27.7241664,40.5766878 26.6478342,41.2901317 C24.8672351,42.4747179 22.9006034,43.39008 20.8010911,43.8073774 C17.1734529,44.5208214 13.2003252,43.4708472 10.7021714,40.7112999 C11.114101,44.238136 11.4861665,47.751511 12.3498899,51.1033514 C21.7976951,53.6879031 31.0993317,48.8418687 39.7631418,45.5034894 C41.078659,44.9919636 43.0585788,44.3592869 43.9754544,45.8938644 C44.9321941,47.4822868 43.4705084,48.9360972 42.2081434,49.6495411 C37.8895264,52.1264031 33.1722678,54.2128902 28.375281,55.5186272 C23.7909029,56.7705195 19.0072041,57.2282005 14.3165216,56.4205281 C14.8879079,57.5378082 15.5523105,58.6147048 16.3495936,59.6646789 C20.7479389,65.4799202 27.5912859,69.1952133 34.7003939,70.0971141 Z M65.9007407,32.5941922 C65.3293544,31.5442181 66.2860942,29.6327267 66.5518552,28.609675 C67.0700893,26.6308776 67.5883233,24.6655415 68.1065574,22.6867441 C68.3457423,21.771382 68.6247914,20.5060286 69.8074281,20.5598734 C71.069793,20.6137182 71.1096572,21.7579208 71.5082988,22.6598217 C71.6943315,22.7271277 71.8670762,22.8886622 71.9335164,23.1578863 C72.6112071,25.6347483 72.2790058,28.1654552 70.9236245,30.3461707 C70.2326457,31.4365284 67.1498176,34.922981 65.9007407,32.5941922 Z M31.8567507,60.4454289 C32.0162073,60.2300496 32.2686803,60.0954375 32.6008816,60.1358211 C35.9627588,60.580041 38.6070812,59.2339203 41.4507244,57.6454979 C43.1781712,56.6897522 46.2078472,56.7570583 46.1546949,59.4223772 C46.1015427,62.2357694 42.7529536,62.8011401 40.6135771,63.0299806 C37.6104773,63.3530495 34.6206655,62.9492133 31.7637343,61.9934677 C30.9531631,61.7242435 31.2056361,60.6877306 31.8567507,60.4454289 Z"/>
          <path fill="#338996" d="M36.0421076,69.3887775 C42.4287305,70.2040833 49.3994957,68.7049726 54.2543676,64.2339409 C58.8626016,59.9996109 61.5107135,53.6218156 60.3683907,47.3229209 C67.7415651,43.9827972 74.5176162,38.1967562 75.6988818,29.6623456 C76.750338,22.0221414 71.9473899,15.6443461 66.4694329,11.0023632 C65.2881673,9.98980602 64.041997,9.06929949 62.7439029,8.20139333 C65.1194151,13.9611342 65.1194151,20.6676818 62.4713031,26.3748223 C61.8092751,27.7950324 60.965514,29.6097452 59.3558773,30.0962987 C58.0318214,30.4908015 56.5519941,29.8727471 56.2534325,28.4262368 C55.915928,26.8087754 57.239984,25.2833645 57.902012,23.942055 C58.9664491,21.8117399 59.6025152,19.4841734 59.8102103,17.1040065 C60.1996385,12.6724251 58.9145253,8.2539937 56.3832419,4.67716832 C53.5274349,3.40160927 50.5418185,2.42850237 47.5042784,1.7709977 C45.5701182,1.35019472 43.6099961,1.07404276 41.649874,0.92939173 C44.726357,3.7435117 47.0239835,7.35978736 48.3999633,11.3442656 C49.3865148,14.1846858 51.6451985,22.0747418 46.5307078,22.4955448 C44.5576048,22.6533459 43.2465298,20.7991827 43.0258538,18.9976199 C42.8830634,17.8404117 43.1426822,16.6832035 43.2595107,15.5391454 C43.415282,13.9216839 43.2335488,12.3699729 42.7402731,10.831412 C41.4032362,6.6891326 38.0411725,4.07226403 35.2632512,0.942541823 C32.1867682,1.1792435 29.149228,1.75784761 26.1895735,2.66520405 C25.1900411,2.98080629 24.1905086,3.32270871 23.2169381,3.69091132 C29.0194186,6.79433335 33.5887098,11.8439692 36.1199932,18.024513 C36.3536502,18.589967 35.8473935,19.2211715 35.2502702,19.142271 C31.135312,18.5110665 29.8891417,14.1846858 27.3059344,11.5020668 C24.774651,8.87204809 21.3866254,6.76803316 17.8038857,6.01847784 C12.8711282,8.33289426 8.08116106,10.9892131 2.99263226,12.8959766 C2.22675675,13.1852787 1.90223323,14.2372862 2.42147086,14.8947908 C7.31528555,21.1410851 10.5864826,28.452537 11.9884242,36.2768425 C16.1293444,39.1304128 21.4515301,39.6827167 26.0208213,37.4472008 C27.0852584,36.9343472 28.0198862,36.2636925 28.9545139,35.5272872 C29.5775991,35.0407338 30.2655889,34.5410302 31.0704073,34.5541803 C32.3165776,34.5673304 33.4069766,35.7639889 32.8487962,37.0132478 C32.5242726,37.749653 31.7064734,38.3414072 31.122331,38.8937111 C30.2006842,39.7484672 29.2271137,40.5506229 28.1756575,41.2475778 C26.4362114,42.404786 24.5150321,43.2989924 22.4640435,43.7066453 C18.9202467,44.4036002 15.0389453,43.3778929 12.5985285,40.6821238 C13.0009376,44.1274482 13.364404,47.5596226 14.2081651,50.8339958 C23.4376141,53.3588138 32.5242726,48.6247802 40.9878461,45.363557 C42.2729592,44.8638535 44.2071194,44.2457991 45.1028043,45.7449097 C46.037432,47.2966207 44.6095285,48.7168308 43.3763392,49.4137858 C39.1575334,51.8334029 34.5492994,53.8716674 29.8631798,55.1472264 C25.3847552,56.3701851 20.7116165,56.8172883 16.1293444,56.0282827 C16.6875248,57.1197404 17.3365719,58.1717479 18.1154283,59.1974552 C22.4121197,64.8782955 29.0973043,68.5077212 36.0421076,69.3887775 Z M66.5213567,32.7526175 C65.9631762,31.7269103 66.8978039,29.859597 67.1574228,28.8601899 C67.6636795,26.9271262 68.1699361,25.0072126 68.6761928,23.0741489 C68.9098498,22.1799425 69.1824495,20.9438337 70.3377533,20.9964341 C71.5709426,21.0490345 71.6098855,22.1667924 71.9993137,23.0478487 C72.1810469,23.1135991 72.3497991,23.2714003 72.4147038,23.5344021 C73.0767318,25.9540193 72.7522083,28.4262368 71.4281523,30.556552 C70.7531434,31.6217095 67.7415651,35.0275837 66.5213567,32.7526175 Z M33.2641863,59.9601606 C33.4199576,59.7497591 33.6665954,59.6182582 33.991119,59.6577084 C37.275297,60.0916615 39.8585042,58.7766522 42.6364255,57.2249412 C44.3239479,56.2912846 47.2836024,56.357035 47.2316786,58.9607535 C47.1797548,61.709123 43.9085577,62.2614269 41.8186263,62.4849785 C38.8849336,62.8005807 35.964222,62.4060779 33.1733197,61.4724213 C32.3814823,61.2094195 32.6281202,60.1968623 33.2641863,59.9601606 Z"/>
        </g>
        <path fill="#00A793" d="M0.263545824,0.231962907 C0.313545824,0.281962907 0.413545824,0.281962907 0.463545824,0.331962907 C0.413545824,0.331962907 0.363545824,0.381962907 0.313545824,0.381962907 C0.313545824,0.331962907 0.263545824,0.281962907 0.263545824,0.231962907 Z" transform="translate(12.082 38.215)"/>
      </g>
    </g>
    <g transform="translate(96.347 20.471)">
      <g transform="translate(2.478 40.869)">
        <path fill="#348997" fill-rule="nonzero" d="M32.6526294,0 C32.6526294,0 9.3837585,23.2688709 22.5191616,57.7957737 C35.6545647,92.3226765 0,149.746693 0,149.746693 C0,149.746693 0.381050609,149.69093 1.0904863,149.567011 C48.879809,141.131232 72.6288657,86.4706065 46.0513602,45.8654819 C36.1750241,30.7690622 28.0645323,13.0579538 32.6526294,0 Z"/>
        <path fill="#000" fill-rule="nonzero" d="M32.6526294,0 C32.6526294,0 9.3837585,23.2688709 22.5191616,57.7957737 C35.6545647,92.3226765 0,149.746693 0,149.746693 C0,149.746693 0.381050609,149.69093 1.0904863,149.567011 C48.879809,141.131232 72.6288657,86.4706065 46.0513602,45.8654819 C36.1750241,30.7690622 28.0645323,13.0579538 32.6526294,0 Z" opacity=".1"/>
        <path stroke="#535461" d="M32.6526294,0 C32.6526294,0 19.5172263,28.5230322 32.6526294,51.7919031 C45.7880326,75.0607741 34.9048554,140.362935 0,149.746693"/>
      </g>
      <g transform="scale(1 -1) rotate(60 334.18 112.761)">
        <path fill="#124F69" fill-rule="nonzero" d="M12.918295,53.1790712 C12.918295,53.1790712 -21.584606,45.4643408 22.3166657,0.32730525 C22.3166657,0.32730525 41.2400319,18.2634674 34.2991194,40.5588039 C31.508685,49.5233676 22.527707,55.0573384 13.4294838,53.2845919 L12.918295,53.1790712 Z"/>
        <path fill="#FFF" fill-rule="nonzero" d="M13.0703504,53.1941721 C12.3129468,53.0253391 -20.696251,44.7173482 22.4687212,0.342406112 C22.4687212,0.342406112 41.3920874,18.2785682 34.4511749,40.5739048 C31.6607405,49.5384685 22.6797624,55.0724393 13.5815393,53.2996927 L13.0703504,53.1941721 Z" opacity=".4"/>
        <path stroke="#535461" d="M13.750747,53.3393357 C13.750747,53.3393357 31.9753322,25.8828679 22.6965515,0.231975345"/>
      </g>
      <path fill="#D5D6DB" fill-rule="nonzero" d="M234.516513,192.359711 C234.516513,192.359711 225.368518,203.490473 232.63524,220.327461 L159.564312,251.916933 L152.551926,253.389768 L149.322271,239.305289 L151.514399,221.534702 L151.514399,211.808363 L234.516513,192.359711 Z"/>
      <polygon fill="#124F69" fill-rule="nonzero" points="3.718 185.12 104.712 166.647 238.544 188.041 155.421 218.073"/>
      <path fill="#124F69" fill-rule="nonzero" d="M3.81279479,185.234374 C3.81279479,185.234374 -5.65659511,203.140277 5.25097858,219.678733 L155.331113,252.150579 C155.331113,252.150579 146.019277,237.875068 155.828013,218.085394 L3.81279479,185.234374 Z"/>
      <path fill="#000" fill-rule="nonzero" d="M3.81279479 185.234374C3.81279479 185.234374-5.65659511 203.140277 5.25097858 219.678733L155.331113 252.150579C155.331113 252.150579 146.019277 237.875068 155.828013 218.085394L108.367948 207.827518 3.81279479 185.234374zM8.36452557 191.430319C8.36452557 191.430319 2.78817519 204.59178 8.36452557 213.116126" opacity=".1"/>
      <path fill="#134056" fill-rule="nonzero" d="M155.043546,252.137803 L238.664666,216.523896 C238.664666,216.523896 243.337386,217.529938 240.313624,220.950483 C237.289863,224.371028 156.656219,255.558348 156.656219,255.558348 L5.26655314,219.743232 L155.043546,252.137803 Z"/>
      <path fill="#000" fill-rule="nonzero" d="M155.043546 252.137803L238.664666 216.523896C238.664666 216.523896 243.337386 217.529938 240.313624 220.950483 237.289863 224.371028 156.656219 255.558348 156.656219 255.558348L5.26655314 219.743232 155.043546 252.137803zM148.39288 221.480651C148.39288 221.480651 140.028354 231.270244 148.39288 245.954634" opacity=".1"/>
      <rect width="38.105" height="1" x="150.252" y="227.677" fill="#000" fill-rule="nonzero" opacity=".1" transform="rotate(-18.45 169.304 227.986)"/>
      <rect width="46.47" height="1" x="149.632" y="228.296" fill="#000" fill-rule="nonzero" opacity=".1" transform="rotate(-20.82 172.867 228.606)"/>
      <rect width="53.905" height="1" x="149.632" y="230.465" fill="#000" fill-rule="nonzero" opacity=".1" transform="rotate(-22.26 176.584 230.775)"/>
      <rect width="62.269" height="1" x="149.322" y="231.394" fill="#000" fill-rule="nonzero" opacity=".1" transform="rotate(-24.31 180.457 231.704)"/>
      <rect width="67.846" height="1" x="149.632" y="232.014" fill="#000" fill-rule="nonzero" opacity=".1" transform="rotate(-23.61 183.555 232.324)"/>
      <rect width="81.167" height="1" x="149.942" y="232.324" fill="#000" fill-rule="nonzero" opacity=".1" transform="rotate(-23.36 190.525 232.633)"/>
      <polygon fill="#FFF" fill-rule="nonzero" points="41.513 187.107 112.551 172.223 155.828 180.47 97.617 199.175" opacity=".45"/>
      <path fill="#3A3768" fill-rule="nonzero" d="M238.825987,188.332346 C238.825987,188.332346 242.498834,189.802944 240.345229,192.070951 C238.191623,194.338957 155.518216,218.072882 155.518216,218.072882 L238.825987,188.332346 Z"/>
      <path fill="#D5D6DB" fill-rule="nonzero" d="M238.23408,148.058705 C238.23408,148.058705 229.080746,168.045274 236.348501,184.877128 L163.267185,207.612001 L156.269952,209.088762 L153.039838,195.005212 L155.199977,177.231772 L155.199977,167.506075 L238.23408,148.058705 Z"/>
      <polygon fill="#F7DAC4" fill-rule="nonzero" points="7.435 140.823 108.432 122.346 242.261 143.74 159.136 173.772"/>
      <path fill="#F4C099" fill-rule="nonzero" d="M7.53899991,140.933368 C7.53899991,140.933368 -1.94297868,158.839272 8.96513473,175.377727 L159.052695,207.849573 C159.052695,207.849573 149.736358,193.574062 159.54558,173.788422 L7.53899991,140.933368 Z"/>
      <path fill="#000" fill-rule="nonzero" d="M7.53899991 140.933368C7.53899991 140.933368-1.94297868 158.839272 8.96513473 175.377727L159.052695 207.849573C159.052695 207.849573 149.736358 193.574062 159.54558 173.788422L7.53899991 140.933368zM12.0820925 146.819516C12.0820925 146.819516 6.50574211 159.98503 12.0820925 168.505323" opacity=".1"/>
      <path fill="#A68676" fill-rule="nonzero" d="M159.071294,207.825207 L242.688597,180.973792 C242.688597,180.973792 247.36536,181.983243 244.341591,185.415379 C241.317821,188.847515 160.683971,211.257342 160.683971,211.257342 L9.2939173,175.320862 L159.071294,207.825207 Z"/>
      <path fill="#A68676" fill-rule="nonzero" d="M159.071294,207.825207 L242.688597,180.973792 C242.688597,180.973792 247.36536,181.983243 244.341591,185.415379 C241.317821,188.847515 160.683971,211.257342 160.683971,211.257342 L9.2939173,175.320862 L159.071294,207.825207 Z" opacity=".1"/>
      <path fill="#000" fill-rule="nonzero" d="M152.110446,177.489443 C152.110446,177.489443 143.745921,187.279036 152.110446,201.963425" opacity=".1"/>
      <rect width="38.105" height="1" x="153.969" y="183.066" fill="#000" fill-rule="nonzero" opacity=".1" transform="rotate(-18.45 173.022 183.376)"/>
      <rect width="46.47" height="1" x="153.35" y="184.305" fill="#000" fill-rule="nonzero" opacity=".1" transform="rotate(-20.82 176.584 184.615)"/>
      <rect width="53.905" height="1" x="153.35" y="186.164" fill="#000" fill-rule="nonzero" opacity=".1" transform="rotate(-22.26 180.302 186.474)"/>
      <rect width="62.269" height="1" x="153.04" y="186.783" fill="#000" fill-rule="nonzero" opacity=".1" transform="rotate(-24.31 184.174 187.093)"/>
      <rect width="67.846" height="1" x="153.35" y="187.713" fill="#000" fill-rule="nonzero" opacity=".1" transform="rotate(-23.61 187.272 188.023)"/>
      <rect width="81.167" height="1" x="153.659" y="188.023" fill="#000" fill-rule="nonzero" opacity=".1" transform="rotate(-23.36 194.243 188.332)"/>
      <polygon fill="#FFF" fill-rule="nonzero" points="45.23 142.806 116.269 127.922 159.546 136.169 101.335 154.874" opacity=".3"/>
      <path fill="#A68676" fill-rule="nonzero" d="M242.541953,143.721543 C242.541953,143.721543 246.21877,145.191943 244.061165,147.46365 C241.90356,149.735358 159.235783,173.462079 159.235783,173.462079 L242.541953,143.721543 Z"/>
      <path fill="#A1616A" fill-rule="nonzero" d="M181.231387,108.007984 C181.231387,108.007984 187.47418,124.156684 191.024003,122.541814 C194.573826,120.926944 193.610885,114.063746 194.288208,112.182423 C194.96553,110.301099 195.716297,96.0337227 195.716297,96.0337227 C195.716297,96.0337227 196.059039,85.9407851 196.736362,83.8979746 C197.364721,82.0206882 197.874753,72.5535128 197.960438,71.0637952 C197.960438,70.9346056 197.960438,70.8659736 197.960438,70.8659736 L197.287196,59.158166 L193.476237,58.2175042 L184.638401,61.4472443 L183.414324,68.3629251 L182.936934,71.0637952 L182.732922,72.2143901 L181.231387,108.007984 Z"/>
      <path fill="#000" fill-rule="nonzero" d="M183.090171,105.306685 C183.090171,105.306685 188.982253,110.217442 190.757949,110.648931 C192.533645,111.08042 193.623277,114.9104 193.623277,114.9104" opacity=".1"/>
      <path fill="#A1616A" fill-rule="nonzero" d="M132.903017,108.627578 C132.903017,108.627578 126.660225,124.776278 123.110402,123.161408 C119.560579,121.546538 120.52352,114.683341 119.846197,112.802017 C119.168874,110.920694 118.418107,96.6533172 118.418107,96.6533172 C118.418107,96.6533172 118.075366,86.5603796 117.398043,84.5175691 C116.769684,82.6402827 116.259652,73.1731072 116.173966,71.6833897 C116.173966,71.5542001 116.173966,71.4855681 116.173966,71.4855681 L116.851289,59.7777605 L120.662248,58.8370987 L129.500084,62.0668388 L130.72416,68.9825196 L131.20155,71.6833897 L131.405563,72.8339845 L132.903017,108.627578 Z"/>
      <path fill="#4B4B5B" fill-rule="nonzero" d="M130.368188,124.564445 C130.368188,124.564445 125.658065,129.763499 127.405694,130.707676 C129.153323,131.651853 140.458425,149.348086 140.458425,149.348086 C140.458425,149.348086 177.590498,153.9393 184.593123,147.050453 C191.595747,140.161606 191.454484,127.854883 191.454484,127.854883 C191.454484,127.854883 185.828168,129.070562 185.214681,128.410043 C184.601195,127.749524 181.231055,124.564445 181.231055,124.564445 C181.231055,124.564445 133.597063,121.663025 130.368188,124.564445 Z"/>
      <path fill="#000" fill-rule="nonzero" d="M130.368188,124.564445 C130.368188,124.564445 125.658065,129.763499 127.405694,130.707676 C129.153323,131.651853 140.458425,149.348086 140.458425,149.348086 C140.458425,149.348086 177.590498,153.9393 184.593123,147.050453 C191.595747,140.161606 191.454484,127.854883 191.454484,127.854883 C191.454484,127.854883 185.828168,129.070562 185.214681,128.410043 C184.601195,127.749524 181.231055,124.564445 181.231055,124.564445 C181.231055,124.564445 133.597063,121.663025 130.368188,124.564445 Z" opacity=".02"/>
      <path fill="#A1616A" fill-rule="nonzero" d="M197.329604,59.5013693 L185.232764,69.2069852 L181.575486,69.4738896 L180.232736,69.5709458 L157.680193,71.2289885 L134.292968,69.5143297 L130.813111,69.2595572 L126.377602,68.9360367 L117.103358,60.0392222 C117.103358,60.0392222 123.66791,52.9864746 129.417942,48.2266789 C131.684083,46.3462158 133.825224,44.8256693 135.385716,44.2271563 L135.651847,44.1341442 C136.633376,43.7502579 137.509686,43.1375524 138.208312,42.3466933 C142.74866,37.6516016 146.946264,26.0655226 146.946264,26.0655226 C146.946264,26.0655226 166.974599,15.6886017 164.555231,29.3007279 C162.135863,42.9128542 173.559313,39.5482407 173.559313,39.5482407 L177.325462,41.2709875 L178.813374,41.9544246 L182.607749,43.6973915 L191.16828,47.6362539 C197.886059,50.738007 197.329604,59.5013693 197.329604,59.5013693 Z"/>
      <circle cx="156.757" cy="18.873" r="17.968" fill="#000" fill-rule="nonzero" opacity=".1"/>
      <path fill="#000" fill-rule="nonzero" d="M197.260985,72.1583802 L116.173966,72.1583802 C116.173966,72.0292832 116.173966,71.9607005 116.173966,71.9607005 L116.844675,60.2612883 C116.844675,60.2612883 123.422465,53.2255038 129.184091,48.4771562 L180.093277,46.4600161 L182.460958,43.9668311 L191.038751,47.8962198 C197.774117,50.9864784 197.232702,59.7287633 197.232702,59.7287633 C197.232702,59.7287633 198.153916,69.8588406 197.260985,72.1583802 Z" opacity=".1"/>
      <path fill="#708A8E" fill-rule="nonzero" d="M197.260985,71.848583 L116.173966,71.848583 C116.173966,71.719486 116.173966,71.6509032 116.173966,71.6509032 L116.844675,59.951491 C116.844675,59.951491 123.422465,52.9157066 129.184091,48.1673589 L180.093277,46.1502189 L182.460958,43.6570338 L191.038751,47.5864226 C197.774117,50.6766811 197.232702,59.4189661 197.232702,59.4189661 C197.232702,59.4189661 198.153916,69.5490433 197.260985,71.848583 Z"/>
      <path fill="#000" fill-rule="nonzero" d="M141.49077,37.4703445 C139.491274,36.0323805 150.534002,47.4168515 160.712516,45.7391639 C163.264201,45.318579 167.579898,43.115022 173.659608,39.128493 L178.549719,41.8310791 L184.041238,44.4481149 C178.257456,65.1791244 175.365565,75.5446291 175.365565,75.5446291 L138.789165,79.9033113 L141.49077,37.4703445 Z" opacity=".1"/>
      <path fill="#708A8E" fill-rule="nonzero" d="M141.299771,38.1218361 C141.299771,38.1218361 149.644242,47.2079092 158.669229,46.8747855 C161.540995,46.768785 166.480757,44.2815614 173.488513,39.4131147 C179.414198,42.0663284 182.798514,43.5732626 183.641462,43.9339173 C190.011961,46.6595313 175.365565,76.4740208 175.365565,76.4740208 L138.789165,80.832703 L127.311672,49.5876949 L134.77766,43.9339173 L141.299771,38.1218361 Z"/>
      <path fill="#000" fill-rule="nonzero" d="M178.414067,42.7749926 L179.763717,63.4260364 L181.210058,70.2975913 L182.31395,75.5523098 C182.31395,75.5523098 185.134114,115.973221 184.328353,117.994267 C183.522592,120.015313 184.731233,121.632149 184.900443,122.707345 C185.069653,123.782542 184.731233,126.482658 184.864184,127.695286 C184.997135,128.907913 184.864184,129.445511 181.778119,129.013007 C178.692055,128.580504 174.389291,127.828675 174.389291,127.828675 C174.389291,127.828675 163.511518,128.637093 159.752643,127.291077 C155.993768,125.94506 148.87487,125.941018 148.87487,125.941018 C148.87487,125.941018 138.130047,126.211838 134.641102,125.807629 C131.152157,125.40342 129.266676,130.12054 126.986372,128.770482 C124.706069,127.420424 129.669557,114.356385 131.281078,110.581072 C132.8926,106.805759 129.133725,97.242171 129.133725,97.242171 L133.968291,70.3339702 L135.043982,64.2344546 L135.043982,45.0587741 L135.309883,44.965806 C136.290567,44.5821016 137.166121,43.9696863 137.864146,43.1792018 L139.072787,62.4761449 L176.943554,63.8262034 L176.943554,42.1080476" opacity=".1"/>
      <path fill="#708A8E" fill-rule="nonzero" d="M178.414067,41.8456009 L179.763717,62.4966446 L181.210058,69.3681996 L182.31395,74.6229181 C182.31395,74.6229181 185.134114,115.04383 184.328353,117.064875 C183.522592,119.085921 184.731233,120.702757 184.900443,121.777954 C185.069653,122.85315 184.731233,125.553267 184.864184,126.765894 C184.997135,127.978521 184.864184,128.51612 181.778119,128.083616 C178.692055,127.651112 174.389291,126.899283 174.389291,126.899283 C174.389291,126.899283 163.511518,127.707701 159.752643,126.361685 C155.993768,125.015669 148.87487,125.011626 148.87487,125.011626 C148.87487,125.011626 138.130047,125.282447 134.641102,124.878237 C131.152157,124.474028 129.266676,129.191149 126.986372,127.84109 C124.706069,126.491032 129.669557,113.426993 131.281078,109.65168 C132.8926,105.876367 129.133725,96.3127793 129.133725,96.3127793 L133.968291,69.4045784 L135.043982,63.3050629 L135.043982,44.1293824 L135.309883,44.0364143 C136.290567,43.6527099 137.166121,43.0402945 137.864146,42.24981 L139.072787,61.5467532 L176.943554,62.8968117 L176.943554,41.1786559"/>
      <polygon fill="#C3C7D9" fill-rule="nonzero" points="174.726 176.981 190.835 177.489 188.524 165.717 176.183 166.874"/>
      <path fill="#4B4B5B" fill-rule="nonzero" d="M223.864213,148.936363 C222.788969,150.281661 218.62894,152.70562 218.226227,153.513606 C217.823514,154.321592 212.858058,156.745551 210.304856,157.149544 C207.751654,157.553538 199.701415,159.306868 198.223457,160.248172 C197.164321,160.926881 188.663043,163.076124 183.077409,164.267904 C181.564493,164.626967 180.033276,164.903435 178.490504,165.09609 C176.074225,165.229408 149.632068,156.20824 149.632068,156.20824 L154.730419,150.956329 L155.012318,150.859371 C156.454032,150.370539 163.11491,148.112217 166.811818,147.037596 C170.975874,145.825616 175.808434,140.84438 175.808434,140.84438 C175.808434,140.84438 182.920351,138.420421 183.8627,138.149746 C184.805049,137.879071 181.44642,128.724586 181.44642,128.724586 C181.44642,128.724586 196.882421,126.575342 202.923121,124.753333 C208.963821,122.931324 222.925891,123.605992 225.475066,130.744551 C228.024242,137.883111 224.955566,147.591066 223.864213,148.936363 Z"/>
      <path fill="#AD5975" fill-rule="nonzero" d="M153.659433,171.5252 C153.659433,171.5252 150.576097,174.734388 147.488737,174.46963 C144.401377,174.204872 133.605678,175.271927 133.605678,175.271927 C131.649274,176.049641 129.81726,177.107794 128.167577,178.41292 C125.64375,180.394594 124.303344,178.814069 124.053779,178.477104 L124.009502,178.41292 C122.665071,182.628991 119.581736,179.415791 119.581736,179.415791 C119.581736,179.415791 120.922141,166.579038 120.511567,164.974444 C120.100992,163.36985 123.164201,160.61396 123.164201,160.61396 L126.786919,159.69533 L135.96447,157.352622 L149.114935,161.897635 L153.659433,171.5252 Z"/>
      <path fill="#000" fill-rule="nonzero" d="M126.707072 159.521203L124.014126 178.181011 123.970241 178.117244C122.637731 182.305936 119.581736 179.113603 119.581736 179.113603 119.581736 179.113603 120.910256 166.36021 120.503322 164.766036 120.096388 163.171861 123.132436 160.433867 123.132436 160.433867L126.707072 159.521203zM145.914502 105.92628C145.914502 105.92628 153.043406 108.017411 159.235783 105.92628M170.078687 110.573238C170.078687 110.573238 173.048212 111.967326 175.34524 110.573238M170.078687 114.108922C170.078687 114.108922 175.025939 114.843083 175.964834 113.361414M168.5297 121.416142C168.5297 121.416142 177.960567 120.22121 180.301996 118.627967M140.028354 118.627967C140.028354 118.627967 145.357905 121.54308 149.322271 121.41184M183.055694 164.267176C181.543761 164.626554 180.013537 164.903265 178.471767 165.096089 176.057056 165.229523 149.632068 156.200442 149.632068 156.200442L154.727109 150.943923 155.008825 150.84688C155.813729 151.41701 156.47375 151.906271 156.944618 152.27827 159.162128 154.033139 161.303172 151.740488 162.108076 151.740488 162.912979 151.740488 169.88747 157.534789 169.88747 157.534789 169.88747 157.534789 176.326699 159.018745 177.401246 160.365222 178.475792 161.711699 182.230668 161.44483 182.898738 162.38696 183.099964 162.67809 183.124111 163.393785 183.055694 164.267176z" opacity=".1"/>
      <path fill="#4B4B5B" fill-rule="nonzero" d="M133.401568,129.274152 C133.401568,129.274152 126.880597,129.648218 123.120359,128.067486 C119.360121,126.486754 106.866296,122.838602 103.239057,125.400755 C99.6118174,127.962909 90.8782309,130.227418 94.9084969,140.419721 C98.938763,150.612023 100.820897,150.87749 100.820897,150.87749 C102.067878,151.810759 103.156493,152.937941 104.04511,154.215931 C105.25419,156.094308 116.538935,160.381993 119.360121,160.381993 C122.181307,160.381993 127.150625,160.381993 134.135076,165.208656 C141.119527,170.035318 147.434954,170.574296 147.434954,170.574296 C147.434954,170.574296 156.30154,174.194293 159.062272,174.998736 C161.823004,175.80318 174.437737,179.286422 177.395952,178.216512 C180.354167,177.146601 182.232271,170.43754 182.232271,170.43754 C182.232271,170.43754 183.57435,164.404212 182.901295,163.467035 C182.228241,162.529858 178.468003,162.795324 177.395952,161.455925 C176.323901,160.116527 169.871445,158.640372 169.871445,158.640372 C169.871445,158.640372 162.903115,152.87251 162.097062,152.87251 C161.291009,152.87251 159.146907,155.149086 156.926231,153.407465 C152.502645,150.137572 147.855138,147.180719 143.017783,144.558584 C137.915466,141.875764 133.401568,129.274152 133.401568,129.274152 Z"/>
      <path fill="#000" fill-rule="nonzero" d="M120.511128 133.033383C122.87345 132.556032 125.32565 133.196795 127.141368 134.765874 130.377605 137.434632 141.267543 142.792152 141.267543 142.792152M201.058411 132.87864C201.058411 132.87864 186.700374 134.98127 184.019563 137.835396" opacity=".1"/>
      <path fill="#AD5975" fill-rule="nonzero" d="M217.551186,177.619094 L216.918538,177.619094 C214.64584,177.538028 206.945264,177.29483 205.462369,177.619094 C203.71755,178.024423 180.611793,177.619094 180.611793,177.619094 L185.12898,176.674676 C185.12898,176.674676 183.452665,170.764973 184.51648,170.274524 C184.51648,170.274524 178.472072,166.26987 183.029556,163.566322 C187.58704,160.862775 192.499129,162.001751 192.499129,162.001751 L203.939179,158.102482 L206.135314,157.352622 C206.135314,157.352622 219.030051,158.029522 222.519689,166.94677 C226.009327,175.864017 217.551186,177.619094 217.551186,177.619094 Z"/>
      <path fill="#000" fill-rule="nonzero" d="M217.523478,177.79924 L216.887815,177.79924 C220.65726,174.703128 229.184061,165.277726 203.846586,158.408228 L206.053189,157.662419 C206.053189,157.662419 219.009393,158.335662 222.515665,167.204733 C226.021938,176.073803 217.523478,177.79924 217.523478,177.79924 Z" opacity=".1"/>
      <circle cx="193.623" cy="166.337" r="1" fill="#4B4B5B" fill-rule="nonzero"/>
      <circle cx="189.906" cy="167.266" r="1" fill="#4B4B5B" fill-rule="nonzero"/>
      <path fill="#000" fill-rule="nonzero" d="M23.1681046,14.7921601 C23.324873,10.3653403 22.5339519,5.95596457 20.8478626,1.85683822 C15.5929589,2.63762616 9.83681833,-1.39912798 5.05081378,1.01568008 C1.50981717,2.80263804 0.398202939,7.282107 0.200133494,11.2303182 C0.151626691,12.2727103 0.143542224,13.3151025 0.163753392,14.3574946 C0.163753392,13.987224 0.163753392,13.6129288 0.200133494,13.2426582 C0.386076238,9.29444705 1.49769047,4.8149781 5.05081378,3.02802013 C9.83681833,0.61321207 15.5848745,4.63789217 20.8478626,3.86917827 C22.2757996,7.34128925 23.0618421,11.0417342 23.1681046,14.7921601 Z" opacity=".1" transform="translate(146.844 3.693)"/>
      <path stroke="#000" d="M184.639157 170.012723C184.639157 170.012723 194.907092 174.320887 201.678005 164.787756M186.49794 177.79924C186.49794 177.79924 194.808878 172.343932 205.395572 177.620644" opacity=".1"/>
      <circle cx="156.757" cy="18.254" r="17.968" fill="#A1616A" fill-rule="nonzero"/>
      <path stroke="#000" d="M130.734437,176.560051 C130.734437,176.560051 134.279311,168.285315 143.745921,174.594907" opacity=".1"/>
      <path fill="#000" fill-rule="nonzero" d="M119.271939,59.5974163 L126.394016,53.1485934 C126.394016,53.1485934 154.009168,51.334862 155.15192,60.7380518 C155.15192,60.7380518 164.941759,49.5896493 185.531404,52.0724461 L194.242872,59.0210527 L170.164616,69.6051832 L146.766377,77.7347306 L129.532559,70.0082347 L119.271939,59.5974163 Z" opacity=".1"/>
      <path fill="#D5D6DB" fill-rule="nonzero" d="M119.271939,60.2170107 L126.394016,53.7681879 C126.394016,53.7681879 154.009168,51.9544564 155.15192,61.3576463 C155.15192,61.3576463 164.941759,50.2092438 185.531404,52.6920406 L194.242872,59.6406472 L170.164616,70.2247777 L146.766377,78.3543251 L129.532559,70.6278292 L119.271939,60.2170107 Z"/>
      <polygon fill="#000" fill-rule="nonzero" points="116.174 61.006 119.352 98.673 153.04 100.35 151.579 62.843 151.55 62.212" opacity=".1"/>
      <polygon fill="#338996" fill-rule="nonzero" points="116.174 60.076 119.352 97.744 153.04 99.421 151.579 61.914 151.55 61.283"/>
      <polygon fill="#000" fill-rule="nonzero" points="196.411 60.076 161.714 65.247 161.714 103.138 195.621 98.269" opacity=".1"/>
      <polygon fill="#338996" fill-rule="nonzero" points="195.434 59.147 160.737 64.318 160.737 102.209 194.644 97.34"/>
      <polygon fill="#FFF" fill-rule="nonzero" points="188.357 68.441 169.459 70.498 169.872 76.805 188.344 74.828" opacity=".3"/>
      <path fill="#A1616A" fill-rule="nonzero" d="M121.314741,118.170121 L123.198054,123.276331 C123.198054,123.276331 125.997033,125.694426 129.059916,124.485378 C132.122799,123.276331 134.793825,122.675837 136.125339,121.499031 C137.456853,120.322225 139.324172,114.409983 139.324172,114.409983 C139.324172,114.409983 141.191491,107.961731 143.054812,106.349668 C144.918132,104.737604 149.852332,82.5274042 143.054812,84.6996593 C136.257291,86.8719144 131.059187,107.022704 131.059187,107.022704 C131.059187,107.022704 129.859624,108.497742 128.128256,108.634767 C126.396887,108.771793 122.930152,108.364747 122.262395,109.843815 C121.594639,111.322883 119.31547,115.216015 121.314741,118.170121 Z"/>
      <path fill="#000" fill-rule="nonzero" d="M161.404364,65.3880362 C157.894955,66.1955153 154.218325,65.259596 151.490852,62.8644629 L152.916092,100.460062 C152.916092,100.460062 156.27192,104.168828 161.404364,103.322261 L161.404364,65.3880362 Z" opacity=".1"/>
      <path fill="#134056" fill-rule="nonzero" d="M161.404364,64.4586445 C157.894955,65.2661236 154.218325,64.3302043 151.490852,61.9350712 L152.916092,99.53067 C152.916092,99.53067 156.27192,103.239436 161.404364,102.39287 L161.404364,64.4586445 Z"/>
      <path fill="#134056" fill-rule="nonzero" d="M161.404364,64.4586445 C157.894955,65.2661236 154.218325,64.3302043 151.490852,61.9350712 L152.916092,99.53067 C152.916092,99.53067 156.27192,103.239436 161.404364,102.39287 L161.404364,64.4586445 Z" opacity=".1"/>
      <path fill="#000" fill-rule="nonzero" d="M162.333755 60.3860849C162.333755 60.3860849 176.340669 56.1264804 179.992198 56.7264247M146.534096 58.5273015C146.534096 58.5273015 132.996114 55.2957977 130.734437 56.2127369M171.317876 61.0056794C171.317876 61.0056794 180.646866 57.2090189 184.019563 59.0139887M166.36112 147.129313C167.81366 146.026996 169.359821 145.056633 170.981537 144.229561 173.396389 143.054206 177.823618 140.003976 177.823618 140.003976M130.734437 105.92628C130.734437 105.92628 124.838319 110.837037 123.066658 111.268526 121.294998 111.700015 120.20133 115.529994 120.20133 115.529994" opacity=".1"/>
      <path fill="#A1616A" fill-rule="nonzero" d="M192.506188,117.228639 L190.642037,122.346939 C190.642037,122.346939 187.84181,124.765034 184.773562,123.555987 C181.705313,122.346939 179.041097,121.746446 177.704989,120.56964 C176.368881,119.392833 174.50473,113.480592 174.50473,113.480592 C174.50473,113.480592 172.640579,107.032339 170.772427,105.420276 C168.904276,103.808213 163.971876,81.5980125 170.772427,83.7702676 C177.572978,85.9425227 182.7734,106.093312 182.7734,106.093312 C182.7734,106.093312 183.973497,107.56835 185.705637,107.705375 C187.437778,107.842401 190.906059,107.435355 191.574113,108.914423 C192.242167,110.393491 194.50635,114.286623 192.506188,117.228639 Z"/>
      <path fill="#000" fill-rule="nonzero" d="M189.286116,108.09486 C189.286116,108.09486 193.330366,110.63483 193.313427,113.671211" opacity=".1"/>
      <ellipse cx="316.458" cy="267.486" fill="#124F69" fill-rule="nonzero" opacity=".1" rx="24.939" ry="3.872"/>
    </g>
    <path fill="#A8A8A8" fill-rule="nonzero" d="M429.178289,276.712957 C429.178289,276.712957 417.237453,274.364733 414.052289,271.235308 C410.867125,268.105884 396.53624,262.632858 394.941305,266.543483 C393.346371,270.454108 373.444977,283.753006 386.980748,286.10123 C400.516518,288.449454 418.827682,289.230655 422.807961,287.663631 C426.78824,286.096608 429.178289,276.712957 429.178289,276.712957 Z"/>
    <path fill="#000" fill-rule="nonzero" d="M386.648954,285.779325 C399.241996,288.454202 416.277839,289.344073 419.980902,287.559066 C422.799783,286.200566 424.760743,279.660808 425.535497,276.648938 L425.907554,276.743717 C425.907554,276.743717 423.683966,287.43796 419.980902,289.217701 C416.277839,290.997442 399.241996,290.107571 386.648954,287.43796 C383.015925,286.66393 381.974165,284.852596 382.368108,282.562101 C382.674508,284.057505 383.943879,285.205385 386.648954,285.779325 Z" opacity=".2"/>
    <path stroke="#535461" d="M348.212101,160.524975 C348.212101,160.524975 358.328553,167.101156 374.101202,171.043188 C384.282437,173.587767 405.453302,176.274631 411.118623,176.274631" transform="matrix(1 0 0 -1 0 336.8)"/>
    <path fill="#A8A8A8" fill-rule="nonzero" d="M81.476675,231.519212 C81.476675,231.519212 98.0442601,231.019982 103.036456,227.532307 C108.028652,224.044632 128.492413,219.905184 129.758139,225.452183 C131.023866,230.999181 154.655479,253.263445 135.952422,253.409054 C117.249365,253.554662 92.4934473,250.55235 87.5083225,247.577772 C82.5231976,244.603194 81.476675,231.519212 81.476675,231.519212 Z"/>
    <path fill="#000" fill-rule="nonzero" d="M136.291124,253.870394 C117.585897,254.022705 92.827106,250.882198 87.8414027,247.770703 C84.0437818,245.399003 82.530391,236.891348 82.0282847,232.967527 L81.476675,232.967527 C81.476675,232.967527 82.5233191,246.675514 87.5090224,249.78701 C92.4947258,252.898505 117.253517,256.046265 135.958744,255.886701 C141.361691,255.843184 143.221605,253.870394 143.122599,250.954727 C142.372975,252.738941 140.343334,253.841383 136.291124,253.870394 Z" opacity=".2"/>
    <path fill="url(#sg_language_illustration-a)" fill-rule="nonzero" d="M270.2267,61.0126975 C267.282464,60.6313985 265.312714,60.1581747 264.317449,59.5930259 C261.741169,58.1301166 260.585958,55.5384698 260.580974,55.4949816 C264.772626,52.9462081 270.694892,44.9004957 271.892514,40.1038643 C271.923513,39.9784326 271.95156,39.8500145 271.981082,39.7230896 C272.804857,39.3235766 273.500268,38.6967249 273.987162,37.9147834 C275.636015,35.1806721 274.069826,31.7193559 274.105254,28.534288 C274.127396,26.5214087 274.813803,24.5488468 274.735567,22.5374607 C274.670617,20.8530929 274.074255,19.2359206 273.423275,17.6799708 C273.10738,16.9229013 272.75901,16.1494061 272.153791,15.5894434 C270.549223,14.1156215 267.951209,14.7472595 265.890512,14.0215478 C263.224596,13.0823037 260.256581,8.88930289 258.666264,8.88930289 C257.075947,8.88930289 256.977555,9.0087616 255.827639,9.56872431 C255.130899,9.90768841 254.279164,9.48062351 253.781703,8.88930289 C253.284243,8.29798227 252.79777,8.01251766 252.307691,7.4152241 C251.412601,6.36238582 248.680371,6.35132485 247.648256,8.17317858 C246.616142,9.99503231 245.863667,10.68417 243.962394,10.8857566 C242.06112,11.0873432 239.820334,11.1112349 238.682227,12.6417997 C238.07996,13.4526257 237.951535,14.508342 237.545596,15.4311606 C236.603816,17.5709648 234.326126,18.7431534 232.324474,19.9720849 C230.322823,21.2010164 228.262126,22.992897 228.27984,25.3283149 C228.297554,27.5681657 230.251968,29.3824449 230.59591,31.5998972 C230.778952,32.7750723 230.494056,33.9890715 230.721382,35.1582736 C231.139131,37.3025575 233.120116,38.742035 234.947582,39.9590206 C235.071578,40.0411484 235.197051,40.1232763 235.325475,40.2009245 C235.35795,40.3323291 235.390425,40.4622404 235.425853,40.5921518 C236.019047,42.7056413 236.021157,44.6430232 236.743157,46.8767314 C237.747951,49.9853396 241.328796,50.7089266 240.375929,52.3289702 C239.423062,53.9490138 237.473265,57.5013266 237.545596,57.9283915 C256.774349,63.8647129 267.66805,64.8928149 270.2267,61.0126975 Z"/>
    <path fill="#464D55" fill-rule="nonzero" d="M247.182362,32.3327225 C248.917202,31.8522197 250.560967,30.837825 252.351628,30.8912142 C254.331785,30.9490525 256.037246,32.2911975 257.416598,33.7267737 C258.93844,35.3091701 260.263441,37.0813947 261.844041,38.6059528 C263.42464,40.1305109 265.32988,41.4237158 267.48925,41.7603644 C269.648619,42.0970129 272.079746,41.2768956 273.200562,39.3875113 C274.79732,36.691357 273.281355,33.2759316 273.315141,30.1348673 C273.337175,28.1490859 274.001144,26.2033464 273.926228,24.219048 C273.863062,22.5580508 273.285761,20.956375 272.655578,19.4273678 C272.348566,18.6858512 272.012174,17.91764 271.424591,17.3674347 C269.868963,15.9140622 267.352636,16.5369361 265.354852,15.8206311 C262.772423,14.8937354 263.079632,13.1704508 260.799384,11.4278868 C258.519137,9.68532286 256.718843,10.8761985 255.603903,11.4278868 C254.928182,11.7615693 254.102627,11.3403879 253.620809,10.7575558 C253.13899,10.1747238 253.13899,9.68532286 249.731135,9.68532286 C246.323279,9.68532286 245.945498,12.5268144 244.097548,12.7255409 C242.249598,12.9242673 240.082884,12.9479958 238.981164,14.4592067 C238.393581,15.2585615 238.273126,16.2996508 237.879445,17.2102332 C236.965753,19.3220724 234.759376,20.4729062 232.818882,21.6904764 C230.878387,22.9080466 228.882072,24.6713731 228.899699,26.9745236 C228.917327,29.1886921 230.809346,30.9787132 231.144269,33.1632211 C231.320544,34.322953 231.045848,35.5212438 231.266192,36.6735606 C231.670156,38.7883659 233.590085,40.2076286 235.36165,41.4088855 C235.802337,41.7054921 236.272404,42.0154461 236.801229,42.0198952 C237.682605,42.0273103 238.342167,41.1982948 238.778448,40.4167363 C239.374596,39.346243 239.844439,38.2089105 240.178366,37.0280055 C240.485378,35.9439083 240.301758,33.9343983 240.82177,33.0238159 C241.709021,31.460699 245.366729,32.8354707 247.182362,32.3327225 Z"/>
  </g>
</svg>
