<svg xmlns="http://www.w3.org/2000/svg" width="463" height="308" viewBox="0 0 463 308">
  <defs>
    <linearGradient id="sg_navigatingcoercion_illustration-a" x1="50.002%" x2="50.002%" y1="100%" y2="0%">
      <stop offset="0%" stop-color="gray" stop-opacity=".25"/>
      <stop offset="54%" stop-color="gray" stop-opacity=".12"/>
      <stop offset="100%" stop-color="gray" stop-opacity=".1"/>
    </linearGradient>
    <linearGradient id="sg_navigatingcoercion_illustration-b" x1="50%" x2="50%" y1="100%" y2="0%">
      <stop offset="0%" stop-opacity=".12"/>
      <stop offset="55%" stop-opacity=".09"/>
      <stop offset="100%" stop-opacity=".02"/>
    </linearGradient>
    <linearGradient id="sg_navigatingcoercion_illustration-c" x1="50%" x2="50%" y1="100%" y2=".018%">
      <stop offset="0%" stop-color="#B3B3B3" stop-opacity=".25"/>
      <stop offset="54%" stop-color="#B3B3B3" stop-opacity=".1"/>
      <stop offset="100%" stop-color="#B3B3B3" stop-opacity=".05"/>
    </linearGradient>
    <linearGradient id="sg_navigatingcoercion_illustration-d" x1="50%" x2="50%" y1="99.977%" y2="0%">
      <stop offset="1%" stop-opacity=".12"/>
      <stop offset="55%" stop-opacity=".09"/>
      <stop offset="100%" stop-opacity=".05"/>
    </linearGradient>
    <linearGradient id="sg_navigatingcoercion_illustration-e" x1="50%" x2="50%" y1="100%" y2="0%">
      <stop offset="0%" stop-color="#B3B3B3" stop-opacity=".25"/>
      <stop offset="54%" stop-color="#B3B3B3" stop-opacity=".1"/>
      <stop offset="100%" stop-color="#B3B3B3" stop-opacity=".05"/>
    </linearGradient>
    <linearGradient id="sg_navigatingcoercion_illustration-f" x1="50.001%" x2="50.001%" y1="100%" y2=".008%">
      <stop offset="0%" stop-color="gray" stop-opacity=".25"/>
      <stop offset="54%" stop-color="gray" stop-opacity=".12"/>
      <stop offset="100%" stop-color="gray" stop-opacity=".1"/>
    </linearGradient>
    <linearGradient id="sg_navigatingcoercion_illustration-g" x1="49.974%" x2="49.974%" y1="100.001%" y2="0%">
      <stop offset="0%" stop-color="gray" stop-opacity=".25"/>
      <stop offset="54%" stop-color="gray" stop-opacity=".12"/>
      <stop offset="100%" stop-color="gray" stop-opacity=".1"/>
    </linearGradient>
    <linearGradient id="sg_navigatingcoercion_illustration-h" x1="50.021%" x2="50.021%" y1="99.975%" y2="-.017%">
      <stop offset="0%" stop-color="gray" stop-opacity=".25"/>
      <stop offset="54%" stop-color="gray" stop-opacity=".12"/>
      <stop offset="100%" stop-color="gray" stop-opacity=".1"/>
    </linearGradient>
  </defs>
  <g fill="none" fill-rule="evenodd" transform="translate(-7 -2)">
    <path fill="#EFE9E5" fill-rule="nonzero" d="M466.625502,137.015062 C466.547714,137.473599 466.469927,137.932135 466.383951,138.390672 C463.608167,154.00548 459.076024,169.0594 452.337174,182.881003 C452.116094,183.339539 451.89092,183.798076 451.661651,184.256613 C447.336969,192.971653 442.026319,201.161539 435.833951,208.665498 C432.476808,212.714539 428.816704,216.558877 424.4647,219.334661 C418.364526,223.224034 411.232644,224.804348 404.223585,226.098076 C396.940223,227.445027 389.562697,228.554522 382.201547,229.782745 C379.592255,230.208529 376.99934,230.654783 374.422801,231.121508 C367.31139,232.407048 360.253202,233.893198 353.362871,235.862449 C344.843097,238.318895 336.577157,241.483616 328.798411,245.96663 C328.176111,246.32145 327.560635,246.685823 326.951982,247.059749 C326.341965,247.428215 325.723759,247.80487 325.130118,248.189714 C324.536477,248.574557 323.938742,248.955306 323.349195,249.344243 L322.44031,249.958355 C322.141442,250.15487 321.846669,250.367762 321.551895,250.564278 C320.675763,251.162013 319.811913,251.792501 318.948063,252.398424 L318.91531,252.422989 C318.346233,252.832397 317.781251,253.241804 317.216268,253.651212 C314.026982,256.013494 310.907296,258.486316 307.799892,260.967327 L305.838829,262.535358 C304.826227,263.337797 303.813626,264.138872 302.801024,264.938581 C302.207383,265.4094 301.605554,265.876125 301.007819,266.34285 C300.573847,266.682658 300.143968,267.022466 299.701808,267.358181 C297.486913,269.065411 295.243359,270.735794 292.95477,272.332484 C292.410258,272.713233 291.857557,273.093982 291.317139,273.466543 C286.735957,276.600082 281.863292,279.284572 276.766791,281.482745 L276.701286,281.511404 C274.190981,282.581398 271.607964,283.472046 268.971669,284.176647 C267.460955,284.586055 265.95024,284.909487 264.419056,285.16332 C260.339958,285.868837 256.176415,285.940646 252.075414,285.376212 C244.014178,284.233965 236.460606,280.46332 228.41984,279.202344 C211.830641,276.62717 195.720449,284.934052 180.109735,291.455916 C176.288597,293.055335 172.425153,294.556496 168.519404,295.9594 C165.931948,296.89285 163.332209,297.781264 160.720188,298.624644 C144.807095,303.771593 128.409798,307.279322 111.78369,309.093198 C104.995711,309.834226 97.9170521,310.186316 91.0062507,309.654087 C88.3965106,309.462292 85.7995399,309.124685 83.227505,308.64285 C74.4784632,307.005219 66.3107803,303.529348 59.7315991,297.179435 C54.2660068,291.984052 50.4093866,285.191978 47.4698395,278.105132 C46.2880161,275.258384 45.2467559,272.346131 44.3460591,269.368372 C42.9303317,264.701456 41.8669775,259.934837 41.1649615,255.108703 C41.0052925,254.019679 40.8619998,252.92656 40.7555538,251.833442 C40.5426618,249.958355 40.3843575,248.07508 40.2806409,246.183616 C39.7074211,236.130931 40.6892763,226.049999 43.1915294,216.296857 C45.9795956,205.492588 50.6304667,195.146857 52.677505,184.240236 C52.7634807,183.7817 52.8412681,183.323163 52.9190556,182.864627 C53.191994,181.226996 53.3994272,179.559342 53.5413552,177.861665 C54.5730625,164.523163 50.5813378,151.467153 47.4288988,138.390672 C47.3183587,137.932135 47.2078186,137.473599 47.1013726,137.015062 C46.7601996,135.565759 46.4367675,134.115091 46.1310765,132.663059 C43.2119998,118.833268 42.4136549,104.033181 45.0052054,90.2320482 C45.0870869,89.7735116 45.1812507,89.3108809 45.2754145,88.8564384 C47.0235852,80.3080064 50.110519,72.1771701 54.8391775,64.9347485 C59.6906584,57.4999053 66.0610416,51.3137555 72.8531148,45.8768217 C76.1693169,43.2293188 79.5987884,40.7524024 83.1415294,38.4460726 C85.6880451,36.7920656 88.2809603,35.2267636 90.9202751,33.7501666 C112.24632,21.8773443 136.577418,16.0760377 160.634212,17.37386 C161.908835,17.4393652 163.180728,17.5267056 164.449892,17.6358809 C165.781831,17.7505151 167.109677,17.8869843 168.433428,18.0452886 C183.92132,19.8344001 198.991617,24.2682851 213.971843,29.1197659 C218.991181,30.7573966 223.998237,32.3950273 229.005293,34.0326579 C231.23247,34.7586742 233.458283,35.4751376 235.682732,36.1820482 C246.593446,39.6251666 257.684299,42.7325708 268.877505,45.0743827 C271.47315,45.6202596 274.066065,46.1183722 276.656251,46.5687207 C285.661207,48.1818552 294.774004,49.1206416 303.918707,49.3772572 C307.466907,49.4645975 311.015107,49.4277508 314.563306,49.2667172 C316.356512,49.1848356 318.151082,49.0647427 319.947017,48.9064384 C338.497279,47.3179367 356.384299,41.9915429 374.345014,36.9885813 C376.940658,36.2639297 379.540397,35.5433722 382.123759,34.8473792 C385.538219,33.930306 388.956773,33.0418914 392.38761,32.2230761 C413.750502,27.093198 432.787958,30.0409332 452.648324,40.6200273 C457.151808,43.0232503 461.655293,45.9218565 464.439265,50.4089646 C467.223237,54.8960726 467.898759,60.4517346 468.414613,65.7985987 C469.143359,73.4053931 469.642836,81.1186335 469.802505,88.8646266 C469.802505,89.3231632 469.802505,89.7816997 469.831164,90.2402363 C470.191442,105.924644 469.237522,121.72778 466.625502,137.015062 Z"/>
    <g transform="rotate(-13 252.12 28.045)">
      <polygon fill="url(#sg_navigatingcoercion_illustration-a)" fill-rule="nonzero" points="85.185 223.421 0 231.421 0 30.886 85.185 22.883"/>
      <polygon fill="url(#sg_navigatingcoercion_illustration-a)" fill-rule="nonzero" points="85.185 223.421 170.369 231.421 170.369 30.886 85.185 22.883"/>
      <polygon fill="url(#sg_navigatingcoercion_illustration-a)" fill-rule="nonzero" points="253.884 223.421 170.369 231.421 170.369 30.886 253.884 22.883"/>
      <polygon fill="#F5F5F5" fill-rule="nonzero" points="85.488 217.852 2.714 225.543 2.714 32.857 85.488 25.168"/>
      <polygon fill="#FFF" fill-rule="nonzero" points="85.488 217.852 168.259 225.543 168.259 32.857 85.488 25.168"/>
      <polygon fill="#F5F5F5" fill-rule="nonzero" points="251.032 217.852 168.259 225.543 168.259 32.857 251.032 25.168"/>
      <polygon fill="#464D55" fill-rule="nonzero" points="85.488 42.866 22.614 45.071 22.614 53.663 22.614 65.425 22.614 74.018 75.989 74.018 75.989 63.552 85.488 63.22 99.961 67.688 99.961 47.333" opacity=".3"/>
      <polygon fill="#464D55" fill-rule="nonzero" points="85.488 204.737 14.925 211.522 14.925 185.738 85.488 178.953" opacity=".3"/>
      <rect width="30.758" height="23.521" x="127.098" y="184.834" fill="#464D55" fill-rule="nonzero" opacity=".3"/>
      <polygon fill="#464D55" fill-rule="nonzero" points="239.27 197.5 191.327 201.57 191.327 170.361 239.27 166.291" opacity=".3"/>
      <ellipse cx="209.865" cy="28.263" fill="url(#sg_navigatingcoercion_illustration-b)" fill-rule="nonzero" rx="5.912" ry="6.124"/>
      <path fill="url(#sg_navigatingcoercion_illustration-c)" fill-rule="nonzero" d="M64.4613445,156.459522 C64.4613445,167.729388 44.3214649,199.65114 44.3214649,199.65114 C44.3214649,199.65114 24.1815853,167.740829 24.1815853,156.459522 C24.1815853,145.178215 33.197478,136.056488 44.3214649,136.056488 C55.4454518,136.056488 64.4613445,145.203958 64.4613445,156.459522 Z"/>
      <ellipse cx="44.319" cy="155.049" fill="url(#sg_navigatingcoercion_illustration-d)" fill-rule="nonzero" rx="6.09" ry="6.17"/>
      <path fill="#124F69" fill-rule="nonzero" d="M62.4190388,156.359409 C62.4190388,166.356409 44.3186045,194.662651 44.3186045,194.662651 C44.3186045,194.662651 26.2181702,166.344968 26.2181702,156.359409 C26.3427184,146.452343 34.4093253,138.486509 44.3171743,138.486509 C54.2250233,138.486509 62.2916302,146.452343 62.4161784,156.359409 L62.4190388,156.359409 Z"/>
      <circle cx="44.319" cy="155.098" r="5.472" fill="#FFF" fill-rule="nonzero"/>
      <g stroke="#F7DAC4" stroke-width="11" opacity=".4" transform="translate(50.057 54.896)">
        <path d="M0.148739346,140.341294 L1.47881235,139.257213"/>
        <path stroke-dasharray="11.32" d="M3.99021901,137.209187 L32.8456522,113.674046"/>
        <polyline points="34.098 112.65 35.431 111.566 37.108 111.923"/>
        <path stroke-dasharray="12.43" d="M40.585819,112.664334 L73.6259765,119.709431"/>
        <polyline points="75.365 120.081 77.041 120.439 77.519 118.791"/>
        <path stroke-dasharray="12.17" d="M78.488609,115.447476 L110.908066,3.44674832"/>
        <polyline points="111.391 1.773 111.869 .126 113.437 .827"/>
        <path stroke-dasharray="11.6" d="M116.465769,2.1796035 L151.3051,17.7457482"/>
        <path d="M152.821097,18.4236564 L154.388581,19.1215871"/>
      </g>
      <g fill-rule="nonzero" transform="translate(149)">
        <path fill="url(#sg_navigatingcoercion_illustration-e)" d="M39.7354347,20.2825295 C39.7354347,31.472305 20.1762106,63.1595065 20.1762106,63.1595065 C20.1762106,63.1595065 0.616986537,31.472305 0.616986537,20.2825295 C0.616986537,9.09275409 9.37544575,0.0225143334 20.1762106,0.0225143334 C30.9769754,0.0225143334 39.7354347,9.09275409 39.7354347,20.2825295 Z"/>
        <path fill="#124F69" d="M38.2766449,20.3197144 C38.2766449,30.3167147 20.1762106,58.6229565 20.1762106,58.6229565 C20.1762106,58.6229565 2.07577628,30.3052732 2.07577628,20.3197144 C1.9938044,13.7993418 5.42541504,7.73888397 11.0589576,4.4548049 C16.6925002,1.17072584 23.6570606,1.17072584 29.2906032,4.4548049 C34.9241458,7.73888397 38.3557564,13.7993418 38.2737845,20.3197144 L38.2766449,20.3197144 Z"/>
        <circle cx="20.176" cy="19.055" r="5.472" fill="#FFF"/>
      </g>
    </g>
    <ellipse cx="301.463" cy="247.258" fill="#A68676" fill-rule="nonzero" opacity=".1" rx="30.8" ry="6.915"/>
    <ellipse cx="373.032" cy="269.218" fill="#A68676" fill-rule="nonzero" opacity=".1" rx="55.565" ry="4.561"/>
    <ellipse cx="242.84" cy="259.212" fill="#A68676" fill-rule="nonzero" opacity=".1" rx="41.809" ry="6.915"/>
    <g fill-rule="nonzero" transform="translate(191.648 21.29)">
      <path fill="url(#sg_navigatingcoercion_illustration-f)" d="M80.8416376,74.237892 C79.9573171,68.2851045 74.5490418,54.3939024 74.5490418,54.3939024 C74.454878,53.9844948 74.3484321,53.5750871 74.2297038,53.1656794 C70.393554,39.9827526 65.0835366,38.8364111 65.0835366,38.8364111 L46.0624564,34.7423345 C46.2219683,34.8419675 46.3609373,34.9712087 46.4718641,35.1230836 C46.3714635,35.1323771 46.2716776,35.1474133 46.1729965,35.1681185 C45.3020168,34.139949 44.7261518,32.8948355 44.5067073,31.565331 C44.4698606,31.3688153 44.437108,31.1559233 44.4125436,30.9553136 C47.1763843,28.2613024 48.6421932,24.504984 48.4335321,20.6510286 C48.224871,16.7970732 46.3620696,13.2209727 43.3235192,10.841115 C43.1229094,10.6855401 42.9141115,10.5340592 42.7135017,10.3907666 C43.6101045,9.43684669 43.6387631,8.11036585 42.9673345,6.78388502 C41.4689024,3.67238676 38.2100174,1.70313589 34.8610627,0.741027875 C32.3022648,0.00818815331 29.5387631,-0.229268293 26.9922474,0.573170732 C25.5470383,1.03170732 24.2287456,1.80139373 22.8736063,2.48510453 C20.347561,3.74608014 17.5513066,4.74503484 15.6639373,6.82073171 C15.221777,7.30383275 14.8123693,7.92203833 14.9433798,8.56071429 C15.0416376,9.03562718 15.4182927,9.40409408 15.6598432,9.82578397 C16.2043554,10.7715157 16.0692509,11.962892 15.6966899,12.9945993 C15.3241289,14.0263066 14.7796167,14.9843206 14.5216899,16.0405923 C14.2637631,17.0968641 14.3620209,18.3414634 15.1562718,19.0988676 C15.5371302,19.3928072 15.9334585,19.6661371 16.343554,19.9176829 C16.7781667,20.2880959 17.1597628,20.7165305 17.4776132,21.1909408 C18.2309233,22.200813 18.9815041,23.2147793 19.7293554,24.2328397 C20.7852319,25.5821539 21.7286672,27.0157921 22.5501742,28.519338 C23.1110627,29.6247387 23.5450348,30.8038328 24.2942509,31.7945993 C24.5138121,32.08381 24.765122,32.3474794 25.0434669,32.580662 L24.8223868,32.4946864 C25.4803614,33.1643083 26.3852707,33.5330848 27.3238676,33.5141115 C27.3648084,33.5141115 27.4016551,33.5141115 27.4385017,33.5141115 C27.6094422,33.5105105 27.7729134,33.4433705 27.8970383,33.325784 C27.8970383,33.4649826 27.8970383,33.6041812 27.8970383,33.7351916 C27.9420732,35.196777 27.933885,36.7525261 27.8315331,38.2141115 L27.6554878,38.1240418 C27.1224389,37.8590203 26.4842329,37.926032 26.0178571,38.295993 L8.50749129,52.3468641 C8.50749129,52.3468641 4.7,57.5545296 5.23222997,66.545122 L2.16167247,80.0269164 C2.16167247,80.0269164 -1.67447735,91.4657666 1.27735192,99.6334495 C4.22918118,107.801132 5.94050523,112.472474 5.94050523,112.472474 C5.94050523,112.472474 7.1195993,121.753746 8.89233449,122.51115 C10.6650697,123.268554 11.430662,123.677962 11.430662,123.677962 L11.7827526,125.896951 C11.7827526,125.896951 11.9014808,126.113937 12.1102787,126.47831 C13.3999129,128.721864 18.1777003,136.639808 20.9534843,135.792334 C21.3029193,137.942416 21.4536716,140.120101 21.4038328,142.297822 L24.1509582,160.741638 C24.1509582,160.741638 26.0669861,165.756882 25.9482578,168.385279 C25.8295296,171.013676 28.1836237,174.759756 28.1836237,174.759756 C26.7534301,177.377901 26.3338716,180.429898 27.0045296,183.336847 C28.1263066,188.249739 29.5428571,210.881794 29.5428571,210.881794 L31.5898955,216.367857 L31.5325784,222.799652 C31.3645284,223.848632 30.927231,224.836078 30.2634146,225.665505 C28.9369338,227.10662 29.0351916,228.772909 25.8377178,230.74216 C22.6402439,232.711411 20.613676,233.456533 20.613676,236.06446 C20.6097973,236.428139 20.5769407,236.790931 20.5154181,237.14939 C20.2206446,239.065418 19.6474739,240.105314 25.5265679,240.662108 C32.4332753,241.31716 37.0391115,236.813676 37.0391115,236.813676 C37.0391115,236.813676 38.0544425,234.971341 42.836324,234.22622 C42.836324,234.22622 44.4739547,234.140244 44.5599303,232.695035 C44.5926829,232.195557 44.5844948,231.241638 44.5599303,230.18946 C44.4821429,228.187456 44.2897213,225.849739 44.0358885,225.735105 C43.7165505,225.591812 43.1597561,223.577526 42.9673345,222.84878 L44.2979094,222.84878 C44.2979094,222.84878 45.5261324,213.567509 44.2979094,207.557404 C43.0696864,201.5473 44.1791812,197.285366 44.1791812,197.285366 L43.9417247,181.412631 C43.9417247,181.412631 42.3040941,179.660366 43.5896341,176.565244 C44.8751742,173.470122 43.5896341,158.18284 43.5896341,158.18284 C43.5896341,158.18284 44.064547,152.696777 45.4196864,151.411237 C46.7748258,150.125697 45.4851916,143.374564 45.4196864,143.022474 L47.8351916,151.124652 C47.8351916,151.124652 48.8955575,167.230749 51.1432056,170.145732 L51.7900697,177.441376 C51.7900697,177.441376 56.3918118,184.155662 55.5074913,187.770732 C54.6231707,191.385801 56.453223,204.462282 56.453223,204.462282 L56.453223,217.829443 C56.453223,217.829443 54.3857143,223.196777 57.2720383,225.125087 L58.5002613,225.075958 C58.0908537,225.456707 57.7756098,226.029878 57.2966028,226.525261 C56.7439024,227.094338 56.4286585,229.260105 56.2526132,231.122909 C56.1052265,232.699129 56.0560976,234.054268 56.0560976,234.054268 C56.0560976,234.054268 57.2843206,236.019425 59.5974739,236.15453 C61.9106272,236.289634 69.5337979,242.086847 69.5337979,242.086847 C69.5337979,242.086847 77.0628049,242.086847 79.0115854,241.677439 L79.1262195,241.64878 C79.751752,241.452027 80.2778742,241.02263 80.595993,240.449216 C80.9863488,239.783977 81.1120436,238.996192 80.9480836,238.242509 C80.7065331,237.092073 79.793554,235.831098 77.7710801,234.758449 C72.7394599,232.105488 71.9902439,229.620383 71.9902439,229.620383 L68.686324,224.662456 L69.1571429,224.662456 C69.1571429,224.662456 68.8664634,219.409756 72.4610627,213.514286 L72.2277003,187.545557 C72.2277003,187.545557 73.7015679,178.616376 71.1673345,173.76899 C71.1673345,173.76899 70.9585366,168.635017 72.6534843,167.058798 C74.3484321,165.482578 70.3976481,149.552526 70.3976481,149.552526 C70.3976481,149.552526 69.5788328,141 68.6167247,133.19669 C72.6002613,136.975523 76.7311847,123.370906 77.4271777,120.951307 L77.5295296,120.951307 L77.4844948,120.775261 C77.5131533,120.660627 77.5295296,120.60331 77.5295296,120.60331 C77.5295296,120.60331 76.6452091,117.459059 77.2920732,118.097735 C77.9389373,118.736411 79.5356272,116.34547 79.5356272,116.34547 C79.5356272,116.34547 79.2981707,103.330401 82.0739547,96.7716899 C84.8497387,90.2129791 80.8416376,74.237892 80.8416376,74.237892 Z M68.9688153,82.5202091 L68.9892857,82.4833624 C69.3986934,90.4299652 68.9114983,107.387631 68.9114983,107.387631 C68.9114983,107.387631 68.362892,109.561585 67.777439,112.120383 L67.3680314,96.0101916 L66.9586237,80.8334495 L68.9688153,82.5202091 Z M18.15723,77.0423345 C18.15723,77.0423345 20.1633275,102.13493 18.15723,105.754094 C17.5881533,106.785801 17.1091463,108.619948 16.7120209,110.712021 C16.0487805,108.972038 14.6445122,104.88615 15.1480836,102.720383 C15.7990418,99.9200348 13.8502613,92.5629791 13.8502613,92.3910279 C13.8502613,92.2190767 13.674216,88.2969512 15.0784843,85.3000871 C16.4827526,82.303223 15.5615854,81.0054007 15.5615854,81.0054007 C15.5615854,81.0054007 16.7406794,76.0925087 18.15723,77.0423345 Z"/>
      <path fill="#D38884" d="M23.0455575 133.556969C21.2973868 141.241551 14.3456446 129.622561 12.7612369 126.834495 12.5565331 126.470122 12.441899 126.25723 12.441899 126.25723L13.1952091 122.724042 17.1787456 121.086411C17.8095664 121.416006 18.4073106 121.805363 18.9637631 122.249129 21.1459059 123.964547 24.3925087 127.604181 23.0455575 133.556969zM76.9768293 120.984059C76.9768293 120.984059 76.9768293 121.041376 76.9317944 121.15601 76.9317944 121.205139 76.8990418 121.270645 76.8785714 121.340244 76.1948606 123.739373 72.1417247 137.245732 68.2277875 133.495557 63.9453833 129.401481 66.0251742 119.935976 66.0251742 119.935976L66.0538328 119.935976 75.0608014 119.014808 76.8458188 120.848955C76.8458188 120.848955 76.8458188 120.848955 76.8458188 120.848955L76.9768293 120.984059z"/>
      <path fill="#49627D" d="M71.7650697,187.451394 L71.994338,213.244077 C68.4611498,219.098606 68.7518293,224.298084 68.7518293,224.298084 L57.1082753,224.75662 C54.2669861,222.844686 56.2894599,217.518293 56.2894599,217.518293 L56.2894599,204.237108 C56.2894599,204.237108 54.4921603,191.262979 55.3601045,187.66838 C56.2280488,184.07378 51.7122822,177.433188 51.7122822,177.433188 L51.0736063,170.190767 C48.870993,167.296254 47.8270035,151.308885 47.8270035,151.308885 L45.4647213,143.235366 C45.5302265,143.583362 46.7584495,150.322213 45.4647213,151.562718 C44.170993,152.803223 43.6674216,158.281098 43.6674216,158.281098 C43.6674216,158.281098 44.9406794,173.461934 43.6674216,176.528397 C42.3941638,179.594861 44.011324,181.338937 44.011324,181.338937 L44.2446864,197.097038 C44.2446864,197.097038 43.1433798,201.32622 44.3593206,207.291289 C45.5752613,213.256359 44.3593206,222.472125 44.3593206,222.472125 L31.8682927,222.472125 L31.9256098,216.040331 L29.9031359,210.595209 C29.9031359,210.595209 28.5111498,188.118728 27.4098432,183.250871 C26.7506787,180.366164 27.1609219,177.340256 28.5643728,174.735192 C28.5643728,174.735192 26.2512195,171.030052 26.3658537,168.422125 C26.4804878,165.814199 24.5808362,160.839895 24.5808362,160.839895 L21.8869338,142.535279 C21.9611115,139.01248 21.511308,135.498218 20.5522648,132.107666 C18.9883275,126.891812 16.6710801,120.054704 16.6710801,120.054704 L19.2871951,120.288066 L32.4864983,121.463066 C32.4864983,121.463066 64.5799652,119.305488 66.0169861,121.098693 C66.3201155,121.684944 66.5248187,122.317034 66.6229094,122.969686 C68.0640244,129.442422 69.96777,149.720383 69.96777,149.720383 C69.96777,149.720383 73.8489547,165.535801 72.1826655,167.099739 C70.5163763,168.663676 70.7210801,173.756707 70.7210801,173.756707 C73.2184669,178.567247 71.7650697,187.451394 71.7650697,187.451394 Z"/>
      <path fill="#AD5975" d="M44.6336237,232.252875 C44.543554,233.689895 42.94277,233.775871 42.94277,233.775871 C38.2509582,234.512805 37.2520035,236.338763 37.2520035,236.338763 C37.2520035,236.338763 32.7485192,240.813589 25.956446,240.162631 C20.1837979,239.605836 20.7446864,238.578223 21.043554,236.674477 C21.1016204,236.319773 21.133096,235.961225 21.1377178,235.601829 C21.1377178,232.993902 23.1356272,232.252875 26.2635017,230.27953 C29.3913763,228.306185 29.3054007,226.672648 30.6073171,225.239721 C31.9092334,223.806794 32.044338,221.026916 32.044338,221.026916 C33.5182056,218.45993 37.2560976,221.436324 37.2560976,221.436324 C37.4321429,222.345209 42.9878049,222.218293 42.9878049,222.218293 C42.9878049,222.218293 43.7247387,225.174216 44.1054878,225.346167 C44.3552265,225.460801 44.543554,227.778049 44.6172474,229.76777 C44.6581882,230.81176 44.6663763,231.757491 44.6336237,232.252875 Z"/>
      <path fill="#000" d="M44.6336237,232.252875 C44.543554,233.689895 42.94277,233.775871 42.94277,233.775871 C38.2509582,234.512805 37.2520035,236.338763 37.2520035,236.338763 C37.2520035,236.338763 32.7485192,240.813589 25.956446,240.162631 C20.1837979,239.605836 20.7446864,238.578223 21.043554,236.674477 C23.6228223,237.313153 28.5520906,238.205662 31.4302265,236.641725 C35.4301394,234.471864 38.3000871,232.957056 38.3000871,232.957056 L44.6213415,229.775958 C44.6581882,230.81176 44.6663763,231.757491 44.6336237,232.252875 Z" opacity=".1"/>
      <path fill="#AD5975" d="M79.9941638,239.986585 C79.68619,240.555341 79.1695708,240.982433 78.5530488,241.177962 L78.4425087,241.20662 C76.5305749,241.616028 69.1407666,241.616028 69.1407666,241.616028 C69.1407666,241.616028 61.6690767,235.839286 59.4091463,235.708275 C57.149216,235.577265 55.9332753,233.620296 55.9332753,233.620296 C55.9332753,233.620296 55.9783101,232.277439 56.1216028,230.713502 C56.2976481,228.862979 56.6047038,226.713589 57.149216,226.148606 C58.1481707,225.104617 58.377439,223.69216 60.6250871,224.584669 C60.6250871,224.584669 63.8348432,218.926655 67.61777,223.299129 L71.5317073,229.23554 C71.5317073,229.23554 72.2686411,231.691986 77.2265679,234.35723 C79.208101,235.42169 80.0924216,236.674477 80.3421603,237.816725 C80.4998069,238.558126 80.3757488,239.331665 79.9941638,239.986585 Z"/>
      <path fill="#000" d="M79.9941638,239.986585 C79.5520035,240.359146 79.0648084,240.760366 78.5530488,241.177962 L78.4425087,241.20662 C76.5305749,241.616028 69.1407666,241.616028 69.1407666,241.616028 C69.1407666,241.616028 61.6690767,235.839286 59.4091463,235.708275 C57.149216,235.577265 55.9332753,233.620296 55.9332753,233.620296 C55.9332753,233.620296 55.9783101,232.277439 56.1216028,230.713502 C58.4224739,231.401307 61.9065331,232.617247 62.8399826,233.927352 C64.2729094,235.921167 68.6249129,238.705139 68.6249129,238.705139 C68.6249129,238.705139 76.7393728,237.923171 80.3421603,237.816725 C80.4998069,238.558126 80.3757488,239.331665 79.9941638,239.986585 Z" opacity=".1"/>
      <path fill="#D38884" d="M48.4165505,37.8251742 L37.7310105,49.1207317 C37.7310105,49.1207317 24.781446,48.1668118 27.0413763,44.3429443 C28.1918118,42.3941638 28.3719512,38.3164634 28.2695993,34.770993 C28.1754355,31.352439 27.8233449,28.4415505 27.8233449,28.4415505 C27.8233449,28.4415505 45.984669,19.4018293 44.6090592,27.8315331 C44.3126956,29.4199528 44.2960694,31.0479321 44.5599303,32.6420732 C45.3337108,36.8999129 48.4165505,37.8251742 48.4165505,37.8251742 Z"/>
      <path fill="#000" d="M44.5926829,27.8315331 C44.2963193,29.4199528 44.2796931,31.0479321 44.543554,32.6420732 C42.0343306,35.1848522 38.6094887,36.6140821 35.037108,36.6092334 C32.580662,36.6092334 29.9236063,34.5908537 27.9379791,33.4240418 C27.8438153,30.0013937 27.8233449,28.4415505 27.8233449,28.4415505 C27.8233449,28.4415505 45.984669,19.4018293 44.5926829,27.8315331 Z" opacity=".1"/>
      <path fill="#D38884" d="M48.4165505,22.5297038 C48.4187659,28.7746811 44.1017108,34.1911041 38.0135673,35.5818788 C31.9254237,36.9726535 25.6846715,33.9680545 22.9749728,28.3415743 C20.2652741,22.7150942 21.8069785,15.9624836 26.6900808,12.0695337 C31.5731831,8.17658391 38.499553,8.17820164 43.3808362,12.0734321 C46.5619156,14.6119115 48.4151068,18.4599198 48.4165505,22.5297038 Z"/>
      <path fill="#000" d="M66.6229094,122.969686 C63.290331,130.899913 41.8537456,131.063676 41.8537456,131.063676 L41.8537456,122.416986 L40.5559233,122.33101 C41.1168118,124.807927 39.7698606,130.84669 39.7698606,130.84669 C22.8285714,133.237631 18.6976481,123.583798 18.6976481,123.583798 L19.2871951,120.279878 L32.4864983,121.454878 C32.4864983,121.454878 64.5799652,119.2973 66.0169861,121.090505 C66.3209667,121.679299 66.5256919,122.314224 66.6229094,122.969686 Z" opacity=".1"/>
      <path fill="#F7DAC4" d="M41.8537456,130.019686 L41.8537456,121.372997 L40.5559233,121.291115 C41.1168118,123.747561 39.7698606,129.806794 39.7698606,129.806794 C27.0209059,131.604094 21.5266551,126.584756 19.5901568,123.989111 C19.2419688,123.542043 18.9427535,123.058906 18.6976481,122.547997 L23.872561,93.4391115 L25.100784,50.5986934 L26.9554007,43.0819686 L27.3852787,39.4750871 L27.3852787,39.4341463 L27.4303136,39.4341463 L28.7486063,39.9991289 L36.637892,43.4094948 L45.5998258,36.6419861 L45.7308362,36.5478223 L46.1770906,36.2080139 L46.9181185,36.8016551 L48.760453,38.2796167 L54.6682056,76.4323171 C54.6682056,76.4323171 64.9033972,105.807317 66.8194251,117.663763 C66.8972125,118.138676 66.9586237,118.580836 67.0077526,118.994338 C68.2728223,129.819077 41.8537456,130.019686 41.8537456,130.019686 Z"/>
      <circle cx="37.596" cy="44.253" r="1" fill="#67647E"/>
      <circle cx="37.948" cy="51.205" r="1" fill="#67647E"/>
      <circle cx="38.709" cy="62.459" r="1" fill="#67647E"/>
      <circle cx="39.966" cy="74.582" r="1" fill="#67647E"/>
      <circle cx="40.728" cy="85.963" r="1" fill="#67647E"/>
      <circle cx="41.489" cy="98.086" r="1" fill="#67647E"/>
      <circle cx="41.186" cy="110.077" r="1" fill="#67647E"/>
      <path fill="#000" d="M27.8929443,97.6723868 C27.8929443,97.6723868 27.0413763,108.820557 25.477439,112.063066 C23.9135017,115.305575 23.2175087,124.402613 23.2175087,124.402613 L19.5860627,123.993206 C19.2378747,123.546137 18.9386594,123.063 18.693554,122.552091 L23.8684669,93.4432056 L25.0966899,50.6027875 L26.9554007,43.0819686 L27.3852787,39.4750871 L27.4344077,39.4546167 C27.8454853,39.2604199 28.323408,39.2679819 28.7281359,39.4750871 L28.9000871,39.5651568 C28.8482288,39.7125436 28.7990999,39.8640244 28.7527003,40.0195993 C27.3361498,44.4534843 26.8080139,52.6252613 26.8080139,52.6252613 C26.8080139,52.6252613 28.8550523,67.5727352 29.0679443,74.5244774 C29.2808362,81.4762195 27.8929443,97.6723868 27.8929443,97.6723868 Z" opacity=".1"/>
      <path fill="#000" d="M18.9637631,122.261411 C18.9239506,122.354725 18.8774292,122.445031 18.8245645,122.53162 C17.4162021,124.910279 13.8461672,126.420993 12.7612369,126.834495 C12.5565331,126.470122 12.441899,126.25723 12.441899,126.25723 L13.1952091,122.724042 L17.1787456,121.086411 C17.8100697,121.419904 18.4078313,121.813385 18.9637631,122.261411 Z" opacity=".1"/>
      <path fill="#67647E" d="M9.31402439,65.370122 L6.01010453,67.3393728 L3.00095819,80.7229094 C3.00095819,80.7229094 -0.765592334,92.075784 2.12891986,100.18615 C5.02343206,108.296516 6.70609756,112.939199 6.70609756,112.939199 C6.70609756,112.939199 7.86472125,122.150871 9.60470383,122.904181 C11.3446864,123.657491 12.0939024,124.062805 12.0939024,124.062805 L12.441899,126.265418 C12.441899,126.265418 17.1582753,124.664634 18.8245645,121.843815 C20.4908537,119.022997 17.5963415,112.018031 17.5963415,112.018031 C17.5963415,112.018031 15.1071429,106.048868 15.7458188,103.26899 C16.3844948,100.489111 14.4684669,93.1893728 14.4684669,93.0337979 C14.4684669,92.878223 14.2965157,88.9765679 15.6966899,85.9919861 C17.0968641,83.0074042 16.1634146,81.7341463 16.1634146,81.7341463 L15.2913763,73.2184669 L9.31402439,65.370122 Z"/>
      <path fill="#000" d="M66.8972125,120.464111 C66.8972125,120.464111 58.1481707,123.763937 55.3682927,120.873519 C52.5884146,117.983101 52.875,104.419425 52.875,104.419425 C52.875,104.419425 50.2138502,79.3923345 48.5311847,75.2818815 C46.8485192,71.1714286 47.7123693,41.5057491 47.7123693,41.5057491 C47.7123693,41.5057491 46.5824042,37.6695993 45.5957317,36.6665505 C45.5334207,36.6020923 45.4632744,36.5457002 45.3869338,36.4986934 L45.7267422,36.5723868 L46.9140244,36.8262195 L48.7563589,38.3041812 L54.6641115,76.4568815 C54.6641115,76.4568815 64.8993031,105.831882 66.815331,117.688328 L66.8972125,120.464111 Z" opacity=".1"/>
      <path fill="#000" d="M76.9768293,121.332056 L76.8785714,121.332056 C75.7772648,121.475348 66.0579268,122.650348 66.0169861,120.627875 C66.0154375,120.393989 66.0277412,120.160218 66.0538328,119.927787 L75.0608014,119.00662 L76.8458188,120.840767 C76.8458188,120.840767 76.8458188,120.840767 76.8458188,120.840767 C76.8785714,120.959495 76.9031359,121.061847 76.9277003,121.143728 L76.9768293,121.332056 Z" opacity=".1"/>
      <path fill="#67647E" d="M67.6505226,51.966115 L74.0372822,55.2986934 C74.0372822,55.2986934 79.3595819,69.0793554 80.2111498,74.987108 C80.2111498,74.987108 84.1537456,90.8148084 81.4393728,97.3243902 C78.725,103.833972 78.9501742,116.754878 78.9501742,116.754878 C78.9501742,116.754878 77.3862369,119.129443 76.747561,118.494861 C76.108885,117.860279 76.9809233,120.984059 76.9809233,120.984059 C76.9809233,120.984059 66.0620209,122.433362 66.0169861,120.288066 C65.9719512,118.14277 68.522561,107.891202 68.522561,107.891202 C68.522561,107.891202 69.218554,83.5027875 68.2318815,79.6789199 C67.2452091,75.8550523 67.6505226,51.966115 67.6505226,51.966115 Z"/>
      <path fill="#000" d="M48.5925958 77.9430314C48.5925958 77.9430314 44.9979965 86.7452962 43.8393728 87.3266551 42.6807491 87.9080139 44.0727352 90.2211672 44.0727352 90.2211672 44.0727352 90.2211672 50.6191638 81.0709059 48.5925958 77.9430314zM46.4472997 47.0655052C46.4882404 46.8976481 42.1608014 51.3110627 41.0021777 51.9783972 39.843554 52.6457317 45.2313589 51.9374564 46.4472997 47.0655052zM34.3984321 77.2470383C34.3984321 77.2470383 27.7946864 81.5171603 28.6667247 83.2080139 29.5387631 84.8988676 34.3984321 77.2470383 34.3984321 77.2470383zM46.3899826 139.579355C46.3899826 139.579355 52.0111498 143.194425 60.7560976 144.08284L46.3899826 139.579355zM32.8918118 148.27108C32.8918118 148.27108 38.1035714 154.821603 40.48223 154.98946 42.8608885 155.157317 32.8918118 148.27108 32.8918118 148.27108zM40.1915505 173.940941C39.9581882 174.055575 37.2356272 179.848693 34.4598432 180.024739 31.6840592 180.200784 40.1915505 173.940941 40.1915505 173.940941zM64.3466028 186.632578C64.3466028 186.632578 69.5133275 185.473955 70.6637631 189.179094 70.6637631 189.166812 70.3157666 188.008188 64.3466028 186.632578zM60.8707317 207.823519C60.8707317 207.823519 67.1305749 206.546167 68.4611498 208.28615 69.7917247 210.026132 60.8707317 207.823519 60.8707317 207.823519zM43.1638502 210.787631C43.1638502 210.844948 36.7934669 212.064983 37.0227352 212.87561 37.2520035 213.686237 43.8189024 213.571603 44.0522648 212.294251 44.1366403 211.976547 44.0901424 211.638279 43.9231737 211.355125 43.756205 211.071971 43.482701 210.867562 43.1638502 210.787631zM58.7868467 216.281882C58.7868467 216.281882 69.2554007 215.00453 68.6126307 217.207143 67.9698606 219.409756 58.7868467 216.281882 58.7868467 216.281882zM3.98353659 87.3266551C4.04085366 87.4986063 10.8779617 88.4279617 11.803223 90.6305749 11.803223 90.6305749 5.08484321 87.4986063 4.02447735 87.4986063M13.6005226 105.225958C13.6005226 105.225958 7.92203833 107.023258 8.32735192 109.729443 8.73266551 112.435627 7.75008711 108.476655 13.6005226 105.225958zM10.9557491 119.014808C10.9557491 119.014808 13.0232578 116.177613 14.9925087 116.697561 16.9617596 117.217509 10.9557491 119.014808 10.9557491 119.014808zM43.3808362 12.0734321C43.1819768 12.2663916 42.9590573 12.4328932 42.7175958 12.5688153 41.0799652 13.5227352 40.6296167 14.9925087 39.8517422 16.6874564 39.1270906 18.2391115 38.3287456 19.8808362 36.8671603 20.7610627 34.9797909 21.899216 32.4946864 21.4816202 30.5336237 22.4723868 28.7525031 23.3996356 27.7149532 25.3174818 27.9134146 27.3156794 28.0380293 28.0693223 28.2242518 28.8114737 28.4702091 29.534669 28.9161825 31.1005932 29.1178008 32.7259681 29.0679443 34.3533972 29.0721317 34.4010697 29.0721317 34.4490174 29.0679443 34.4966899 24.4903527 32.2096143 21.6181884 27.5118969 21.6690324 22.3950156 21.7198764 17.2781344 24.6848223 12.6384175 29.3069567 10.4427552 33.9290911 8.2470929 39.3987508 8.8801011 43.3972125 12.0734321L43.3808362 12.0734321z" opacity=".1"/>
      <path fill="#585268" d="M43.0328397,8.04486063 C41.5630662,4.95792683 38.3655923,3.00095819 35.0780488,2.04703833 C32.5683798,1.32238676 29.8417247,1.08493031 27.3525261,1.88327526 C25.9318815,2.33362369 24.6422474,3.11149826 23.3116725,3.77883275 C20.830662,5.03162021 18.104007,6.02238676 16.237108,8.08170732 C15.7990418,8.56071429 15.4182927,9.17482578 15.5288328,9.80940767 C15.6229965,10.2802265 15.9914634,10.628223 16.2289199,11.0621951 C16.7652439,12.0038328 16.6383275,13.1870209 16.2657666,14.2105401 C15.8932056,15.2340592 15.3650697,16.183885 15.1112369,17.2360627 C14.8574042,18.2882404 14.955662,19.5205575 15.7335366,20.2697735 C16.0815331,20.6013937 16.5277875,20.8101916 16.9044425,21.0885889 C17.3300975,21.4563009 17.7033964,21.8805669 18.0139373,22.3495645 L20.2247387,25.370993 C21.2632929,26.70995 22.1889983,28.1327428 22.9923345,29.6247387 C23.5409408,30.7219512 23.9667247,31.8928571 24.7036585,32.8713415 C25.4405923,33.8498258 26.5869338,34.6358885 27.8069686,34.5294425 C27.9985459,34.5343118 28.1809896,34.447651 28.2982578,34.2960801 C28.3435666,34.2003023 28.3646549,34.0948611 28.359669,33.9890244 C28.413599,32.3676161 28.2161077,30.7476353 27.774216,29.1866725 C27.5277782,28.4636191 27.3415457,27.7214276 27.2174216,26.9676829 C27.0247315,24.9706501 28.060643,23.0558324 29.8376307,22.1243902 C31.8027875,21.1336237 34.287892,21.5512195 36.1711672,20.4171603 C37.6368467,19.5328397 38.4351916,17.891115 39.1557491,16.3230836 C39.9459059,14.6281359 40.3839721,13.1583624 42.0216028,12.2044425 C43.6592334,11.2505226 43.847561,9.67020906 43.0328397,8.04486063 Z"/>
      <path fill="#000" d="M37.0391115 226.779094C37.0391115 226.779094 39.0861498 229.387021 38.5539199 230.873171 38.0216899 232.359321 37.0391115 226.779094 37.0391115 226.779094zM64.7355401 233.305052C64.7355401 233.305052 65.1899826 229.808711 67.0118467 229.775958 68.8337108 229.743206 68.9237805 229.587631 70.3157666 230.123955 71.7077526 230.660279 73.0137631 231.491376 72.5961672 231.614199 72.1785714 231.737021 70.2011324 229.616289 68.1704704 230.70122 66.9031673 231.394738 65.7456204 232.272211 64.7355401 233.305052zM30.9307491 47.7942509L36.6624564 43.7779617C36.6624564 43.7779617 28.2777875 38.8241289 27.2788328 39.520122 26.279878 40.216115 25.5920732 46.4800523 25.5920732 46.4800523L30.9307491 47.7942509z" opacity=".1"/>
      <path fill="#E1E7EF" d="M30.9061847,47.536324 L36.637892,43.4422474 C36.637892,43.4422474 28.253223,38.4884146 27.2542683,39.1844077 C26.2553136,39.8804007 25.5675087,46.4882404 25.5675087,46.4882404 L30.9061847,47.536324 Z"/>
      <path fill="#F7DAC4" d="M30.9061847,47.536324 L36.637892,43.4422474 C36.637892,43.4422474 28.253223,38.4884146 27.2542683,39.1844077 C26.2553136,39.8804007 25.5675087,46.4882404 25.5675087,46.4882404 L30.9061847,47.536324 Z"/>
      <path fill="#67647E" d="M28.2040941,39.2171603 L28.0321429,39.1311847 C27.509679,38.8647664 26.8793942,38.9305213 26.4231707,39.2990418 L9.22804878,53.247561 C9.22804878,53.247561 5.49015679,58.4183798 6.01010453,67.3393728 L16.1511324,81.7054878 C16.1511324,81.7054878 17.3097561,76.8417247 18.6976481,77.7669861 C18.6976481,77.7669861 20.666899,102.679443 18.6976481,106.269948 C16.7283972,109.860453 15.860453,123.301307 15.860453,123.301307 L22.5215157,124.054617 C22.5215157,124.054617 23.2175087,114.957578 24.781446,111.71507 C26.3453833,108.472561 27.1969512,97.3243902 27.1969512,97.3243902 C27.1969512,97.3243902 28.6053136,81.128223 28.3719512,74.1764808 C28.1385889,67.2247387 26.1120209,52.2772648 26.1120209,52.2772648 C26.1120209,52.2772648 26.6810976,43.5159408 28.2040941,39.2171603 Z"/>
      <path fill="#F7DAC4" d="M45.3337108,45.2559233 L38.189547,42.6111498 C38.189547,42.6111498 47.2865854,32.6461672 48.4247387,38.1731707 L45.3337108,45.2559233 Z" opacity=".1"/>
      <path fill="#E1E7EF" d="M45.3337108,44.9079268 L38.189547,42.2631533 C38.189547,42.2631533 47.2865854,32.2981707 48.4247387,37.8251742 L45.3337108,44.9079268 Z"/>
      <path fill="#F7DAC4" d="M45.3337108,44.9079268 L38.189547,42.2631533 C38.189547,42.2631533 47.2865854,32.2981707 48.4247387,37.8251742 L45.3337108,44.9079268 Z"/>
      <path fill="#000" d="M45.1003484,36.4302375 C45.2261583,36.4100597 45.3549254,36.4386746 45.4603484,36.5102375 L45.1003484,36.4302375 Z" opacity=".1"/>
      <path fill="#67647E" d="M45.7881533,35.7371951 L64.7437282,39.8312718 C64.7437282,39.8312718 69.9595819,40.9898955 73.7261324,54.0827526 C77.4926829,67.1756098 68.5675958,83.2162021 68.5675958,83.2162021 L66.5983449,81.5417247 L67.5850174,119.776307 C67.5850174,119.776307 58.8359756,123.076132 56.0560976,120.185714 C53.2762195,117.295296 53.566899,103.719338 53.566899,103.719338 C53.566899,103.719338 50.9016551,78.6963415 49.2189895,74.5817944 C47.536324,70.4672474 48.4001742,40.8097561 48.4001742,40.8097561 C48.4001742,40.8097561 46.8526132,35.5079268 45.7881533,35.7371951 Z"/>
      <path fill="#000" d="M63.130662 60.1010453C62.864547 60.3466899 62.5533972 71.9165505 63.7120209 80.7229094 64.4203426 86.0857515 65.514942 91.390454 66.9872822 96.5956446L65.26777 61.3169861C65.26777 61.3169861 63.9412892 59.3477352 63.130662 60.1010453zM60.8134146 50.1360627C61.2760453 50.4267422 63.3067073 55.2331882 62.3773519 57.202439 61.4479965 59.1716899 60.8134146 50.1360627 60.8134146 50.1360627zM42.9222997 8.04486063C41.9917549 6.21239098 40.542213 4.69450134 38.7545296 3.68057491 40.0837298 4.63238462 41.1568586 5.89819835 41.8783101 7.3652439 42.6971254 9.00287456 42.4555749 10.6405052 40.8629791 11.537108 39.2703833 12.4337108 38.775 13.9608014 37.9971254 15.6557491 37.2724739 17.2074042 36.4741289 18.8491289 35.0084495 19.7498258 33.1251742 20.8879791 30.6400697 20.4662892 28.6749129 21.4570557 26.8989086 22.391573 25.863713 24.3066847 26.0547038 26.3044425 26.1806561 27.0568636 26.3682507 27.7976569 26.6155923 28.519338 27.061373 30.0853014 27.2629876 31.7106463 27.2133275 33.3380662 27.2170397 33.4442444 27.194542 33.5497025 27.1478223 33.645122 27.0331613 33.7976612 26.8513525 33.8847461 26.6606272 33.8784843 26.1692811 33.9161074 25.6766514 33.8243569 25.2317944 33.6123693 25.882867 34.2581454 26.7717747 34.6063009 27.6882404 34.5744774 27.8378824 34.596246 27.9890844 34.5466907 28.0968119 34.440571 28.2045394 34.3344514 28.2563628 34.1840116 28.2368467 34.0340592 28.2898819 32.4067582 28.0896101 30.7811037 27.6432056 29.215331 27.3935295 28.4929493 27.2058874 27.7505986 27.0823171 26.9963415 26.889627 24.9993087 27.9255385 23.0844909 29.7025261 22.1530488 31.6676829 21.1622822 34.1527875 21.579878 36.0360627 20.4458188 37.5017422 19.5614983 38.3000871 17.9197735 39.0206446 16.3517422 39.8108014 14.6567944 40.2488676 13.1870209 41.8864983 12.233101 43.5241289 11.2791812 43.741115 9.67020906 42.9222997 8.04486063z" opacity=".1"/>
    </g>
    <g fill-rule="nonzero" transform="translate(272.666 1.638)">
      <path fill="#585268" d="M27.4589721,12.1184669 C25.2727352,15.0989547 27.4835366,19.336324 25.1376307,22.2349303 C24.3638502,23.1929443 23.1724739,23.872561 22.3659408,24.8141986 C20.8716028,26.5582753 20.9289199,28.9287456 21.6617596,30.975784 C22.3945993,33.0228223 23.7087979,34.8897213 24.6422474,36.8876307 C25.0516551,37.7514808 25.3546167,38.721777 24.9452091,39.5815331 C24.6586237,40.1792683 24.0649826,40.6337108 23.6023519,41.1495645 C22.0957317,42.83223 22.0547909,45.1699477 22.8654181,47.1514808 C23.6760453,49.1330139 25.2236063,50.8361498 26.7506969,52.5147213 C27.3525261,53.1738676 28.1140244,53.9026132 29.1170732,53.8821429 C29.6445304,53.8421378 30.1544504,53.6749739 30.603223,53.3949477 C37.8189612,49.7092927 40.8568015,40.998051 37.4976481,33.6246516 C36.2284843,30.5827526 34.1118467,27.66777 34.0913763,24.4539199 C34.0913763,21.9033101 35.4014808,19.4673345 35.6348432,16.929007 C35.9173345,13.8420732 34.0913763,8.94146341 30.3657666,7.5945122 C30.6114111,9.5760453 28.5684669,10.5872822 27.4589721,12.1184669 Z"/>
      <path fill="#000" d="M27.4589721 12.1184669C25.2727352 15.0989547 27.4835366 19.336324 25.1376307 22.2349303 24.3638502 23.1929443 23.1724739 23.872561 22.3659408 24.8141986 20.8716028 26.5582753 20.9289199 28.9287456 21.6617596 30.975784 22.3945993 33.0228223 23.7087979 34.8897213 24.6422474 36.8876307 25.0516551 37.7514808 25.3546167 38.721777 24.9452091 39.5815331 24.6586237 40.1792683 24.0649826 40.6337108 23.6023519 41.1495645 22.0957317 42.83223 22.0547909 45.1699477 22.8654181 47.1514808 23.6760453 49.1330139 25.2236063 50.8361498 26.7506969 52.5147213 27.3525261 53.1738676 28.1140244 53.9026132 29.1170732 53.8821429 29.6445304 53.8421378 30.1544504 53.6749739 30.603223 53.3949477 37.8189612 49.7092927 40.8568015 40.998051 37.4976481 33.6246516 36.2284843 30.5827526 34.1118467 27.66777 34.0913763 24.4539199 34.0913763 21.9033101 35.4014808 19.4673345 35.6348432 16.929007 35.9173345 13.8420732 34.0913763 8.94146341 30.3657666 7.5945122 30.6114111 9.5760453 28.5684669 10.5872822 27.4589721 12.1184669zM51.7040941 120.533711C47.3275261 120.762979 43.208885 122.646254 39.3768293 124.775174 35.5447735 126.904094 31.8355401 129.315505 27.7128049 130.82622M48.9856272 130.84669C44.6562542 131.259569 40.6216997 133.222325 37.6245645 136.373693 36.5601045 137.499564 35.6430314 138.76054 34.5335366 139.841376 32.8352214 141.498899 30.7363274 142.68799 28.4415505 143.292683M49.88223 138.695035C46.39064 139.664079 43.2306218 141.569717 40.7442509 144.205662 40.0728223 144.930314 39.4628049 145.704094 38.7913763 146.428746 35.1681185 150.318118 30.0505226 152.381533 25.1089721 154.334408" opacity=".1"/>
      <path fill="#CC818C" d="M49.509669,29.854007 C49.6062275,33.3512672 49.9069719,36.8399024 50.4103659,40.3020906 C50.8197735,42.7585366 51.3929443,44.969338 52.2158537,45.9478223 C54.6231707,48.813676 40.486324,52.6416376 40.486324,52.6416376 L32.1385017,46.1729965 C32.1385017,46.1729965 38.7545296,40.0810105 35.6716899,34.1405052 C32.5888502,28.2 49.509669,29.854007 49.509669,29.854007 Z"/>
      <path fill="#000" d="M21.9565331,93.6233449 L55.3437282,93.6233449 C54.4143728,91.1013937 53.7961672,89.2631533 53.7961672,89.2631533 L22.2144599,91.064547 L21.9565331,93.6233449 Z" opacity=".1"/>
      <path fill="#124F69" d="M19.8071429,93.0215157 L55.5033972,93.0215157 C54.5003484,89.4310105 55.5033972,86.1107143 56.93223,83.5560105 C57.9337939,81.76569 59.1932357,80.1324161 60.670122,78.7086237 L60.9157666,78.4834495 L73.3781359,75.7240418 L74.0495645,75.5766551 C74.0495645,75.5766551 74.1519164,52.9159408 66.1275261,49.8044425 C58.1031359,46.6929443 53.2925958,42.4883275 53.2925958,42.4883275 L42.2672474,45.8945993 L34.1445993,41.8005226 C31.5366725,44.6049652 24.6176829,43.5036585 24.6176829,43.5036585 C13.2893728,44.8055749 13.2893728,53.3294425 13.2893728,53.3294425 C13.2893728,53.3294425 19.9054007,68.7682056 20.4089721,68.7682056 C20.9125436,68.7682056 19.8071429,93.0215157 19.8071429,93.0215157 Z"/>
      <path fill="#000" d="M32.1303136 78.6144599C32.1303136 78.6144599 24.8510453 77.0013937 22.3741289 74.1805749M68.8337108 70.1601916L60.3917247 77.0791812C60.4528966 77.6299657 60.5458506 78.1767543 60.670122 78.7168118L60.9157666 78.4916376 73.3781359 75.73223 68.8337108 70.1601916zM45.9764808 90.6141986C45.9764808 90.6141986 47.8229094 91.6540941 50.6519164 93.0215157L55.5033972 93.0215157C54.5003484 89.4310105 55.5033972 86.1107143 56.93223 83.5560105L48.3797038 80.7884146C51.2905923 83.4945993 45.9764808 90.6141986 45.9764808 90.6141986z" opacity=".1"/>
      <path fill="#124F69" d="M18.3005226,50.6109756 L13.2893728,53.3171603 L8.37648084,65.7508711 C8.37648084,65.7508711 3.26297909,79.3841463 3.76245645,82.995122 C3.76245645,82.995122 1.96106272,91.5189895 5.16672474,93.0215157 L13.5186411,96.8044425 C13.8211474,96.9379082 14.1749689,96.8655578 14.4008007,96.624056 C14.6266326,96.3825542 14.6751195,96.0246809 14.5216899,95.7317944 C13.3303136,93.4759582 12.0202091,89.9468641 14.1122822,88.0062718 L11.7049652,82.995122 L20.404878,68.7559233 L23.3116725,63.8430314 L18.3005226,50.6109756 Z"/>
      <path fill="#000" d="M29.4486934,75.7690767 C29.8826655,77.5377178 31.3483449,80.272561 36.1998258,81.2919861 L41.5221254,85.6521777 L47.1842334,88.2191638 L49.4932927,89.2631533 L50.471777,82.1926829 L48.2486934,80.9644599 L45.6571429,79.5479094 C45.6571429,79.5479094 39.8108014,68.9565331 30.5540941,73.4067944 C29.6667655,73.8272063 29.2029267,74.8184469 29.4486934,75.7690767 Z" opacity=".1"/>
      <path fill="#CC818C" d="M29.7516551,75.1672474 C30.1856272,76.9399826 31.6472125,79.6707317 36.4986934,80.6901568 L41.820993,85.0503484 L47.4871951,87.6173345 L49.7921603,88.661324 L50.7706446,81.5908537 L48.547561,80.3626307 L45.9764808,78.9583624 C45.9764808,78.9583624 40.1260453,68.3669861 30.869338,72.8377178 C29.9918782,73.2513174 29.525196,74.2239995 29.7516551,75.1672474 Z"/>
      <circle cx="40.183" cy="26.092" r="12.933" fill="#000" opacity=".1"/>
      <circle cx="40.183" cy="25.793" r="12.933" fill="#CC818C"/>
      <path fill="#000" d="M48.1954704,53.4277003 L44.3060976,45.8700348 C44.3060976,45.8700348 49.9968641,43.5691638 50.4103659,40.9039199 C50.8238676,38.238676 55.863676,44.0277003 54.7746516,45.9478223 C53.6856272,47.8679443 48.1954704,53.4277003 48.1954704,53.4277003 Z" opacity=".1"/>
      <path fill="#124F69" d="M48.1954704,52.8258711 L44.3060976,45.2682056 C44.3060976,45.2682056 49.9968641,42.9673345 50.4103659,40.3020906 C50.8238676,37.6368467 55.863676,43.4299652 54.7746516,45.345993 C53.6856272,47.2620209 48.1954704,52.8258711 48.1954704,52.8258711 Z"/>
      <path fill="#F6F8FB" d="M16.3640244,72.3505226 L37.8538328,101.242422 C37.8538328,101.242422 29.9317944,105.553484 19.0210801,97.8361498 L14.3087979,92.2190767 L0.855662021,69.5419861 L16.3640244,72.3505226 Z"/>
      <path fill="#CC818C" d="M12.1348432,88.0594948 L14.0918118,88.0062718 C14.0918118,88.0062718 26.0465157,76.4036585 28.9819686,82.2745645 C31.9174216,88.1454704 21.5348432,93.6315331 21.5348432,93.6315331 L18.3783101,95.334669 L14.2637631,96.562892 L11.6312718,93.0297038 L12.1348432,88.0594948 Z"/>
      <path fill="#000" d="M15.0211672,94.3275261 C15.2013066,94.9948606 15.3732578,95.7317944 15.0702962,96.35 C14.9977114,96.5153799 14.8724848,96.6521216 14.7141115,96.7389373 C14.5838198,96.789095 14.4437604,96.8087033 14.3047038,96.7962544 C13.2690775,96.7081025 12.3051844,96.2312752 11.6067073,95.4615854 C10.9206211,94.6945109 10.3333254,93.8445139 9.85853659,92.931446 C9.32630662,92.0020906 8.77360627,90.9744774 8.9619338,89.9182056 C9.17482578,88.76777 10.1901568,87.9694251 11.1850174,87.322561 C13.1665505,86.0124564 13.2320557,87.539547 13.6660279,89.2263066 C14.1,90.9130662 14.5667247,92.6243902 15.0211672,94.3275261 Z" opacity=".1"/>
      <path fill="#124F69" d="M14.7222997,94.3275261 C14.8983449,94.9948606 15.0743902,95.7317944 14.7714286,96.35 C14.6988438,96.5153799 14.5736172,96.6521216 14.4152439,96.7389373 C14.2848796,96.788814 14.1448855,96.8084131 14.0058362,96.7962544 C12.9696517,96.7101064 12.0050626,96.2329348 11.3078397,95.4615854 C10.6191179,94.6956902 10.0303304,93.845525 9.55557491,92.931446 C9.02334495,92.0020906 8.4706446,90.9744774 8.6630662,89.9182056 C8.87186411,88.76777 9.8912892,87.9694251 10.8820557,87.322561 C12.8676829,86.0124564 12.9290941,87.539547 13.3671603,89.2263066 C13.8052265,90.9130662 14.2637631,92.6243902 14.7222997,94.3275261 Z"/>
      <polygon fill="#000" points="20.409 68.756 21.408 67.065 20.536 70.205" opacity=".1"/>
      <path fill="#000" d="M47.5035714 87.6173345L49.8085366 88.661324 50.7870209 81.5908537 48.5639373 80.3626307C50.099216 82.1230836 48.7563589 85.3778746 47.5035714 87.6173345zM56.7561847 79.4087108C56.7561847 79.4087108 49.3131533 79.8631533 46.1525261 77.8324913" opacity=".1"/>
      <g fill="#000" opacity=".1" transform="translate(23.746 42.169)">
        <path d="M32.0852787 41.9888502C33.0869047 40.1973457 34.3463184 38.5627289 35.8231707 37.1373693 36.1773862 36.9152458 36.5452136 36.7156071 36.9244774 36.5396341L48.5270906 34.1568815 49.1985192 34.0094948C49.1985192 34.0094948 49.3008711 11.3487805 41.2805749 8.23728223 36.7816413 6.52657471 32.5643472 4.15158677 28.7690767 1.19137631L29.6493031.921167247C29.6493031.921167247 34.4598432 5.12987805 42.4842334 8.23728223 50.5086237 11.3446864 50.4021777 34.0094948 50.4021777 34.0094948L49.1985192 34.0094948 37.3256969 36.2817073C37.3256969 36.2817073 36.8139373 36.7770906 36.6583624 36.9203833 35.1693934 38.4117924 33.892384 40.100696 32.8631533 41.9397213 31.2920609 44.8566747 30.934585 48.2754973 31.8682927 51.4543554L30.6400697 51.4543554C29.6493031 47.8638502 30.6728223 44.543554 32.0852787 41.9888502zM.397125436 2.0069338C.589547038 1.9719338.773780488 1.9369338.974390244 1.9119338 1.78851039 2.05293766 2.60877071 2.13474845 3.43083624 2.1569338 2.41798389 2.19105346 1.40440442 2.14093763.397125436 2.0069338zM17.4162021 4.32743902L10.0714286.610017422C10.2171608.490484749 10.3539921.360495013 10.4808362.221080139L18.1449477 4.09817073 17.4162021 4.32743902z"/>
      </g>
      <path fill="url(#sg_navigatingcoercion_illustration-g)" d="M80.1251742,46.7666376 C74.4835366,46.6560976 69.5051394,42.672561 66.6843206,37.8047038 C65.9444964,36.646438 65.4795505,35.3342262 65.3250871,33.968554 C65.344618,33.6582503 65.3967637,33.3508651 65.480662,33.0514808 C65.6529632,32.5945905 65.7898368,32.1251141 65.8900697,31.6472125 C65.912436,31.4568102 65.912436,31.2644441 65.8900697,31.0740418 C65.8900697,31.0740418 65.8900697,31.0740418 65.8900697,31.0412892 C66.0251742,30.0054878 65.4151568,28.9942509 64.6618467,28.2859756 C63.9085366,27.5777003 62.9628049,27.0577526 62.1767422,26.3535714 C59.7530488,24.2246516 59.016115,20.8101916 58.9710801,17.5594948 L58.9710801,17.3875436 C58.9997387,15.9955575 59.1102787,14.5994774 59.0979965,13.2074913 C59.1171287,12.4172951 59.0829338,11.6267082 58.9956446,10.841115 C58.7622822,8.87186411 58.0130662,6.86576655 56.4655052,5.60888502 C52.4287456,2.33362369 45.6407666,5.74398955 41.4607143,2.6488676 C40.4453833,1.89146341 39.6224739,0.773780488 38.3901568,0.479006969 C37.4608014,0.253832753 36.4945993,0.556794425 35.5857143,0.859756098 C32.5069686,1.87508711 29.0720383,3.2097561 27.8683798,6.18205575 C27.1805749,7.88928571 27.3729965,9.8380662 26.7425087,11.5657666 C26.333101,12.7243902 25.5511324,13.7192509 24.9820557,14.8164634 C24.5148916,15.6424802 24.2879988,16.5826671 24.3270035,17.5308362 C24.276459,18.0216995 24.3452822,18.5175076 24.5276132,18.9760453 C24.7415294,19.5287487 25.0856101,20.0216969 25.530662,20.4130662 C25.3700546,20.7549463 25.1694037,21.0765374 24.9329268,21.3710801 C24.1468641,22.3331882 22.9391115,23.0087108 22.1202962,23.9667247 C20.6054878,25.7230836 20.6628049,28.1099303 21.4079268,30.1733449 C22.1530488,32.2367596 23.5,34.1159408 24.4293554,36.1261324 C24.8387631,36.9981707 25.1499129,37.972561 24.7364111,38.8405052 C24.4457317,39.4423345 23.8439024,39.9008711 23.3771777,40.4208188 C22.6942792,41.1863566 22.2652173,42.1445948 22.1489547,43.1638502 C12.9331882,45.2682056 12.925,52.6743902 12.925,52.6743902 L7.94660279,65.1940767 C7.94660279,65.1940767 7.14825784,67.3025261 6.21071429,70.0864983 L0.319337979,69.0302265 L4.41341463,75.8837108 C3.63963415,78.6758711 3.09102787,81.2633275 3.27116725,82.5652439 C3.27116725,82.5652439 1.44111498,91.1628049 4.69590592,92.665331 L11.8769164,95.8955575 C12.1880198,96.0863711 12.5223862,96.2363544 12.871777,96.3418118 L13.1624564,96.4728223 C13.3744697,96.5755865 13.6218718,96.5755865 13.833885,96.4728223 L13.8543554,96.4728223 L13.9321429,96.4728223 C14.0714462,96.4821722 14.2111211,96.4612209 14.3415505,96.4114111 C14.5014529,96.3253074 14.6281922,96.1884866 14.7018293,96.0224739 C14.6995388,96.0089231 14.6995388,95.9950839 14.7018293,95.9815331 L16.8512195,95.3592334 L18.6730836,97.5168118 C19.491899,98.0940767 20.3107143,98.593554 21.0844948,99.0439024 L18.263676,127.055575 C18.263676,127.055575 17.8092334,164.311672 16.4336237,172.802787 C15.9259582,175.947038 15.9218641,178.092334 16.1142857,179.549826 L16.0610627,179.639895 C16.4008711,182.03493 17.2892857,182.505749 17.2892857,182.505749 L17.2892857,182.472997 C17.3056788,182.485967 17.3235429,182.49696 17.3425087,182.505749 C17.7568857,181.418021 18.2494622,180.361718 18.8163763,179.345122 C18.8163763,179.545732 18.8163763,179.75453 18.8163763,179.959233 C18.7877178,183.119861 18.6894599,187.545557 18.3619338,190.423693 C17.8051394,195.336585 19.7866725,211.528659 19.7866725,211.528659 L20.4703833,226.267334 C20.5816009,228.769796 20.0008014,231.254484 18.7918118,233.448345 C17.1541812,236.391986 15.062108,240.535192 14.9106272,242.373432 C14.9025333,242.47289 14.9025333,242.572842 14.9106272,242.6723 L11.3979094,246.897387 C11.3979094,246.897387 10.0263937,249.018118 13.1256098,249.87378 C14.791899,250.336411 17.6659408,249.87378 19.975,249.329268 C22.0504055,248.851119 23.5217828,247.004685 23.5245645,244.874913 C24.1081927,242.844807 25.0939162,240.952719 26.4231707,239.311063 L27.0004355,242.705052 L30.8652439,243.663066 L31.3606272,234.361324 C31.5601692,233.83933 31.6507335,233.282011 31.6267422,232.723693 C32.3882404,226.107666 29.8335366,226.701307 29.8335366,226.701307 C29.9019141,226.759515 29.9457823,226.841402 29.9563589,226.930575 L29.8335366,226.705401 C28.2655052,223.610279 29.0147213,218.517247 29.0147213,218.517247 C29.0147213,218.517247 31.0617596,203.778571 31.7618467,199.885105 C32.2654181,197.133885 32.0566202,188.126916 31.8887631,183.09939 C31.8887631,182.890592 31.8887631,182.689983 31.8682927,182.489373 C37.8620209,182.411585 45.2067944,182.210976 50.3612369,181.711498 L50.3612369,182.317422 L49.4114111,217.137544 C49.346179,219.357631 48.8945323,221.549364 48.0767422,223.614373 C48.0767422,223.655314 48.0480836,223.69216 48.0317073,223.733101 C46.9017317,226.649542 46.2639324,229.733391 46.144338,232.858798 L45.7021777,243.912805 L45.7021777,244.219861 C44.9324913,244.514634 43.7165505,245.370296 43.6837979,247.851307 C43.6305749,251.486847 50.0378049,250.275 50.0378049,250.275 C56.4409408,250.275 56.4941638,243.609843 56.4941638,243.609843 C56.4941638,243.609843 56.6947735,237.497387 57.0018293,233.407404 C57.308885,229.317422 56.0356272,230.218118 56.0356272,230.218118 L55.9373693,241.853484 C55.9373693,241.882143 55.9373693,241.910801 55.9373693,241.943554 L55.9373693,231.745209 L56.0356272,230.267247 L56.0356272,230.226307 L56.0356272,229.911063 L56.8421603,217.911324 C56.8421603,217.911324 62.7417247,197.915854 63.6547038,194.079704 C64.305662,191.353049 64.035453,183.140331 63.822561,178.6 C63.822561,178.391202 63.822561,178.190592 63.7898084,177.998171 C65.6198606,177.834408 67.2370209,177.818031 67.883885,177.818031 L68.1827526,177.818031 C68.1827526,177.818031 67.8797909,145.704094 67.1141986,133.602003 C66.3486063,121.499913 65.1326655,110.425436 62.0825784,107.092857 C60.2402439,105.078571 57.6732578,98.859669 55.9414634,94.2538328 C59.5820769,95.8279426 63.3606753,97.061435 67.2288328,97.9385017 C76.8867596,99.9609756 75.5643728,91.5763066 75.5643728,91.5763066 L74.5858885,75.7199477 L74.6513937,75.7199477 C74.6155443,71.5664514 74.2596708,67.4218934 73.5869338,63.3230836 C73.0751742,60.1788328 72.2932056,56.9281359 71.0977352,54.316115 C72.1458188,53.9067073 73.1816202,53.4686411 74.1969512,53.0182927 C76.8212544,51.859669 79.7771777,50.2179443 80.1538328,47.3889373 L80.0269164,47.3889373 C80.0775339,47.1847218 80.1104088,46.976514 80.1251742,46.7666376 Z M20.2574913,69.6934669 C20.2779617,71.3310976 20.2165505,74.1723868 20.1182927,77.3125436 L17.0518293,73.2184669 L20.1264808,68.2318815 L20.2574913,69.6934669 Z M62.6229965,84.2028746 L57.5135889,82.5652439 C58.4195788,81.1516748 59.4781047,79.8419035 60.670122,78.6594948 L61.1122822,78.2500871 L60.9526132,78.2828397 L61.1982578,78.0576655 L61.3456446,78.0249129 L61.1122822,78.2500871 L61.3906794,78.19277 C61.698176,79.4762674 62.2931305,80.6731759 63.130662,81.6932056 C64.9648084,83.6952091 62.6270906,84.2028746 62.6270906,84.2028746 L62.6229965,84.2028746 Z"/>
      <polygon fill="#112E3C" points="31.586 231.586 30.988 242.918 27.176 241.964 26.374 237.252"/>
      <polygon fill="#134056" points="31.586 231.586 30.988 242.918 27.176 241.964 26.374 237.252" opacity=".1"/>
      <path fill="#CC818C" d="M45.5752613,244.42047 L51.3888502,245.624129 L55.6999129,241.816638 L55.6999129,231.086063 L55.7981707,229.620383 L55.7981707,229.575348 L55.7981707,229.264199 L56.6006098,217.338153 C56.6006098,217.338153 62.4182927,197.485976 63.3230836,193.67439 C63.9617596,190.9723 63.6956446,182.816899 63.4827526,178.309321 C63.396777,176.462892 63.3230836,175.226481 63.3230836,175.226481 L50.4881533,172.119077 L50.2179443,181.985801 L49.2804007,216.556185 C49.2156895,218.759765 48.7710964,220.935639 47.9662021,222.987979 L47.9211672,223.106707 C46.805077,226.002026 46.1756448,229.062035 46.0583624,232.162805 L45.6243902,243.155401 L45.6243902,243.458362 L45.5752613,244.42047 Z"/>
      <polygon fill="#000" points="55.798 229.274 55.798 229.644 55.798 229.644 55.798 229.264" opacity=".1"/>
      <path fill="#000" d="M45.5752613,244.42047 L51.3888502,245.624129 L55.6999129,241.816638 L55.6999129,240.903659 C55.671399,241.314047 55.4393234,241.682909 55.0817073,241.886237 L55.0202962,241.923084 C53.0178004,242.981618 50.7489514,243.429979 48.494338,243.212718 L46.2262195,243.020296 C46.0194858,243.039754 45.8167207,243.089411 45.6243902,243.167683 L45.6243902,243.470645 L45.5752613,244.42047 Z" opacity=".1"/>
      <path fill="#134056" d="M55.0202962,242.221951 L55.0817073,242.189199 C55.4666963,241.972802 55.705865,241.566371 55.708101,241.124739 L55.8022648,229.575348 C55.8022648,229.575348 57.0550523,228.678746 56.7520906,232.74007 C56.4491289,236.801394 56.2526132,242.868815 56.2526132,242.868815 C56.2526132,242.868815 56.2034843,249.484843 49.886324,249.484843 C49.886324,249.484843 43.5691638,250.688502 43.6182927,247.077526 C43.6674216,243.466551 46.2262195,243.319164 46.2262195,243.319164 L48.494338,243.515679 C50.7494406,243.733387 53.018798,243.283502 55.0202962,242.221951 Z"/>
      <path fill="#CC818C" d="M15.2954704,241.964024 C15.4428571,244.571951 23.1151568,243.065331 23.1151568,243.065331 L28.2777875,233.043031 C28.2777875,233.043031 32.5888502,229.730923 30.4312718,226.824129 C30.315834,226.665824 30.2105418,226.500365 30.1160279,226.328746 C30.1160279,226.328746 30.1160279,226.328746 30.0955575,226.304181 C30.0505226,226.230488 30.0095819,226.1527 29.9686411,226.070819 C28.4210801,223.000261 29.1825784,217.964547 29.1825784,217.964547 C29.1825784,217.964547 31.1845819,203.324129 31.8887631,199.463415 C32.3841463,196.73676 32.1794425,187.791202 32.0156794,182.78824 C31.9501742,180.708449 31.8887631,179.312369 31.8887631,179.312369 L19.1520906,175.902003 C19.1520906,175.902003 19.1520906,177.490505 19.1520906,179.701307 C19.1234321,182.841463 19.0251742,187.234408 18.7017422,190.092073 C18.1531359,194.951742 20.1060105,211.045557 20.1060105,211.045557 L20.7815331,225.69007 C20.8985825,228.171126 20.332112,230.636688 19.1439024,232.817857 C17.5472125,235.741028 15.4592334,239.859669 15.3159408,241.681533 C15.3016799,241.77501 15.2948351,241.869468 15.2954704,241.964024 Z"/>
      <path fill="#000" d="M15.2954704,241.964024 C15.4428571,244.571951 23.1151568,243.065331 23.1151568,243.065331 L28.2777875,233.043031 C28.2777875,233.043031 32.5888502,229.730923 30.4312718,226.824129 C30.315834,226.665824 30.2105418,226.500365 30.1160279,226.328746 C30.0464286,227.847648 28.3801394,231.651045 28.3801394,231.651045 C28.3801394,231.651045 24.1182056,240.179007 22.7630662,242.131882 C21.4079268,244.084756 15.5206446,241.767509 15.2995645,241.685627 C15.2909866,241.77818 15.2896178,241.871259 15.2954704,241.964024 Z" opacity=".1"/>
      <path fill="#134056" d="M29.9686411,226.058537 C29.9686411,226.058537 32.4905923,225.473084 31.7372822,232.039983 C31.7955713,233.558761 31.0343985,234.992016 29.7434669,235.794251 C27.9379791,236.92831 25.154007,239.36838 23.7456446,244.113415 C23.7480637,246.221627 22.2977271,248.053631 20.2452091,248.535017 C17.9689024,249.067247 15.1317073,249.533972 13.4899826,249.075436 C10.4317073,248.223868 11.7868467,246.119512 11.7868467,246.119512 L15.2954704,241.955836 C15.2954704,241.955836 21.4120209,244.363153 22.7630662,242.406185 C24.1141115,240.449216 28.3801394,231.929443 28.3801394,231.929443 C28.3801394,231.929443 30.7178571,226.611237 29.9686411,226.058537 Z"/>
      <path fill="#000" d="M50.4881533 173.335017L50.2179443 183.201742C53.6364983 182.870122 56.0847561 182.407491 56.5023519 181.756533 57.4071429 180.356359 60.6905923 179.766812 63.4827526 179.525261 63.396777 177.678833 63.3230836 176.442422 63.3230836 176.442422L50.4881533 173.335017zM19.1520906 180.900871C19.4788906 180.232358 19.9602723 179.651332 20.5563589 179.205923 21.9074042 178.456707 21.7600174 184.020557 21.7600174 184.020557 21.7600174 184.020557 26.2635017 184.061498 32.0156794 183.987805 31.9501742 181.908014 31.8887631 180.50784 31.8887631 180.50784L19.1520906 177.101568C19.1520906 177.101568 19.1766551 178.681882 19.1520906 180.900871z" opacity=".1"/>
      <path fill="#A47063" d="M17.6986934,182.219164 C17.6986934,182.219164 19.2053136,178.125087 20.564547,177.396341 C21.9237805,176.667596 21.7682056,182.206882 21.7682056,182.206882 C21.7682056,182.206882 54.8565331,182.509843 56.5105401,179.951045 C58.164547,177.392247 67.7897213,177.543728 67.7897213,177.543728 C67.7897213,177.543728 67.4908537,145.659059 66.7375436,133.630662 C65.9842334,121.602265 64.784669,110.617857 61.7755226,107.309843 C59.8308362,105.168641 57.0632404,98.2414634 55.3519164,93.6233449 C54.422561,91.1013937 53.8043554,89.2631533 53.8043554,89.2631533 L22.2226481,91.064547 L21.9647213,93.6233449 L18.6116725,127.162021 C18.6116725,127.162021 18.161324,164.160192 16.8061847,172.581707 C15.4510453,181.003223 17.6986934,182.219164 17.6986934,182.219164 Z"/>
      <g fill="#000" opacity=".1" transform="translate(16.376 89.25)">
        <path d="M37.5631533 90.7001742C39.200784 88.1454704 48.8423345 88.2928571 48.8423345 88.2928571 48.8423345 88.2928571 48.5434669 56.4081882 47.7901568 44.3797909 47.0368467 32.3513937 45.8372822 21.3669861 42.8281359 18.0589721 40.8752613 15.9095819 38.1158537 8.99059233 36.4045296 4.37247387 35.622561 2.25174216 35.0616725.618205575 34.9060976.151480836L37.3625436.01228223C37.3625436.01228223 37.9807491 1.85052265 38.9141986 4.37247387 40.6255226 8.99059233 43.3890244 15.91777 45.3337108 18.0589721 48.3428571 21.3669861 49.5465157 32.3472997 50.2957317 44.3797909 51.0449477 56.4122822 51.3520035 88.2928571 51.3520035 88.2928571 51.3520035 88.2928571 41.7268293 88.1454704 40.0687282 90.7001742 38.6562718 92.8823171 14.3087979 92.984669 7.2424216 92.9641986 16.3108014 92.9437282 36.2858014 92.6735192 37.5631533 90.7001742zM1.61716028 88.1454704C2.2271777 87.805662 2.53013937 88.7472997 2.68162021 89.889547 2.13491161 90.8804287 1.66013988 91.9093288 1.26097561 92.9682927 1.26097561 92.9682927.388937282 92.4974739.0327526132 90.102439.532229965 89.246777 1.08493031 88.4402439 1.61716028 88.1454704z"/>
      </g>
      <g transform="translate(24.155 1.228)">
        <path fill="#124F69" d="M44.969338,68.3137631 L49.88223,74.3320557 L50.8852787,90.6756098 C50.8852787,90.6756098 52.1871951,98.9947735 42.6643728,96.988676 C33.1415505,94.9825784 22.1202962,88.7841463 22.1202962,88.7841463 C22.1202962,88.7841463 27.4425958,81.664547 24.5276132,78.9583624 L38.1649826,83.371777 C38.1649826,83.371777 40.4699477,82.8682056 38.6644599,80.8662021 C36.8589721,78.8641986 36.5396341,75.2491289 36.5396341,75.2491289 L44.969338,68.3137631 Z"/>
        <path fill="#000" d="M47.1883275,85.5784843 L49.8945122,88.6858885 C48.4744428,88.2497351 47.4252655,87.0450065 47.1883275,85.5784843 Z" opacity=".1"/>
        <polygon fill="#000" points="42.574 85.075 46.787 90.487 44.683 90.991" opacity=".1"/>
        <path fill="#000" d="M0.581358885,18.6280488 C0.118728223,17.4939895 0.474912892,16.1716028 1.03170732,15.1030488 C1.58850174,14.0344948 2.35409408,13.0232578 2.7716899,11.8728223 C3.38989547,10.1614983 3.20156794,8.225 3.87709059,6.55052265 C5.0684669,3.58231707 8.45426829,2.25583624 11.4879791,1.228223 C12.3845819,0.929355401 13.3385017,0.630487805 14.2555749,0.851567944 C15.4837979,1.14224739 16.2821429,2.25583624 17.2851916,3.00505226 C21.4038328,6.07560976 28.1017422,2.69390244 32.0852787,5.9445993 C33.6082753,7.1728223 34.3493031,9.18301394 34.5785714,11.1358885 C34.8078397,13.0887631 34.5785714,15.0702962 34.554007,17.039547 C34.4885017,20.4867596 35.1353659,24.2574042 37.7146341,26.541899 C38.4925087,27.2297038 39.4095819,27.7455575 40.1710801,28.4579268 C40.9325784,29.1702962 41.5303136,30.1651568 41.3993031,31.1968641 C41.2985406,31.6706234 41.1616718,32.1359773 40.9898955,32.5888502 C40.4781359,34.3861498 41.2437282,36.2735192 42.1771777,37.9111498 C44.9611498,42.729878 49.8699477,46.7011324 55.4337979,46.8116725 C55.0612369,49.6202091 52.1585366,51.2496516 49.5587979,52.4000871 C46.2835366,53.8698606 42.7953833,55.3109756 39.1885017,55.1267422 C35.5816202,54.9425087 31.8191638,52.6334495 31.188676,49.0797909 C30.9716899,47.8515679 31.0003484,46.3736063 29.960453,45.7349303 C29.321777,45.345993 28.4947735,45.4442509 27.8069686,45.1535714 C26.812108,44.7441638 26.3208188,43.6264808 25.9932927,42.5988676 C25.3221718,40.4785315 24.962238,38.2720405 24.9247387,36.0483449 C24.8797038,33.4117596 25.2277003,30.5336237 23.7333624,28.3637631 C22.3495645,26.3535714 19.8931185,25.3341463 18.2964286,23.4877178 C16.822561,21.7763937 15.221777,19.7129791 12.8062718,19.3936411 C9.46550523,18.9228223 2.55470383,23.4631533 0.581358885,18.6280488 Z" opacity=".1"/>
        <path fill="#585268" d="M0.581358885,18.0262195 C0.118728223,16.8921603 0.474912892,15.5697735 1.03170732,14.5012195 C1.58850174,13.4326655 2.35409408,12.4214286 2.7716899,11.270993 C3.38989547,9.55966899 3.20156794,7.62317073 3.87709059,5.94869338 C5.0684669,2.97639373 8.45426829,1.64991289 11.4879791,0.626393728 C12.3845819,0.327526132 13.3385017,0.0286585366 14.2555749,0.249738676 C15.4837979,0.540418118 16.2821429,1.65400697 17.2851916,2.403223 C21.4038328,5.47378049 28.1017422,2.09207317 32.0852787,5.34277003 C33.6082753,6.57099303 34.3493031,8.58118467 34.5785714,10.5381533 C34.8078397,12.495122 34.5785714,14.4684669 34.554007,16.4377178 C34.4885017,19.8849303 35.1353659,23.6555749 37.7146341,25.9400697 C38.4925087,26.6278746 39.4095819,27.1437282 40.1710801,27.8560976 C40.9325784,28.5684669 41.5303136,29.5633275 41.3993031,30.5950348 C41.2985406,31.0687941 41.1616718,31.5341481 40.9898955,31.9870209 C40.4781359,33.7843206 41.2437282,35.6716899 42.1771777,37.3093206 C44.969338,42.1116725 49.8576655,46.0952091 55.4215157,46.2057491 C55.0489547,49.0142857 52.1462544,50.6437282 49.5465157,51.7982578 C46.2712544,53.2639373 42.783101,54.7050523 39.1762195,54.5208188 C35.569338,54.3365854 31.8068815,52.0275261 31.1763937,48.4738676 C30.9594077,47.2456446 30.9880662,45.7676829 29.9481707,45.129007 C29.3094948,44.7400697 28.4824913,44.8383275 27.7946864,44.5476481 C26.7998258,44.1382404 26.3085366,43.0205575 25.9810105,41.9929443 C25.3095512,39.8726889 24.9496093,37.6661482 24.9124564,35.4424216 C24.8674216,32.8058362 25.2154181,29.9277003 23.7210801,27.7578397 C22.3372822,25.7476481 19.8808362,24.728223 18.2841463,22.8817944 C16.8102787,21.1704704 15.2094948,19.1070557 12.7939895,18.7877178 C9.46550523,18.320993 2.55470383,22.8695122 0.581358885,18.0262195 Z"/>
        <path fill="#000" d="M9.76027875,51.2619338 L17.1746516,45.2436411 C17.1746516,45.2436411 12.0979965,42.4924216 11.4920732,40.1465157 C10.8861498,37.8006098 6.82482578,41.2601045 7.23832753,43.3644599 C7.65182927,45.4688153 9.76027875,51.2619338 9.76027875,51.2619338 Z" opacity=".1"/>
        <path fill="#124F69" d="M10.0509582,50.3571429 L17.465331,44.3429443 C17.465331,44.3429443 12.388676,41.5917247 11.8073171,39.2458188 C11.2259582,36.8999129 7.14006969,40.3594077 7.55357143,42.4637631 C7.96707317,44.5681185 10.0509582,50.3571429 10.0509582,50.3571429 Z"/>
        <circle cx="17.756" cy="49.379" r="1" fill="#000" opacity=".1"/>
        <circle cx="17.756" cy="52.654" r="1" fill="#000" opacity=".1"/>
        <circle cx="17.756" cy="55.925" r="1" fill="#000" opacity=".1"/>
        <g fill="#000" opacity=".1" transform="translate(.41 4.503)">
          <path d="M3.16472125 5.16263066C3.75017422 3.55365854 3.62325784 1.74817073 4.17186411.126916376 3.91771667.485368204 3.70742079.87297237 3.54547038 1.28144599 2.86585366 2.97229965 3.05827526 4.90879791 2.43597561 6.60374564L2.39503484 6.70200348C2.698353 6.21361982 2.95600522 5.69831538 3.16472125 5.16263066zM49.939547 45.6898955C46.6642857 47.1555749 43.1761324 48.5966899 39.5692509 48.4124564 35.9623693 48.228223 32.1999129 45.9191638 31.5694251 42.3695993 31.352439 41.1413763 31.3810976 39.6593206 30.3412021 39.0206446 29.7025261 38.6317073 28.8755226 38.7299652 28.1877178 38.4392857 27.1928571 38.029878 26.7015679 36.9121951 26.3740418 35.8845819 25.7025826 33.7643265 25.3426406 31.5577858 25.3054878 29.3340592 25.260453 26.7015679 25.6125436 23.8234321 24.1182056 21.6494774 22.7303136 19.6392857 20.2738676 18.6239547 18.6771777 16.7734321 17.2033101 15.0662021 15.6025261 12.9986934 13.1870209 12.6793554 9.87491289 12.229007 2.95182927 16.7734321.994860627 11.9342334.680585365 11.0198445.725960023 10.0201383 1.121777 9.13797909.978484321 9.37952962.839285714 9.62108014.712369338 9.86672474.155574913 10.9557491-.196515679 12.2617596.266114983 13.3958188 2.23536585 18.2268293 9.14616725 13.6864983 12.4582753 14.1409408 14.8737805 14.4684669 16.4745645 16.5359756 17.9484321 18.2350174 19.545122 20.0855401 22.0015679 21.1008711 23.3853659 23.1151568 24.8837979 25.2850174 24.5317073 28.1631533 24.5767422 30.7956446 24.613895 33.0193712 24.9738369 35.2259119 25.6452962 37.3461672 25.9728223 38.3778746 26.4641115 39.4832753 27.4589721 39.9008711 28.146777 40.1915505 28.9737805 40.0973868 29.6124564 40.48223 30.6687282 41.1209059 30.6400697 42.6152439 30.8406794 43.8311847 31.4793554 47.3807491 35.2377178 49.6898084 38.8405052 49.8740418 42.4432927 50.0582753 45.9150697 48.6212544 49.2108014 47.1514808 51.5853659 46.0952091 54.2301394 44.6336237 54.9425087 42.2385889 53.8043554 43.794338 51.7900697 44.8669861 49.939547 45.6898955z"/>
        </g>
      </g>
    </g>
    <path fill="url(#sg_navigatingcoercion_illustration-h)" fill-rule="nonzero" d="M411.335976,76.1662021 C402.668815,71.1796167 399.393554,69.9513937 399.377178,69.9513937 C398.252964,69.0989712 397.503266,68.1509471 397.014895,67.0650697 C397.060446,65.6384495 399.523287,67.0628819 401.754863,66.1221414 C403.885331,65.224024 405.783052,61.9534929 406.070993,61.3905871 C406.66054,60.2380609 406.284895,52.8659674 406.541812,52.1708188 C406.633821,51.7973057 406.675133,51.4131069 406.664634,51.0285714 C406.64007,49.2312718 406.603223,47.8966028 406.554094,46.5660279 C406.513153,45.4033101 406.214286,43.9376307 405.051568,43.7001742 C404.445645,43.5773519 403.643206,43.794338 403.323868,43.2907666 C403.215446,43.0770317 403.187824,42.8313414 403.24608,42.5988676 C403.471311,41.6924578 403.615185,40.7757756 403.675958,39.8517422 C403.701292,39.3813737 403.637392,38.9104595 403.487631,38.4638502 C402.816202,36.5355401 400.494861,35.7412892 398.443728,35.3769164 C396.392596,35.0125436 394.091725,34.7013937 392.806185,33.0965157 C392.462025,32.5610377 392.087486,32.0457053 391.684408,31.5530488 C391.091171,31.0261178 390.367182,30.6683653 389.58824,30.5172474 C387.042332,29.890049 384.360412,30.1232594 381.960976,31.1804878 C380.970209,31.6226481 379.975348,32.2203833 378.886324,32.154878 C377.7973,32.0893728 376.790157,31.3033101 375.676568,31.1149826 C373.875174,30.8079268 372.151568,32.1303136 371.263153,33.6983449 C370.737053,34.6281085 370.455333,35.6761053 370.444338,36.744338 C370.418464,38.0738869 370.838018,39.1887852 371.615244,40.0359756 C372.393118,40.8547909 373.547648,41.3952091 373.87108,42.4555749 C374.002091,42.885453 373.969338,43.3521777 374.088066,43.7902439 C372.221326,46.4054872 371.212415,49.337092 371.214024,52.3550523 C371.255499,58.3699392 375.18225,63.6674106 380.925174,65.4560976 C380.925174,67.5031359 380.454355,69.2103659 379.041899,70.4508711 L366.763763,75.3555749 C366.763763,75.3555749 359.361672,74.4753484 356.692334,85.291899 C356.265895,87.0873494 356.111328,88.9366323 356.233798,90.7779617 C356.332056,92.4155923 353.596928,98.0477461 353.596928,104.630434 C353.596928,110.726134 351.844948,118.58493 358.051568,119.935976 C363.910192,121.213328 366.202875,120.681098 366.444425,120.619686 C366.417223,121.394943 367.488733,123.555432 367.488733,126.514133 C367.488733,129.041494 364.481744,146.242471 362.039199,148.172822 C361.105749,148.91385 361.2777,149.401045 362.039199,149.749042 C361.916376,151.79608 361.396429,157.937195 359.152875,161.425348 C356.528571,165.478484 356.802875,188.855662 356.802875,188.855662 L355.013763,202.636324 C355.013763,202.636324 356.11507,211.147909 355.013763,212.634059 C354.027091,213.956446 352.716986,245.44399 352.442683,252.272909 C351.226716,252.344566 350.232745,252.958128 349.675087,253.91054 C348.225784,256.264634 343.149129,260.616638 343.149129,260.616638 C342.047822,262.180575 337.974216,263.679007 335.820732,264.383188 C335.536628,264.476109 335.262365,264.596784 335.001916,264.743467 C334.195622,265.182469 333.548132,265.864339 333.151394,266.692247 C332.86439,267.188179 332.793356,267.780123 332.954878,268.329878 C333.503484,269.676829 344.954617,270.626655 347.853223,269.271516 C350.12953,268.21115 359.152875,266.81507 362.898955,266.266463 C364.298338,266.090434 365.400452,264.98832 365.576481,263.588937 C365.648672,263.114484 365.524498,262.631094 365.232578,262.250174 C364.516115,261.36176 364.151742,258.933972 364.004355,257.337282 C364.308644,257.213431 364.592867,257.045105 364.847735,256.837805 C364.53455,251.929802 365.231248,247.009715 366.894774,242.38162 C369.654181,235.085976 370.481185,221.575523 369.79338,212.793728 C369.79338,212.793728 378.206707,176.585714 384.830923,173.208101 C384.933275,173.339111 388.147125,177.461847 388.556533,190.231272 C388.965941,203.201307 393.657753,211.712892 393.657753,211.712892 C393.657753,211.712892 391.58615,233.73493 393.657753,241.976307 L390.951568,254.975 C390.750958,254.807143 390.624042,254.676132 390.624042,254.676132 C390.624042,254.676132 390.705923,255.036411 390.816463,255.613676 C391.18493,257.554268 391.639373,260.375087 391.451045,262.057753 C391.344599,263.003484 391.078484,264.301307 390.898345,265.574564 C390.61176,267.576568 390.533972,269.51716 391.58615,269.942944 C393.31385,270.638937 403.458972,271.580575 405.178484,269.353397 C405.967801,268.427496 406.161553,267.133171 405.677962,266.016725 C405.554076,265.709937 405.385786,265.423017 405.178484,265.165157 C405.178484,265.165157 402.484582,260.764024 403.24608,257.660714 C403.388077,257.047862 403.271069,256.403579 402.922648,255.879791 C403.041376,254.356794 403.655488,247.306794 405.24399,241.321254 C406.97169,234.819861 410.611324,220.564286 407.933798,211.192944 C407.832811,210.824477 407.718177,210.464199 407.589895,210.112108 C406.044543,204.995066 405.528304,199.622558 406.070993,194.304878 C405.077037,189.765092 405.077037,185.064002 406.070993,180.524216 C407.729094,172.958362 408.887718,165.527613 408.887718,165.527613 C408.887718,165.527613 409.800697,155.529878 409.002352,149.401045 C409.002352,149.313705 409.129268,149.144483 409.383101,148.89338 C409.383101,148.89338 405.30632,130.033562 405.178484,129.041494 C405.059259,128.116247 405.615793,127.235749 405.481446,126.216289 C406.244482,126.089858 406.996118,125.902291 407.729094,125.655401 C415.17622,123.088415 417.522125,99.8627178 417.522125,99.8627178 L417.522125,92.4933798 C417.522125,92.4933798 420.0277,81.1650697 411.335976,76.1662021 Z M355.836672,255.585017 C355.607404,255.470383 355.4723,255.392596 355.4723,255.392596 L355.836672,255.585017 Z"/>
    <path fill="#464D55" fill-rule="nonzero" d="M406.840679,210.259495 C410.070906,219.548955 406.300261,234.627439 404.547997,241.374477 C402.795732,248.121516 402.259408,256.186847 402.259408,256.186847 C395.393641,257.263589 390.41115,255.916638 390.41115,255.916638 L393.240157,242.05 C391.217683,233.837282 393.240157,211.888937 393.240157,211.888937 C393.240157,211.888937 388.662979,203.40601 388.257666,190.48101 C387.848258,177.760714 384.724477,173.646167 384.62622,173.519251 C378.165767,176.884582 369.953049,212.969774 369.953049,212.969774 C370.624477,221.718815 369.81385,235.184233 367.124042,242.447125 C365.490208,247.063697 364.803743,251.962246 365.105662,256.850087 C364.164024,257.668902 362.85392,257.783537 361.420993,257.554268 C357.576655,256.931969 352.966725,253.619861 352.966725,253.619861 C352.966725,253.619861 354.444686,214.316725 355.525523,212.826481 C356.606359,211.336237 355.525523,202.861498 355.525523,202.861498 L357.273693,189.129965 C357.273693,189.129965 357.003484,165.834669 359.562282,161.797909 C361.773084,158.309756 362.280749,152.176829 362.379007,150.567857 C362.379007,150.314024 362.379007,150.158449 362.379007,150.158449 L366.276568,145.491202 C366.276568,145.491202 403.974826,142.662195 406.807927,145.491202 C407.499826,146.183101 407.929704,147.763415 408.183537,149.749042 C408.961411,155.857404 408.068902,165.818293 408.068902,165.818293 C408.068902,165.818293 406.938937,173.224477 405.321777,180.761672 C404.352409,185.288906 404.352409,189.970066 405.321777,194.4973 C404.801996,199.80015 405.317862,205.153477 406.840679,210.259495 Z"/>
    <path fill="#A27772" fill-rule="nonzero" d="M404.482491,269.29608 C402.799826,271.519164 392.904443,270.577526 391.217683,269.885627 C390.19007,269.47622 390.267857,267.523345 390.546254,265.52953 C390.7223,264.26446 390.980226,262.970732 391.086672,262.029094 C391.352787,259.605401 390.267857,254.688415 390.267857,254.688415 C390.267857,254.688415 392.486847,257.046603 393.023171,254.688415 C393.260627,253.656707 394.087631,253.128571 394.947387,252.862456 C396.101159,252.513287 397.341983,252.590294 398.443728,253.079443 C400.191899,253.840941 403.106882,255.458101 402.586934,257.644338 C401.845906,260.735366 404.470209,265.124216 404.470209,265.124216 C404.673609,265.380301 404.83907,265.664343 404.961498,265.967596 C405.437456,267.079286 405.252612,268.363715 404.482491,269.29608 Z"/>
    <path fill="#000" fill-rule="nonzero" d="M404.482491 269.29608C402.799826 271.519164 392.904443 270.577526 391.217683 269.885627 390.19007 269.47622 390.267857 267.523345 390.546254 265.52953 391.610714 266.029007 393.412108 266.442509 396.429443 266.164111 397.132875 266.097243 397.839859 266.075363 398.54608 266.098606 400.689213 266.195053 402.836358 266.151289 404.97378 265.967596 405.446367 267.081534 405.256752 268.366179 404.482491 269.29608zM369.948955 212.953397C370.620383 221.702439 369.809756 235.167857 367.119948 242.430749 365.486114 247.047321 364.799649 251.94587 365.101568 256.833711 364.15993 257.652526 362.849826 257.76716 361.416899 257.537892 362.235714 251.859408 365.691115 227.393206 367.90601 208.060976 370.432056 186.047125 382.235279 170.903136 382.235279 170.903136L384.589373 173.494686C378.161672 176.868206 369.948955 212.953397 369.948955 212.953397z" opacity=".1"/>
    <path fill="#FBBEBE" fill-rule="nonzero" d="M400.441638,71.4457317 L398.804007,79.5233449 L390.750958,93.0542683 L380.822822,88.8128049 C380.822822,88.8128049 367.312369,74.6759582 375.807578,72.6575784 C376.822955,72.4390676 377.78203,72.0125023 378.624303,71.4047909 C380.290592,70.1479094 380.814634,68.3219512 380.822822,66.5328397 C380.759785,64.530998 380.294756,62.5622836 379.455401,60.7438153 L396.822474,55.2905052 C396.113263,57.572706 395.70047,59.9366326 395.594251,62.3241289 C395.459146,67.0568815 397.231882,69.3864111 398.660714,70.5122822 C399.188194,70.9359952 399.793073,71.253035 400.441638,71.4457317 Z"/>
    <path fill="#000" fill-rule="nonzero" d="M396.806098,55.2905052 C396.096886,57.572706 395.684093,59.9366326 395.577875,62.3241289 C395.261127,62.7016094 394.923521,63.0610845 394.566638,63.4008711 C390.91328,66.8898285 385.640001,68.0925889 380.835105,66.5328397 C380.768208,64.5301484 380.298993,62.5613961 379.455401,60.7438153 L396.806098,55.2905052 Z" opacity=".1"/>
    <path fill="#FBBEBE" fill-rule="nonzero" d="M398.799913,53.0674216 C398.801569,58.6233365 395.456041,63.6331009 390.32352,65.7604051 C385.190999,67.8877092 379.28239,66.713558 375.353179,62.7855184 C371.423968,58.8574787 370.248056,52.9492195 372.37383,47.8160648 C374.499604,42.68291 379.508371,39.3358887 385.064286,39.3358885 C388.711832,39.3183728 392.215106,40.7593265 394.794725,43.3381762 C397.374343,45.9170259 398.816341,49.4198707 398.799913,53.0674216 Z"/>
    <path fill="#000" fill-rule="nonzero" d="M400.441638 71.4457317L398.804007 79.5233449 390.750958 93.0542683 380.822822 88.8128049C380.822822 88.8128049 367.312369 74.6759582 375.807578 72.6575784 376.822955 72.4390676 377.78203 72.0125023 378.624303 71.4047909 377.093118 75.6135017 383.414373 84.3707317 383.414373 84.3707317 384.151307 85.455662 385.838066 84.7801394 385.838066 84.7801394 389.911672 84.1619338 397.407927 72.4487805 398.632056 70.5 399.167053 70.9313823 399.782029 71.2527833 400.441638 71.4457317zM408.216289 149.75723C405.825348 150.301742 392.597387 153.229007 387.582143 152.496167 382.063328 151.677352 371.332753 151.15331 371.332753 151.15331 371.332753 151.15331 364.499739 151.521777 362.395383 150.559669 362.395383 150.305836 362.395383 150.150261 362.395383 150.150261L366.292944 145.483014C366.292944 145.483014 403.991202 142.654007 406.824303 145.483014 407.532578 146.191289 407.962456 147.771603 408.216289 149.75723z" opacity=".1"/>
    <path fill="#708A8E" fill-rule="nonzero" d="M383.410279,84.7760453 C383.410279,84.7760453 376.307056,74.9502613 378.984582,71.1018293 L366.984843,76.0147213 C366.984843,76.0147213 359.762892,75.1385889 357.159059,85.9182927 C356.742923,87.7097784 356.592563,89.552732 356.712805,91.3879791 C356.811063,93.0256098 355.221985,97.4895045 354.727523,101.828339 C353.783615,110.110995 352.446777,119.100784 358.50601,120.455923 C364.565244,121.811063 366.714634,121.127352 366.714634,121.127352 C366.714634,121.127352 368.667354,124.063379 368.469276,127.252517 C368.384112,128.623685 367.232625,131.044252 366.984843,132.632262 C365.89105,139.642285 364.397009,146.981089 362.407666,148.594512 C358.919512,151.423519 371.332753,150.747997 371.332753,150.747997 C371.332753,150.747997 382.063328,151.288415 387.586237,152.094948 C393.109146,152.901481 408.58885,149.265941 408.58885,149.265941 C408.58885,149.265941 407.926862,143.188867 406.522629,137.078045 C405.785474,133.870153 404.086316,130.582478 403.807264,128.312011 C402.996637,121.716454 402.791638,111.657753 402.791638,111.657753 L416.523171,93.0542683 C416.523171,93.0542683 418.946864,81.8119338 410.463937,76.8294425 C401.98101,71.8469512 398.791725,70.6269164 398.791725,70.6269164 C398.791725,70.6269164 390.267857,84.5058362 385.825784,85.1772648 C385.833972,85.1772648 384.147213,85.8568815 383.410279,84.7760453 Z"/>
    <path fill="#000" fill-rule="nonzero" d="M367.656272,88.6777003 C367.656272,88.6777003 367.525261,93.1238676 368.331794,94.8720383 C369.138328,96.6202091 372.102439,106.335453 372.102439,106.335453 L365.367683,106.335453 C365.367683,106.335453 369.003223,102.429704 368.737108,100.542334 C368.470993,98.6549652 367.656272,88.6777003 367.656272,88.6777003 Z" opacity=".1"/>
    <path fill="#FBBEBE" fill-rule="nonzero" d="M387.586237,122.204094 C387.586237,122.204094 372.716551,118.568554 371.332753,115.473432 C369.948955,112.37831 366.129181,105.447038 366.129181,105.447038 L367.697213,103.334495 L374.927352,109.008885 C374.927352,109.008885 383.524913,115.874652 387.586237,116.550174 C391.647561,117.225697 387.586237,122.204094 387.586237,122.204094 Z"/>
    <path fill="#000" fill-rule="nonzero" d="M387.586237,122.204094 C387.586237,122.204094 372.716551,118.568554 371.332753,115.473432 C369.948955,112.37831 366.129181,105.447038 366.129181,105.447038 L367.697213,103.334495 L374.927352,109.008885 C374.927352,109.008885 383.524913,115.874652 387.586237,116.550174 C391.647561,117.225697 387.586237,122.204094 387.586237,122.204094 Z" opacity=".05"/>
    <path fill="#FBBEBE" fill-rule="nonzero" d="M400.441638,104.701916 L400.441638,112.767247 L399.147909,112.767247 C392.74128,112.765976 386.440041,114.397648 380.839199,117.508188 L378.407317,118.855139 L377.756359,119.219512 L373.580401,109.803136 L377.48615,106.3027 L377.68676,106.3027 C378.640679,106.396864 382.771603,106.740767 384.523868,106.15122 C386.186063,105.586237 388.249477,103.797125 393.145993,105.045819 C395.557404,105.664024 397.620819,108.366115 399.958537,107.522735 L400.441638,104.701916 Z"/>
    <path fill="#000" fill-rule="nonzero" d="M413.436237,90.0123693 L416.126045,93.0419861 L416.126045,100.382666 C416.126045,100.382666 413.837456,123.538763 406.57047,126.097561 C399.303484,128.656359 386.321167,124.615505 386.321167,124.615505 C386.321167,124.615505 382.968118,115.731359 384.53615,115.199129 C386.104181,114.666899 398.394599,111.416202 398.394599,111.416202 C398.394599,111.416202 398.222648,97.8320557 400.912456,93.7912021 C400.912456,93.7912021 399.164286,81.1364111 405.223519,80.8662021 C411.282753,80.595993 413.436237,90.0123693 413.436237,90.0123693 Z" opacity=".1"/>
    <path fill="#708A8E" fill-rule="nonzero" d="M413.845645,90.0123693 L416.539547,93.0419861 L416.539547,100.382666 C416.539547,100.382666 414.250958,123.538763 406.979878,126.097561 C399.708798,128.656359 386.730575,124.615505 386.730575,124.615505 C386.730575,124.615505 383.377526,115.731359 384.949652,115.199129 C386.521777,114.666899 398.808101,111.416202 398.808101,111.416202 C398.808101,111.416202 398.632056,97.8320557 401.325958,93.7912021 C401.325958,93.7912021 399.573693,81.1364111 405.632927,80.8662021 C411.69216,80.595993 413.845645,90.0123693 413.845645,90.0123693 Z"/>
    <path fill="#000" fill-rule="nonzero" d="M395.033362,58.8973868 C395.149383,58.0106852 395.043887,57.1090518 394.726307,56.2730836 C394.345557,55.4542683 393.457143,54.8360627 392.589199,55.0448606 C391.438763,55.3150697 390.951568,56.8135017 389.813415,57.1737805 C388.859495,57.4767422 387.819599,56.8012195 387.356969,55.9128049 C386.894338,55.0243902 386.890244,53.9804007 386.890244,52.981446 C386.890244,51.859669 386.890244,50.7337979 386.890244,49.6079268 C386.890244,48.3797038 386.849303,47.0614111 386.095993,46.0993031 C385.158449,44.9038328 382.951742,44.3797909 381.477875,44.4289199 C380.497282,44.4399607 379.55648,44.8183266 378.841289,45.4892857 C378.055226,46.1607143 377.142247,46.6520035 376.069599,46.4759582 C375.156663,46.3396596 374.404152,45.6891838 374.137195,44.8055749 L374.137195,44.7646341 C377.251849,40.6236481 382.432284,38.58856 387.53266,39.5023447 C392.633035,40.4161294 396.784711,44.1231611 398.267978,49.0879119 C399.751246,54.0526628 398.313491,59.4295909 394.550261,62.9914634 C394.787208,61.6368029 394.948492,60.2699923 395.033362,58.8973868 Z" opacity=".1"/>
    <path fill="#7C5C5C" fill-rule="nonzero" d="M376.069599,46.0788328 C375.156216,45.9386133 374.403712,45.2879276 374.133101,44.4043554 C374.022561,43.9703833 374.05122,43.5077526 373.924303,43.0778746 C373.609059,42.0175087 372.479094,41.4689024 371.72169,40.6623693 C370.206882,39.0533972 370.305139,36.4086237 371.377787,34.4721254 C372.245732,32.9122822 373.924303,31.6062718 375.684756,31.9010453 C376.77378,32.0893728 377.731794,32.8631533 378.820819,32.9368467 C379.909843,33.0105401 380.867857,32.4087108 381.821777,31.9665505 C384.160739,30.904632 386.791558,30.6707172 389.281185,31.3033101 C390.044764,31.4567626 390.752308,31.81478 391.328223,32.3391115 C391.719286,32.8313334 392.084164,33.3438022 392.421341,33.8743902 C393.674129,35.4710801 395.921777,35.786324 397.92378,36.1466028 C399.925784,36.5068815 402.189808,37.3011324 402.836672,39.2253484 C403.274739,40.5027003 402.836672,41.8864983 402.599216,43.2129791 C402.520506,43.4837267 402.539342,43.7735142 402.652439,44.0317944 C402.967683,44.5476481 403.749652,44.330662 404.339199,44.4412021 C405.473258,44.6827526 405.763937,46.144338 405.808972,47.3070557 C405.855372,48.6335366 407.503919,55.4392567 407.528484,56.7684669 C407.561109,57.2629181 407.409103,63.2599777 404.339199,66.7825784 C401.269295,70.3051791 394.476568,67.7610627 394.173606,66.7825784 C393.870645,65.8040941 394.112195,64.7355401 394.320993,63.7488676 C394.683456,62.0144447 394.921519,60.2563381 395.033362,58.4879791 C395.149382,57.6026236 395.043877,56.7023142 394.726307,55.86777 C394.345557,55.0489547 393.457143,54.4307491 392.589199,54.639547 C391.434669,54.9097561 390.951568,56.4081882 389.813415,56.7684669 C388.859495,57.0714286 387.819599,56.3959059 387.356969,55.5074913 C386.894338,54.6190767 386.890244,53.5791812 386.890244,52.5802265 L386.890244,49.2026132 C386.890244,47.9743902 386.849303,46.6560976 386.095993,45.6939895 C385.158449,44.4985192 382.951742,43.9744774 381.477875,44.0236063 C380.4987,44.0356676 379.559536,44.413962 378.845383,45.0839721 C378.055226,45.7594948 377.142247,46.254878 376.069599,46.0788328 Z"/>
    <path fill="#000" fill-rule="nonzero" d="M379.168815 88.3419861L383.385714 105.664024C383.385714 105.664024 386.710105 105.643554 379.168815 88.3419861zM393.575871 85.4474739C393.575871 85.4474739 388.057056 94.4871951 390.21054 103.838066L391.238153 103.91176C391.238153 103.91176 389.404007 99.5843206 393.575871 85.4474739zM397.05993 136.61115C397.05993 136.61115 403.839721 134.367596 404.33101 139.571167 404.347387 139.571167 403.070035 136.005226 397.05993 136.61115zM377.48615 106.720296C377.48615 106.720296 376.139199 116.136672 378.562892 119.915505 378.562892 119.915505 373.65 121.933885 366.714634 121.532666L365.895819 106.720296 377.48615 106.720296z" opacity=".1"/>
    <path fill="#000" fill-rule="nonzero" d="M378.407317,118.855139 L377.756359,119.219512 L373.580401,109.803136 L377.48615,106.3027 L377.68676,106.3027 C377.625348,106.769425 376.536324,114.863415 378.407317,118.855139 Z" opacity=".1"/>
    <path fill="#708A8E" fill-rule="nonzero" d="M377.48615,106.319077 C377.48615,106.319077 376.139199,115.735453 378.562892,119.510192 C378.562892,119.510192 373.65,121.532666 366.714634,121.127352 L362.002352,106.319077 L377.48615,106.319077 Z"/>
    <path fill="#A27772" fill-rule="nonzero" d="M365.842596,263.564373 C365.681708,264.946815 364.605402,266.045017 363.226481,266.233711 C359.57047,266.778223 350.764111,268.170209 348.541028,269.230575 C345.712021,270.577526 334.539286,269.639983 333.998868,268.288937 C333.84136,267.739298 333.910665,267.149465 334.191289,266.651307 C334.574625,265.831046 335.206262,265.152144 335.996777,264.710714 C336.257879,264.565342 336.532013,264.444723 336.815592,264.350436 C338.919948,263.650348 342.895296,262.160105 343.967944,260.596167 C343.967944,260.596167 348.925871,256.26054 350.338328,253.918728 C350.877359,252.982722 351.848059,252.377571 352.925784,252.305662 C354.104878,252.252439 355.419077,252.84608 355.959495,255.429443 C355.959495,255.429443 362.415854,259.114111 364.147648,255.883885 C364.147648,255.883885 364.417857,260.845906 365.490505,262.205139 C365.786882,262.591946 365.913907,263.082322 365.842596,263.564373 Z"/>
    <path fill="#000" fill-rule="nonzero" d="M365.842596,263.564373 C365.681708,264.946815 364.605402,266.045017 363.226481,266.233711 C359.57047,266.778223 350.764111,268.170209 348.541028,269.230575 C345.712021,270.577526 334.539286,269.639983 333.998868,268.288937 C333.84136,267.739298 333.910665,267.149465 334.191289,266.651307 C334.574625,265.831046 335.206262,265.152144 335.996777,264.710714 C337.818641,265.938937 341.863589,267.101655 350.760017,265.713763 C359.247038,264.387282 363.451655,263.08946 365.498693,262.205139 C365.792179,262.593185 365.91622,263.083444 365.842596,263.564373 Z" opacity=".1"/>
    <g fill="#000" fill-rule="nonzero" opacity=".1" transform="translate(370.514 37.256)">
      <path d="M32.0681922 6.14520906L32.0681922 6.07970383C32.2778238 5.07256098 32.5945013 4.03266551 32.5142169 3.02142857 32.4207566 3.84788895 32.2717984 4.66826475 32.0681922 5.47787456 32.0132344 5.69745936 32.0132344 5.92562426 32.0681922 6.14520906zM24.2082753 18.746777C24.4225095 19.2319584 24.5353572 19.7557946 24.5398955 20.2861498 24.6004366 19.5548929 24.4867902 18.8196992 24.2082753 18.1408537 23.8316202 17.3220383 22.9432056 16.7038328 22.0752613 16.9126307 20.9207317 17.1828397 20.4376307 18.6812718 19.2953833 19.0415505 18.3455575 19.3445122 17.305662 18.6689895 16.8389373 17.7805749 16.3722125 16.8921603 16.3722125 15.8481707 16.3722125 14.849216 16.3722125 13.7233449 16.3722125 12.6015679 16.3722125 11.4756969 16.3722125 10.2474739 16.3312718 8.92918118 15.5779617 7.96707317 14.636324 6.76750871 12.4337108 6.24756098 10.9598432 6.29259582 9.9787767 6.30514597 9.03804234 6.68494555 8.32325784 7.35705575 7.53310105 8.02848432 6.62421603 8.51977352 5.54747387 8.34372822 4.63583794 8.20460358 3.88463426 7.55525802 3.61506969 6.67334495 3.50452962 6.23937282 3.53318815 5.77264808 3.40627178 5.34277003 3.09102787 4.28649826 1.96106272 3.73379791 1.20365854 2.93135889.493208285 2.14359385.0905736943 1.12610571.0695993031.0655052265-.0431743072 1.32295357.367026719 2.57132709 1.20365854 3.51681185 1.96106272 4.33562718 3.09102787 4.87195122 3.40627178 5.928223 3.53318815 6.33763066 3.50452962 6.82482578 3.61506969 7.25879791 3.88463426 8.14071099 4.63583794 8.79005654 5.54747387 8.92918118 6.62421603 9.10522648 7.53310105 8.61393728 8.32325784 7.94250871 9.03804234 7.27039851 9.9787767 6.89059893 10.9598432 6.87804878 12.4337108 6.83301394 14.6445122 7.35296167 15.5779617 8.55252613 16.3312718 9.51463415 16.3681185 10.8370209 16.3722125 12.0611498 16.3722125 13.1870209 16.3722125 14.3087979 16.3722125 15.434669 16.3722125 16.4336237 16.3722125 17.4817073 16.8389373 18.3619338 17.305662 19.2421603 18.3332753 19.9299652 19.2953833 19.6270035 20.4253484 19.2667247 20.9330139 17.7682927 22.0752613 17.4980836 22.9432056 17.3097561 23.8316202 17.9566202 24.2082753 18.746777zM23.6801394 29.055662C23.6071983 28.8215569 23.5618561 28.5797321 23.5450348 28.3351045 23.5078149 28.7818137 23.5536217 29.2315532 23.6801394 29.6615854 23.983101 30.6359756 25.0925958 31.4425087 26.0301394 31.0249129 26.0036257 30.8293739 25.9872275 30.6325962 25.9810105 30.4353659 25.047561 30.8079268 23.9667247 30.013676 23.6801394 29.055662z"/>
    </g>
    <path fill="#000" fill-rule="nonzero" d="M349.441725 255.151045C349.441725 255.151045 350.850087 257.607491 355.951307 255.445819M392.556446 255.74878C392.556446 255.74878 396.953484 260.927787 402.496864 257.447822M405.35453 194.505488C405.35453 194.505488 402.247125 196.44608 402.148868 197.555575 402.05061 198.66507 403.753746 196.73676 403.753746 196.73676L405.35453 194.505488zM406.582753 209.391551C405.502035 210.290679 404.158842 210.815027 402.754791 210.885889 400.429355 210.98824 400.625871 214.017857 402.144774 213.108972 403.663676 212.200087 406.582753 209.391551 406.582753 209.391551zM407.1723 211.336237C407.1723 211.336237 405.682056 218.66054 404.470209 217.248084" opacity=".1"/>
    <ellipse cx="262.468" cy="285.088" fill="#FFF" fill-rule="nonzero" opacity=".5" rx="1.568" ry="1" transform="rotate(-60 262.468 285.088)"/>
    <ellipse cx="426.165" cy="261.796" fill="#124F69" fill-rule="nonzero" opacity=".1" rx="11.025" ry="1.863"/>
    <path fill="#A8A8A8" fill-rule="nonzero" d="M418.824042,253.095289 C418.824042,253.095289 425.112544,252.902867 427.012195,251.551822 C428.911847,250.200777 436.682404,248.591804 437.153223,250.757571 C437.624042,252.923338 446.606446,261.520899 439.503223,261.578216 C432.4,261.635533 423.008188,260.472815 421.116725,259.318285 C419.225261,258.163756 418.824042,253.095289 418.824042,253.095289 Z"/>
    <path fill="#000" fill-rule="nonzero" d="M439.626045,261.120209 C432.526916,261.177526 423.13101,260.014808 421.239547,258.860279 C419.798432,257.984146 419.225261,254.835801 419.03284,253.382404 L418.824042,253.382404 C418.824042,253.382404 419.233449,258.454965 421.112631,259.605401 C422.991812,260.755836 432.4,261.922648 439.499129,261.865331 C441.546167,261.865331 442.258537,261.120209 442.217596,260.039373 C441.935105,260.710801 441.153136,261.120209 439.626045,261.120209 Z" opacity=".2"/>
  </g>
</svg>
