<svg xmlns="http://www.w3.org/2000/svg" width="470" height="329" viewBox="0 0 470 329">
  <g fill="none">
    <path fill="#EDE8E5" d="M199.795484,12.6315207 C180.705253,5.37142857 160.532074,-0.693087558 139.93871,0.0693087558 C109.659447,1.18691244 80.5930876,18.223871 66.3588018,43.24 C54.2817512,64.4354839 52.7916129,89.278341 47.5891244,112.8 C41.1867281,141.775392 28.9017512,169.32129 15.7850691,196.252074 C8.74156682,210.720276 1.30820276,225.500369 0.151612903,241.359078 C-1.45115207,263.377604 9.79852535,285.318157 27.4419355,299.963963 C45.0853456,314.60977 68.5160369,322.337696 92.0333641,324.022765 C104.547926,324.919447 117.625622,324.087742 128.741014,318.638341 C140.501843,312.872719 149.07447,302.454747 160.882949,296.771429 C171.825069,291.503963 184.62553,290.767558 196.910507,291.451982 C212.950486,292.345368 228.784466,295.495248 243.945161,300.808664 C261.116406,306.838525 277.08341,315.57576 294.194009,321.692258 C311.304608,327.808756 330.468479,331.222212 347.977604,326.119355 C364.438433,321.324055 377.433825,309.680184 389.151336,297.889032 C408.311135,278.643641 425.872479,257.870493 441.661382,235.775392 C452.2353,220.956313 462.077143,205.322857 466.751152,188.051982 C475.691982,155.030691 463.389677,117.777235 436.103687,95.2258986 C413.496037,76.5428571 383.156129,68.4337327 353.457327,63.5128111 C326.374931,59.0250691 295.060369,58.7478341 270.130876,47.0519816 C246.357972,35.8846083 224.724977,22.1181567 199.795484,12.6315207 Z"/>
    <polygon fill="#AAABB0" points="274.021 268.138 274.021 283.876 278.496 283.876 277.629 266.982"/>
    <polygon fill="#AAABB0" points="206.804 264.963 206.804 280.7 211.283 280.7 210.417 263.806"/>
    <rect width="5.774" height="28.014" x="279.219" y="238.972" fill="#AAABB0" rx="2.887"/>
    <rect width="5.774" height="34.221" x="205.145" y="232.76" fill="#AAABB0" rx="2.887"/>
    <path fill="#AAABB0" d="M292.361659 71.3317051C292.361659 71.3317051 298.135945 68.875576 299.002304 71.3317051 299.868664 73.7878341 300.301843 95.0136406 300.301843 95.0136406L294.813456 95.0136406 292.361659 71.3317051zM229.117419 71.3317051C229.117419 71.3317051 223.338802 68.875576 222.472442 71.3317051 221.606083 73.7878341 221.172903 95.0136406 221.172903 95.0136406L226.66129 95.0136406 229.117419 71.3317051z"/>
    <polygon fill="#AAABB0" points="229.979 50.249 229.113 67.866 233.012 67.866 233.012 49.816"/>
    <path fill="#33323D" d="M226.66129 95.0136406L227.81788 69.5989862C227.81788 69.5989862 227.3847 63.9676498 241.099171 65.7003687 254.813641 67.4330876 294.960737 70.8985253 294.960737 70.8985253L294.960737 95.0136406 226.66129 95.0136406zM281.532166 228.866175L279.366267 267.705069C279.366267 267.705069 247.596866 285.322488 209.043871 268.571429L212.509309 227.709585 281.532166 228.866175z"/>
    <polygon fill="#444053" points="251.353 75.949 252.072 101.074 296.836 101.074 294.237 67.866"/>
    <rect width="42.166" height="53.424" x="213.735" y="212.258" fill="#4C4981"/>
    <rect width="276.789" height="138.618" x="131.908" y="93.567" fill="#124F69"/>
    <path fill="#33323D" d="M226.80424,49.2395392 C226.80424,49.2395392 224.638341,29.0230415 226.80424,26.5712442 C228.970138,24.119447 265.357235,0.866359447 299.002304,28.156682 C299.002304,28.156682 302.177512,28.3039631 301.601382,35.5207373 C301.261813,40.088314 301.284989,44.6756266 301.670691,49.2395392 C301.670691,49.2395392 229.260369,54.4376959 226.80424,49.2395392 Z"/>
    <path fill="#000" d="M226.80424,49.2395392 C226.80424,49.2395392 224.638341,29.0230415 226.80424,26.5712442 C228.970138,24.119447 265.357235,0.866359447 299.002304,28.156682 C299.002304,28.156682 302.177512,28.3039631 301.601382,35.5207373 C301.261813,40.088314 301.284989,44.6756266 301.670691,49.2395392 C301.670691,49.2395392 229.260369,54.4376959 226.80424,49.2395392 Z" opacity=".1"/>
    <path fill="#33323D" d="M226.80424,51.8386175 C226.80424,51.8386175 224.638341,31.6221198 226.80424,29.1703226 C228.970138,26.7185253 265.357235,3.46543779 299.002304,30.7557604 C299.002304,30.7557604 302.177512,30.9030415 301.601382,38.1198157 C301.261813,42.6873924 301.284989,47.2747049 301.670691,51.8386175 C301.670691,51.8386175 229.260369,57.0367742 226.80424,51.8386175 Z"/>
    <path fill="#000" d="M255.974562,32.34553 C255.974562,32.34553 242.39871,32.2025806 239.080553,39.4193548 C235.762396,46.636129 237.312389,49.5284642 236.01285,50.6807223 C234.713311,51.8329803 248.463226,57.4699539 248.463226,57.4699539 L249.186636,82.3041475 C249.186636,82.3041475 252.218894,79.2329032 257.12682,80.6234101 C262.034747,82.0139171 268.246544,80.6234101 268.246544,80.6234101 C268.246544,80.6234101 267.956313,80.0992627 272.002212,80.6234101 C276.048111,81.1475576 288.896221,74.3639631 288.896221,74.3639631 C288.896221,74.3639631 289.108479,63.4998157 288.822581,61.1866359 C288.536682,58.8734562 297.988664,41.8754839 297.988664,41.8754839 C297.988664,41.8754839 305.352719,34.801659 297.702765,32.34553 C297.702765,32.34553 294.995392,28.264977 288.029862,28.3039631 C281.064332,28.3429493 255.974562,32.34553 255.974562,32.34553 Z" opacity=".1"/>
    <path fill="#00758F" d="M255.974562,31.9123502 C255.974562,31.9123502 242.39871,31.7694009 239.080553,38.9861751 C236.447855,44.7121205 236.876055,48.3496966 236.516232,50.1837547 C236.422548,50.661277 236.275444,51.0165401 236.006987,51.2545716 C234.707448,52.4068297 248.463226,57.0367742 248.463226,57.0367742 L249.186636,81.8709677 C249.186636,81.8709677 252.218894,78.7997235 257.12682,80.1902304 C262.034747,81.5807373 268.246544,80.1902304 268.246544,80.1902304 C268.246544,80.1902304 267.956313,79.6660829 272.002212,80.1902304 C276.048111,80.7143779 288.896221,73.9307834 288.896221,73.9307834 C288.896221,73.9307834 293.947097,65.7003687 293.661198,63.3915207 C293.3753,61.0826728 303.767281,43.6082028 303.767281,43.6082028 C303.767281,43.6082028 305.357051,34.3684793 297.702765,31.9123502 C297.702765,31.9123502 294.995392,27.8317972 288.029862,27.8707834 C281.064332,27.9097696 255.974562,31.9123502 255.974562,31.9123502 Z"/>
    <path fill="#33323D" d="M212.509309,278.101382 C212.509309,278.101382 206.444793,276.801843 206.301843,278.101382 C206.158894,279.400922 199.080737,292.686544 207.891613,296.585161 C216.702488,300.483779 240.232811,308.857143 278.499908,298.02765 C278.499908,298.02765 280.951705,298.894009 280.375576,293.552903 C279.799447,288.211797 279.799447,282.29023 279.799447,282.29023 C279.799447,282.29023 274.020829,280.700461 269.689032,281.280922 C265.357235,281.861382 227.670599,289.511336 212.509309,278.101382 Z"/>
    <path fill="#000" d="M212.509309,278.101382 C212.509309,278.101382 206.444793,276.801843 206.301843,278.101382 C206.158894,279.400922 199.080737,292.686544 207.891613,296.585161 C216.702488,300.483779 240.232811,308.857143 278.499908,298.02765 C278.499908,298.02765 280.951705,298.894009 280.375576,293.552903 C279.799447,288.211797 279.799447,282.29023 279.799447,282.29023 C279.799447,282.29023 274.020829,280.700461 269.689032,281.280922 C265.357235,281.861382 227.670599,289.511336 212.509309,278.101382 Z" opacity=".1"/>
    <path fill="#33323D" d="M212.509309,276.368664 C212.509309,276.368664 206.444793,275.069124 206.301843,276.368664 C206.158894,277.668203 199.080737,290.953825 207.891613,294.852442 C216.702488,298.75106 240.232811,307.124424 278.499908,296.294931 C278.499908,296.294931 280.951705,297.16129 280.375576,291.820184 C279.799447,286.479078 279.799447,280.557512 279.799447,280.557512 C279.799447,280.557512 274.020829,278.967742 269.689032,279.548203 C265.357235,280.128664 227.670599,287.778618 212.509309,276.368664 Z"/>
    <g transform="translate(197.097 230.452)">
      <path fill="#FFB9B9" d="M43.283318,3.61271889 C43.283318,3.61271889 49.3478341,-1.15225806 50.3571429,0.290230415 C51.3664516,1.73271889 46.7530876,7.94451613 44.8730876,7.22110599 C42.9930876,6.49769585 43.283318,3.61271889 43.283318,3.61271889 Z"/>
      <path fill="#767D9F" d="M0.398525346,17.1842396 L1.91032258,13.8920737 C1.91032258,13.8920737 10.0714286,6.28976959 11.9470968,5.75695853 C13.822765,5.22414747 21.4770507,2.90230415 22.6336406,2.90230415 C23.7902304,2.90230415 44.8730876,1.74571429 44.8730876,1.74571429 L47.3248848,7.5243318 L20.8662673,13.3332719 L11.9470968,19.8309677 L0.398525346,17.1842396 Z"/>
    </g>
    <rect width="31.349" height="47.36" x="228.68" y="178.76" fill="#FFF"/>
    <rect width="31.349" height="47.36" x="228.68" y="178.76" fill="#7B7877" opacity=".359"/>
    <rect width="31.349" height="47.36" x="239.475" y="178.777" fill="#FFF" transform="rotate(8.41 255.15 202.457)"/>
    <g transform="scale(-1 1) rotate(-33 250.224 601.217)">
      <path fill="#FFB9B9" d="M57.7169676,3.06144316 C57.7169676,3.06144316 39.5970598,21.2549915 48.693834,25.8770192 C57.7906082,30.4990468 62.5892269,11.0066046 62.5892269,11.0066046 L64.1173953,5.43909799 L57.7169676,3.06144316 Z" transform="rotate(-142 55.128 14.824)"/>
      <path fill="#767D9F" d="M0.398525346,31.9123502 L1.91032258,28.6201843 C1.91032258,28.6201843 10.0714286,21.0178802 11.9470968,20.4850691 C13.822765,19.9522581 21.4770507,17.6304147 22.6336406,17.6304147 C23.7902304,17.6304147 43.3468049,15.7455962 43.3468049,15.7455962 L47.3248848,22.2524424 L20.8662673,28.0613825 L11.9470968,34.5590783 L0.398525346,31.9123502 Z"/>
    </g>
    <rect width="16.136" height="24.375" x="244.157" y="182.257" fill="#B8A9A3" transform="rotate(8.41 252.225 194.444)"/>
    <rect width="19.549" height="5.293" x="240.258" y="213.584" fill="#B8A9A3" transform="rotate(8.41 250.032 216.23)"/>
    <circle cx="268.247" cy="41.152" r="18.12" fill="#000" opacity=".1"/>
    <circle cx="268.247" cy="40.719" r="18.12" fill="#AE6E79"/>
    <path fill="#444053" d="M253.306175,54.1474654 C253.182985,53.6807485 253.22744,53.1856036 253.431797,52.7482949 C254.120553,51.31447 256.082857,51.1888479 257.672627,51.2624885 C261.410968,51.4357604 265.51318,51.4574194 268.437143,49.0965899 C269.650046,48.1262673 271.005899,45.6874654 272.76894,46.1509677 C274.337051,46.5624885 274.991152,48.6894009 276.62424,49.1615668 C277.80682,49.5037788 279.032719,48.9579724 280.236959,48.7283871 C281.969677,48.3861751 283.745714,48.6720737 285.504424,48.6850691 C287.263134,48.6980645 289.173456,48.3645161 290.373364,47.0779724 C291.993456,45.3452535 291.729217,42.6378802 291.586267,40.2640553 C291.408586,37.1976867 291.616696,34.1211418 292.205714,31.1066359 C292.794839,28.1090323 293.700184,24.7562212 292.045438,22.1874654 C290.468664,19.74 287.202488,19.0685714 284.971613,17.1929032 C282.883687,15.4601843 281.779078,12.6835023 279.574194,11.0764055 C276.797512,9.05345622 273.024516,9.34368664 269.61106,9.69456221 L262.203687,10.4829493 C260.293364,10.6865438 258.305069,10.916129 256.732627,12.0553917 C253.8953,14.1086636 253.505438,18.3754839 250.819724,20.6236866 C249.624147,21.62 248.095023,22.1138249 246.730507,22.858894 C245.365991,23.6039631 244.049124,24.782212 243.89318,26.3243318 C243.763226,27.623871 244.464977,28.8237788 244.807189,30.0756682 C245.617235,33.0646083 244.35235,36.1401843 243.542304,39.1507834 C242.732258,42.1613825 242.576313,45.8174194 244.928479,47.8143779 C245.404977,48.2215668 245.959447,48.5334562 246.422949,48.9579724 C248.012719,50.4091244 248.229309,52.8565899 247.861106,54.9705069"/>
    <ellipse cx="269.724" cy="62.27" fill="#444053" rx="1" ry="1.083"/>
    <ellipse cx="269.724" cy="66.783" fill="#444053" rx="1" ry="1.083"/>
    <path fill="#000" d="M265.937696,268.428479 C265.937696,268.428479 257.4647,281.527834 230.993088,280.124332 C206.054931,278.824793 193.882581,266.552811 194.463041,262.221014 C195.043502,257.889217 192.873272,247.345622 198.214378,244.313364 C201.311613,242.558986 205.387834,243.598618 208.264147,244.78553 C210.292378,245.609281 212.613561,245.192918 214.229032,243.715576 C216.858433,241.346083 221.762028,238.677696 229.502949,240.778618 C230.499014,241.044322 231.549695,241.024809 232.535207,240.722304 C235.758065,239.738986 243.429677,238.032258 248.996037,241.822581 C250.791918,243.060402 253.141094,243.149847 255.025899,242.052166 L255.103871,242.004516 C257.702949,240.414747 269.831982,255.433088 269.831982,255.433088 C269.831982,255.433088 270.412442,266.985991 265.937696,268.428479 Z" opacity=".1"/>
    <path fill="#767D9F" d="M265.937696,268.861659 C265.937696,268.861659 257.4647,281.961014 230.993088,280.557512 C206.054931,279.257972 193.882581,266.985991 194.463041,262.654194 C195.043502,258.322396 192.873272,247.778802 198.214378,244.746544 C201.311613,242.992166 205.387834,244.031797 208.264147,245.21871 C210.292378,246.04246 212.613561,245.626097 214.229032,244.148756 C216.858433,241.779263 221.762028,239.110876 229.502949,241.211797 C230.499014,241.477502 231.549695,241.457989 232.535207,241.155484 C235.758065,240.172166 243.429677,238.465438 248.996037,242.25576 C250.791918,243.493582 253.141094,243.583026 255.025899,242.485346 L255.103871,242.437696 C257.702949,240.847926 269.831982,255.866267 269.831982,255.866267 C269.831982,255.866267 270.412442,267.419171 265.937696,268.861659 Z"/>
    <circle cx="230.993" cy="256.733" r="17.258" fill="#000" opacity=".1"/>
    <circle cx="230.993" cy="257.166" r="17.258" fill="#FFB9B9"/>
    <path fill="#B96B6B" d="M226.046175,242.247097 C224.235484,242.73659 222.450783,243.672258 221.567097,245.210046 C221.034286,246.137051 220.848018,247.250323 220.076959,248.021382 C218.985346,249.117327 217.144332,249.138986 215.667189,249.754101 C214.190046,250.369217 213.215392,252.535115 214.662212,253.219539 C213.154747,253.297512 212.037143,254.688018 211.850876,256.069862 C211.664608,257.451705 212.188756,258.829217 212.695576,260.146083 C214.350323,264.408571 216.130691,268.857327 219.778065,271.889585 C225.72129,276.836498 234.679447,276.606912 242.662949,276.082765 C243.315247,276.104383 243.961859,275.95505 244.538618,275.649585 C245.404977,275.077788 245.513272,273.981843 245.656221,273.020184 C246.258341,268.913641 248.484885,265.183963 249.940369,261.263687 C251.395853,257.34341 251.993641,252.73871 249.541843,249.26894 C245.933456,244.122765 232.119355,240.601014 226.046175,242.247097 Z"/>
    <g fill="#000" opacity=".1" transform="translate(243.014 24.691)">
      <path d="M49.2048848 4.99023041C48.7164491 7.52591322 48.4971991 10.1060933 48.5507834 12.6878341 48.587904 10.5410995 48.8125683 8.40171602 49.222212 6.29410138 49.6034101 4.37078341 50.0885714 2.30018433 49.9846083.381198157 49.8249547 1.93282943 49.5644965 3.47242663 49.2048848 4.99023041zM3.42211982 22.8718894C2.95861751 22.4387097 2.40414747 22.1354839 1.92764977 21.7239631.662764977 20.6453456.129953917 19.0815668.0259907834 17.3921659-.0996313364 19.5580645.342211982 21.6546544 1.92764977 23.0235023 2.40414747 23.435023 2.95861751 23.7469124 3.42211982 24.1714286 4.39104358 25.1302353 4.95274167 26.4258648 4.99023041 27.7884793 5.11585253 25.9691244 4.74764977 24.076129 3.42211982 22.8718894zM2.0402765 6.69695853C2.11603027 5.78203319 2.03694907 4.86088365 1.80635945 3.97225806 1.55511521 3.04525346 1.10460829 2.13990783.94 1.20857143.94 1.30820276.905345622 1.4121659.89235023 1.52046083.766728111 2.82 1.46847926 4.01990783 1.80635945 5.27179724 1.93083949 5.73803909 2.00918853 6.21538788 2.0402765 6.69695853zM47.3725346 20.9615668C46.1726267 22.261106 44.2623041 22.581659 42.5035945 22.5686636 40.7448848 22.5556682 38.9645161 22.2697696 37.236129 22.6163134 36.0318894 22.858894 34.8059908 23.4003687 33.6234101 23.0494931 31.9903226 22.5773272 31.3362212 20.4504147 29.7724424 20.038894 27.9920737 19.5710599 26.6362212 22.0098618 25.4406452 22.9801843 22.516682 25.3193548 18.41447 25.2976959 14.676129 25.1460829 13.0863594 25.0724424 11.1240553 25.1980645 10.4396313 26.6362212 10.2308302 27.0723205 10.1862301 27.5690732 10.3140092 28.0353917L5.020553 28.8670968C5.00054973 29.3028727 4.95280326 29.7369316 4.87760369 30.1666359L10.3140092 29.3002765C10.1862301 28.833958 10.2308302 28.3372053 10.4396313 27.901106 11.1240553 26.4629493 13.0863594 26.3373272 14.676129 26.4109677 18.41447 26.5842396 22.516682 26.6058986 25.4406452 24.2450691 26.6535484 23.2747465 28.0094009 20.8359447 29.7724424 21.3037788 31.3362212 21.7109677 31.9903226 23.842212 33.6234101 24.3143779 34.8059908 24.6522581 36.0318894 24.1107834 37.236129 23.8811982 38.9688479 23.5346544 40.7448848 23.820553 42.5035945 23.8335484 44.2623041 23.8465438 46.1726267 23.5129954 47.3725346 22.2264516 48.5724424 20.9399078 48.7457143 19.0209217 48.6720737 17.1495853 48.6200922 18.6007373 48.3211982 19.9435945 47.3725346 20.9615668z"/>
    </g>
    <g fill="#000" opacity=".1" transform="translate(211.392 241.281)">
      <path d="M4.27981567 9.14009217C5.75262673 8.52930876 7.59364055 8.50764977 8.68958525 7.40737327 9.46064516 6.63631336 9.64691244 5.52304147 10.1797235 4.60036866 11.0460829 3.05824885 12.8437788 2.12691244 14.65447 1.63741935 20.7189862-.00866359447 34.5460829 3.50875576 38.1501382 8.60728111 39.2064163 10.1498459 39.7822087 11.9706764 39.8048848 13.8400922 39.9436707 11.6818898 39.3632761 9.5385428 38.15447 7.74525346 34.5504147 2.64672811 20.7363134-.870691244 14.6588018.775391705 12.8481106 1.26488479 11.0634101 2.1962212 10.1840553 3.73834101 9.65124424 4.66101382 9.46497696 5.77428571 8.69391705 6.54534562 7.59797235 7.64129032 5.75695853 7.66294931 4.28414747 8.27806452 3.16221198 8.74156682 2.33050691 10.1104147 2.63373272 11.0287558 2.87832014 10.1879477 3.48030392 9.49725055 4.27981567 9.14009217zM.467834101 15.4341935C.649769585 14.0480184 1.76737327 12.6618433 3.27917051 12.583871 2.95763636 12.4498367 2.71399886 12.177536 2.61640553 11.8431336 1.44441102 12.2785949.610370786 13.3278175.450506912 14.5678341.409369237 14.9204016.409369237 15.2765569.450506912 15.6291244.467834101 15.5641475.467834101 15.4991705.467834101 15.4341935z"/>
    </g>
    <rect width="39.419" height="51.405" x="264.201" y="99.735" fill="#FFF"/>
    <rect width="39.419" height="51.405" x="264.201" y="99.735" fill="#7B7877" opacity=".359"/>
    <g transform="matrix(-1 0 0 1 265.972 42.452)">
      <path fill="#00758F" d="M28.264977,0.147281106 C28.264977,0.147281106 30.5738249,8.81087558 29.8547465,10.2533641 C29.1356682,11.6958525 29.2656221,15.7417512 29.2656221,15.7417512 C29.2656221,15.7417512 29.4215668,18.3408295 28.264977,18.6267281 C27.1083871,18.9126267 26.0990783,19.0599078 27.0347465,19.9262673 C27.9704147,20.7926267 27.0347465,22.0921659 27.0347465,22.0921659 C27.0347465,22.0921659 26.5279263,24.1151152 27.0347465,25.4146544 C27.5415668,26.7141935 24.0717972,27.2556682 24.3663594,28.8800922 C24.6609217,30.5045161 25.6312442,35.0875576 24.3663594,35.2348387 C23.1014747,35.3821198 24.7995392,41.0091244 23.6602765,41.0091244 C22.5210138,41.0091244 21.7109677,51.1152074 21.7109677,51.1152074 C21.7109677,51.1152074 13.6971429,44.3316129 8.35603687,46.2072811 C8.35603687,46.2072811 8.78921659,40.5759447 10.5219355,38.5529954 C12.2546544,36.5300461 11.7305069,31.3362212 11.7305069,31.3362212 L20.3247926,5.4883871 L28.264977,0.147281106 Z"/>
      <path fill="#AE6E79" d="M11.7305069,43.3179724 C11.7305069,43.3179724 -6.38940092,61.5115207 2.70737327,66.1335484 C11.8041475,70.755576 17.7257143,50.7556682 17.7257143,50.7556682 L19.163871,46.2072811 L11.7305069,43.3179724 Z"/>
      <path fill="#00758F" d="M10.5782488,41.2776959 L8.33870968,46.2246083 C8.33870968,46.2246083 19.3847926,47.7753917 21.6936406,51.1152074 L20.3247926,42.3866359 L18.7003687,38.6612903 L10.5782488,41.2776959 Z"/>
    </g>
    <rect width="39.419" height="51.405" x="283.904" y="105.72" fill="#FFF" transform="rotate(-9.76 303.614 131.423)"/>
    <g transform="translate(246.48 53.714)">
      <path fill="#444053" d="M1.39483871,1.29087558 C1.02230415,3.40912442 0.177603687,5.44506912 0.0476497696,7.58930876 C-0.0823041475,9.73354839 0.745069124,12.1723502 2.72470046,13.0127189 C3.27704451,13.177751 3.81230219,13.3953354 4.32313364,13.6624885 C5.08552995,14.1779724 5.39741935,15.1482949 5.55769585,16.0579724 C5.77043036,17.2324111 5.82144126,18.4304384 5.70930876,19.6187097 C5.60101382,20.8142857 5.34543779,22.1008295 5.93456221,23.1447926 C6.96986175,24.99447 9.66857143,24.7215668 11.7218433,24.2017512 L11.0157604,29.6728111 C10.959447,30.1059908 10.9247926,30.5954839 11.2410138,30.8900461 C11.5428155,31.1026809 11.9178986,31.1839488 12.2806452,31.1152995 C14.0653456,31.0026728 15.9020276,30.7557604 17.4311521,29.8157604 C18.9602765,28.8757604 20.0995392,27.1257143 19.8093088,25.3626728 C19.4714286,23.3180645 17.3575115,21.6936406 17.6434101,19.6403687 C17.8643318,18.0505991 19.419447,17.0412903 20.4417512,15.8197235 C22.2914286,13.5845161 22.3910599,10.1883871 20.9399078,7.65861751 C19.4887558,5.12884793 16.6860829,3.56073733 13.801106,3.27483871 C12.2026728,3.11456221 10.5392627,3.30949309 9.03612903,2.75502304 C7.97596953,2.366148 7.15862337,1.50392793 6.82691244,0.424516129"/>
      <g fill="#000" opacity=".1" transform="translate(0 8.664)">
        <path d="M3.80764977 4.080553C3.29751089 3.81190831 2.76210521 3.59426373 2.20921659 3.43078341 1.26917881 3.00358888.522879761 2.24029337.116958525 1.29087558.441843318 2.78534562 1.26488479 4.14552995 2.64239631 4.73032258 3.19528493 4.8938029 3.73069061 5.11144748 4.24082949 5.38009217 4.5670392 5.61052778 4.83057891 5.91873525 5.0075576 6.27677419 4.83428571 5.42774194 4.51806452 4.56138249 3.80764977 4.080553zM11.2063594 14.6198157C9.20940092 15.1266359 6.60165899 15.3908756 5.50571429 13.6971429 5.53981751 14.1052683 5.65779331 14.501962 5.85225806 14.8623963 6.78792627 16.5301382 9.07511521 16.4738249 11.0200922 16.0623041L11.2063594 14.6198157zM19.2981567 15.8067281C19.5753917 17.5654378 18.4317972 19.3198157 16.9156682 20.2424885 15.3995392 21.1651613 13.5498618 21.4207373 11.7651613 21.5420276 11.4814539 21.5787418 11.1930745 21.5460389 10.9247926 21.4467281 10.7585426 21.8209371 10.8295112 22.258064 11.105609 22.5604568 11.3817068 22.8628496 11.8105927 22.9731824 12.198341 22.8415668 13.9830415 22.7289401 15.8197235 22.4820276 17.3488479 21.5420276 18.8779724 20.6020276 20.0215668 18.8519816 19.7270046 17.0889401 19.6438381 16.6438127 19.4995222 16.2123227 19.2981567 15.8067281zM21.2214747.12562212C21.7573322 2.25985394 21.2777375 4.52194195 19.9219355 6.25511521 18.8996313 7.49400922 17.3445161 8.48599078 17.1235945 10.0757604 17.0498847 10.8066555 17.2010105 11.542638 17.5567742 12.1853456 17.5177305 11.9167417 17.5177305 11.6439035 17.5567742 11.3752995 17.7776959 9.78552995 19.3328111 8.7762212 20.3551152 7.55465438 22.0358525 5.52304147 22.2697696 2.52976959 21.2214747.12562212z"/>
      </g>
    </g>
    <rect width="9.261" height="12.077" x="290.204" y="143.097" fill="#7B7877" transform="rotate(-9.76 294.835 149.136)"/>
    <rect width="9.261" height="12.077" x="302.835" y="140.922" fill="#7B7877" transform="rotate(-9.76 307.465 146.96)"/>
    <rect width="32.478" height="12.131" x="288.714" y="125.447" fill="#7B7877" transform="rotate(-9.744 304.953 131.513)"/>
    <rect width="32.478" height="2.706" x="285.248" y="111.246" fill="#7B7877" transform="rotate(-9.744 301.487 112.599)"/>
    <rect width="32.478" height="2.706" x="286.298" y="116.152" fill="#7B7877" transform="rotate(-9.744 302.537 117.506)"/>
    <path fill="#000" d="M284.781014,84.1624885 L282.541475,89.1094009 C282.541475,89.1094009 293.587558,90.6601843 295.896406,94 L294.527558,85.2714286 L292.903134,81.5460829 L284.781014,84.1624885 Z" opacity=".1"/>
    <g transform="translate(274.636 42.452)">
      <path fill="#00758F" d="M28.264977,0.147281106 C28.264977,0.147281106 30.5738249,8.81087558 29.8547465,10.2533641 C29.1356682,11.6958525 29.2656221,15.7417512 29.2656221,15.7417512 C29.2656221,15.7417512 29.4215668,18.3408295 28.264977,18.6267281 C27.1083871,18.9126267 26.0990783,19.0599078 27.0347465,19.9262673 C27.9704147,20.7926267 27.0347465,22.0921659 27.0347465,22.0921659 C27.0347465,22.0921659 26.5279263,24.1151152 27.0347465,25.4146544 C27.5415668,26.7141935 24.0717972,27.2556682 24.3663594,28.8800922 C24.6609217,30.5045161 25.6312442,35.0875576 24.3663594,35.2348387 C23.1014747,35.3821198 24.7995392,41.0091244 23.6602765,41.0091244 C22.5210138,41.0091244 21.7109677,51.1152074 21.7109677,51.1152074 C21.7109677,51.1152074 13.6971429,44.3316129 8.35603687,46.2072811 C8.35603687,46.2072811 8.78921659,40.5759447 10.5219355,38.5529954 C12.2546544,36.5300461 11.7305069,31.3362212 11.7305069,31.3362212 L20.3247926,5.4883871 L28.264977,0.147281106 Z"/>
      <path fill="#AE6E79" d="M11.7305069,43.3179724 C11.7305069,43.3179724 -6.38940092,61.5115207 2.70737327,66.1335484 C11.8041475,70.755576 17.7257143,50.7556682 17.7257143,50.7556682 L19.163871,46.2072811 L11.7305069,43.3179724 Z"/>
      <path fill="#00758F" d="M10.5782488,41.2776959 L8.33870968,46.2246083 C8.33870968,46.2246083 19.3847926,47.7753917 21.6936406,51.1152074 L20.3247926,42.3866359 L18.7003687,38.6612903 L10.5782488,41.2776959 Z"/>
    </g>
    <polygon fill="#464A5F" points="352.08 174.684 351.842 174.874 352.171 175.044 352.526 175.009 352.569 174.724"/>
    <polygon fill="#000" points="352.08 174.684 351.842 174.874 352.171 175.044 352.526 175.009 352.569 174.724" opacity=".1"/>
    <polygon fill="#9C9CA1" points="352.147 174.711 351.867 174.881 351.647 174.626 351.782 174.419 351.907 174.381"/>
    <polygon fill="#000" points="352.147 174.711 351.867 174.881 351.647 174.626 351.782 174.419 351.907 174.381" opacity=".1"/>
  </g>
</svg>
