<svg xmlns="http://www.w3.org/2000/svg" width="470" height="307" viewBox="0 0 470 307">
  <defs>
    <linearGradient id="sg_self-care_illustration-a" x1="49.999%" x2="49.999%" y1="99.999%" y2=".005%">
      <stop offset="0%" stop-color="gray" stop-opacity=".25"/>
      <stop offset="54%" stop-color="gray" stop-opacity=".12"/>
      <stop offset="100%" stop-color="gray" stop-opacity=".1"/>
    </linearGradient>
  </defs>
  <g fill="none" fill-rule="evenodd">
    <path fill="#EDE8E5" fill-rule="nonzero" d="M117.455765,0.205431045 C95.3514081,1.34546933 73.0163973,7.57397121 55.7701937,20.9624697 C40.63832,32.7150595 29.7254952,51.1920215 32.3876286,69.7570353 C35.5302915,91.6726494 55.8038308,107.614648 63.3241174,128.519985 C68.1630494,141.95946 67.4086181,156.789227 64.2419287,170.692133 C62.2044836,179.650238 59.0714313,188.617613 53.0503968,195.717363 C42.2048461,208.4895 22.6328798,214.653121 17.3038078,230.340234 C11.5086221,247.399099 26.1119134,264.128929 39.8310304,276.261532 C50.7822976,285.942589 62.2525366,295.577303 76.0533437,300.883578 C86.144463,304.767124 97.0957302,306.162048 107.950891,306.718165 C137.926195,308.234953 167.89501,303.616887 195.887789,293.167466 C209.299367,288.148517 222.273663,281.78562 236.30993,278.759421 C266.222891,272.308472 297.000805,281.609517 327.317411,285.96576 C353.305305,289.689007 379.71525,289.763933 405.725408,286.188207 C422.092243,283.935936 439.002075,279.871653 451.327657,269.249833 C463.821424,258.465812 470.068307,241.773057 469.376345,225.599343 C468.684382,209.425629 461.610988,193.854374 451.193109,181.156387 C437.738283,164.755592 419.180234,153.086419 403.034443,139.109365 C386.594077,124.869618 372.608697,108.196906 361.60319,89.716974 C355.260201,79.0580794 349.863854,67.7457483 341.6468,58.3612867 C328.831078,43.7354296 310.244198,35.0368448 291.671733,28.3171069 C248.827723,12.8385383 204.388356,9.68721292 159.718334,2.84698318 C145.758952,0.701301358 131.597748,-0.508251461 117.455765,0.205431045 Z"/>
    <g transform="translate(.484 50.554)">
      <g transform="translate(0 26.478)">
        <path fill="#124F69" fill-rule="nonzero" d="M128.581195,142.433979 C128.581195,142.433979 56.0668966,119.615282 87.0566632,68.6471568 C118.04643,17.6790312 5.84679451,0 5.84679451,0 C5.84679451,0 -16.1313587,49.6279365 25.1605301,82.6768341 C66.4524189,115.725732 82.3818613,170.594326 128.581195,142.433979 Z"/>
        <path stroke="#FFF" d="M5.84679451,0 C5.84679451,0 36.4415075,32.9642828 51.8793275,75.8448726 C67.3171476,118.725462 92.4513408,154.11082 128.208089,141.626045"/>
      </g>
      <ellipse cx="243.695" cy="204.79" fill="#A68676" fill-rule="nonzero" opacity=".261" rx="175.302" ry="15.409"/>
      <g transform="translate(24.165)">
        <g transform="rotate(44 52.726 131.91)">
          <path fill="#124F69" fill-rule="nonzero" d="M5.32641542,22.0283227 C2.30226014,24.7160356 -0.717992994,28.9094917 0.741405809,34.7608259 C3.62508419,46.2762516 18.1566381,46.931601 22.292902,58.2363787 C23.5298791,61.6223507 23.4089129,65.1097459 22.7728647,68.0159085 C21.5280834,73.6995044 18.5429495,77.7681321 16.2992214,82.5389199 C14.0554933,87.3097078 12.5336603,93.4965184 14.4222941,100.233355 C16.2406894,106.716633 20.856916,112.177878 25.5160662,115.466328 C30.1752164,118.754778 35.0021585,120.326836 39.7705685,122.421614 C45.6068542,125.024088 51.1568706,128.225702 56.3312329,131.974892 C58.6217867,133.617166 60.9240468,135.419377 62.9141361,137.876938 C65.181277,140.677776 66.9021189,144.161271 68.5800373,147.574549 C69.4111923,149.267535 69.1887705,152.645705 71.0774043,152.645705 C119.311705,152.481868 85.5153069,152.458463 109.193467,152.571588 C113.403872,152.591093 119.428769,152.618399 128.056392,152.645705 C137.238117,152.676912 135.583612,136.113736 134.37395,125.339479 C132.65701,110.079199 119.826787,97.5027319 113.435089,82.6403431 C108.853981,71.9909149 107.776992,60.4988945 103.945094,49.580305 C98.4235722,33.8480178 87.4546684,20.5303812 75.982389,12.5920712 C64.5101097,4.65376112 52.569574,1.54085133 41.2065544,0.49931385 C36.3991231,0.0546124524 31.5565725,-0.0234053367 27.5217641,2.01285896 C23.2294146,4.1778526 22.2382721,9.62739517 18.9370652,12.986061 C15.1285806,16.9064549 9.43536445,18.3770902 5.32641542,22.0283227 Z"/>
          <path fill="#FFF" fill-rule="nonzero" d="M5.32641542,22.0283227 C2.30226014,24.7160356 -0.717992994,28.9094917 0.741405809,34.7608259 C3.62508419,46.2762516 18.1566381,46.931601 22.292902,58.2363787 C23.5298791,61.6223507 23.4089129,65.1097459 22.7728647,68.0159085 C21.5280834,73.6995044 18.5429495,77.7681321 16.2992214,82.5389199 C14.0554933,87.3097078 12.5336603,93.4965184 14.4222941,100.233355 C16.2406894,106.716633 20.856916,112.177878 25.5160662,115.466328 C30.1752164,118.754778 35.0021585,120.326836 39.7705685,122.421614 C45.6068542,125.024088 51.1568706,128.225702 56.3312329,131.974892 C58.6217867,133.617166 60.9240468,135.419377 62.9141361,137.876938 C65.181277,140.677776 66.9021189,144.161271 68.5800373,147.574549 C69.4111923,149.267535 69.1887705,152.645705 71.0774043,152.645705 C119.311705,152.481868 85.5153069,152.458463 109.193467,152.571588 C113.403872,152.591093 119.428769,152.618399 128.056392,152.645705 C137.238117,152.676912 135.583612,136.113736 134.37395,125.339479 C132.65701,110.079199 119.826787,97.5027319 113.435089,82.6403431 C108.853981,71.9909149 107.776992,60.4988945 103.945094,49.580305 C98.4235722,33.8480178 87.4546684,20.5303812 75.982389,12.5920712 C64.5101097,4.65376112 52.569574,1.54085133 41.2065544,0.49931385 C36.3991231,0.0546124524 31.5565725,-0.0234053367 27.5217641,2.01285896 C23.2294146,4.1778526 22.2382721,9.62739517 18.9370652,12.986061 C15.1285806,16.9064549 9.43536445,18.3770902 5.32641542,22.0283227 Z" opacity=".2"/>
          <path stroke="#535461" stroke-width="2" d="M24.3259148 4.83320203C24.3259148 4.83320203 75.7014352 79.2309657 109.173956 152.610597M1.00675105 35.4434816C1.00675105 35.4434816 46.8607493 35.993507 68.3381049 74.8424651M15.6007391 103.510102C15.6007391 103.510102 72.4548582 80.6196823 84.1573636 102.878158M75.8731292 12.3229098C75.8731292 12.3229098 64.1667217 36.2002541 71.6276054 80.526061M134.194451 125.745172C134.194451 125.745172 125.609753 141.216099 94.4629043 122.351398"/>
        </g>
        <g transform="rotate(-79 131.992 81.809)">
          <path fill="#124F69" fill-rule="nonzero" d="M16.2715914,66.9617573 C16.2715914,66.9617573 -27.1874803,57.2475615 28.1095661,0.412134589 C28.1095661,0.412134589 51.9450092,22.9969016 43.2023931,51.0706321 C39.6876252,62.3585867 28.3753889,69.3268244 16.9154733,67.0946262 L16.2715914,66.9617573 Z"/>
          <path fill="#FFF" fill-rule="nonzero" d="M16.4631171,66.9807719 C15.5091086,66.7681816 -26.0685285,56.3069671 28.3010918,0.431149217 C28.3010918,0.431149217 52.1365348,23.0159162 43.3939188,51.0896468 C39.8791509,62.3776013 28.5669146,69.345839 17.1069989,67.1136408 L16.4631171,66.9807719 Z" opacity=".4"/>
          <path stroke="#535461" d="M17.3201292,67.1635583 C17.3201292,67.1635583 40.2754035,32.5910604 28.5880617,0.292097556"/>
        </g>
      </g>
      <path fill="url(#sg_self-care_illustration-a)" fill-rule="nonzero" d="M358.255851,173.72348 C357.768084,174.168181 355.961395,175.030277 353.526462,176.064013 L353.081618,176.251256 C353.372109,176.023274 353.563567,175.692172 353.616211,175.326745 C353.616211,171.581891 325.0955,179.067698 319.570076,179.067698 C317.03759,179.067698 314.239758,178.318727 311.957009,177.507342 C307.956481,176.073801 303.821343,175.047862 299.614553,174.445144 C297.798839,173.31988 295.902442,172.330262 293.940848,171.484369 L293.940848,171.457063 C294.05401,171.234712 294.159367,171.00846 294.249116,170.782209 C294.249116,170.747101 294.276431,170.708092 294.29204,170.669083 L294.432517,170.310201 C294.47544,170.193175 294.518364,170.076148 294.553483,169.959121 C296.227499,165.024496 295.255867,159.496936 293.484298,154.554509 C292.606317,152.116453 291.53323,149.534064 292.138061,147.01799 C292.252944,146.55153 292.415069,146.097985 292.621926,145.664382 C292.711675,145.477139 292.809228,145.274293 292.910684,145.110455 C292.957509,145.020735 293.012139,144.927114 293.066769,144.837393 C293.207246,144.599439 293.351625,144.361485 293.503808,144.127431 C293.605264,143.975297 293.70672,143.819261 293.812077,143.667126 C294.096933,143.249731 294.389593,142.828435 294.666645,142.403238 L294.701764,142.352527 C294.795415,142.212095 294.885165,142.067762 294.971012,141.923429 C295.056859,141.779096 295.111488,141.697177 295.177825,141.584051 L295.275378,141.412412 C295.292588,141.391482 295.308239,141.369317 295.322204,141.346097 C295.365127,141.264178 295.415855,141.174458 295.458779,141.088638 L295.509506,140.987215 C295.622034,140.772745 295.72362,140.552713 295.813873,140.327965 C295.852894,140.222641 295.895818,140.121218 295.927035,140.019795 C295.958252,139.918372 295.95435,139.922272 295.969958,139.875462 C296.00898,139.750633 296.048001,139.629706 296.08312,139.485373 L296.106533,139.395652 L296.129946,139.302031 C296.149457,139.224013 296.172869,139.145995 296.188478,139.067978 C296.189184,139.078368 296.189184,139.088794 296.188478,139.099185 C296.652832,137.14874 296.438215,135.007152 296.055805,132.994293 C295.682023,131.064756 295.176158,129.163152 294.541777,127.302895 C293.882316,125.35245 293.070671,123.300582 293.445276,121.264318 C293.574395,120.651396 293.767976,120.053839 294.022793,119.481612 C294.022793,119.481612 294.022793,119.481612 294.022793,119.481612 C294.190584,119.091523 294.366181,118.701434 294.526168,118.287939 C294.619819,118.053886 294.705666,117.815932 294.787611,117.577978 L294.85785,117.363429 C294.896871,117.246402 294.924186,117.129375 294.955403,117.012349 L294.978816,116.903124 C294.978816,116.883619 294.978816,116.864115 294.978816,116.848511 C295.228516,115.617967 295.291656,114.356878 295.166118,113.107558 C294.963207,110.170189 294.268627,107.205513 292.641436,104.755754 C291.709674,103.340994 290.45692,102.166161 288.985135,101.326872 C288.500465,101.055505 287.989206,100.834597 287.4594,100.667622 C287.502324,100.589604 287.553051,100.515487 287.595975,100.44137 C287.735882,100.197559 287.839717,99.9347698 287.904244,99.6611923 C287.999006,99.0145287 287.94835,98.3548789 287.755962,97.7302521 C287.104306,94.9723232 286.433138,92.1675837 285.098608,89.6671136 C283.764077,87.1666434 281.653022,84.9431364 278.941038,84.0927425 C277.586996,83.6636447 276.123695,83.5895278 274.824284,83.0043944 C274.274083,82.7547375 273.762903,82.419261 273.228311,82.1305951 C271.788694,81.3441869 270.185265,80.9047206 268.545748,80.8472025 C268.225773,80.8276981 267.913602,80.8472025 267.597529,80.8472025 L267.39852,80.8472025 C267.140979,80.8472025 266.88734,80.8901123 266.618093,80.9213194 C266.294215,80.9642292 265.966436,80.9993372 265.662069,81.0578505 C265.068945,81.1748772 264.573373,81.4050297 264.417288,82.0798836 C264.417288,82.0798836 264.417288,82.1071898 264.417288,82.1227934 C264.417288,82.1383969 264.417288,82.2164147 264.389973,82.2632254 C264.218279,82.2359192 264.042683,82.2086129 263.867087,82.1891085 C263.229572,82.1185972 262.588641,82.0834354 261.947236,82.0837845 C253.545475,82.1055238 246.458813,88.3441981 245.374865,96.673111 C245.015353,96.7237794 244.65308,96.7524393 244.290071,96.7589306 C242.813922,96.7588455 241.343419,96.5767292 239.911875,96.216707 L237.406704,95.4989433 C237.406704,95.4989433 237.430117,95.4365291 237.484746,95.3117006 L237.941296,94.9645214 L237.60181,95.0308366 C238.163718,93.7396422 239.740181,90.111815 240.614259,88.3720183 C241.683445,86.2343308 249.347239,83.5622216 249.347239,83.5622216 C259.883006,83.0277997 268.077491,75.3703537 268.077491,75.3703537 C268.077491,75.3703537 289.976278,78.9318658 303.516689,77.8513194 C317.0571,76.770773 321.69674,81.0617514 321.69674,81.0617514 C321.69674,81.0617514 330.61312,105.477419 345.410019,98.8498073 C356.542813,93.8683715 336.680942,79.6457286 326.17249,72.9127934 C326.777321,73.2521707 327.374348,73.6032508 327.959668,73.9777362 C328.544988,74.3522216 329.220058,74.7891212 329.887323,75.2260208 C328.63864,74.3873296 327.448488,73.6071517 326.35589,72.9088925 C322.702122,70.5671099 318.653852,68.9070824 314.40755,68.0093753 L275.72958,59.8448137 L275.604711,59.8448137 L275.538375,59.8448137 C265.364646,60.9477535 255.375889,63.3589215 245.819709,67.0185494 C234.351331,71.40705 221.013831,77.4885367 219.741735,78.7212178 C216.307855,82.0759827 211.184351,85.3137209 211.184351,85.3137209 C207.407083,85.8559446 202.404545,89.3511415 199.029198,92.0310526 L198.475094,92.4718531 C198.41266,92.1753855 198.39315,91.9959446 198.39315,91.9959446 C198.39315,91.9959446 193.64425,94.8709001 193.577914,96.4741657 C193.511578,98.0774312 183.885009,105.8363 183.885009,105.8363 C183.885009,105.8363 178.468844,114.406554 175.526634,114.820049 C172.584423,115.233543 168.30378,124.509858 168.30378,124.509858 L163.231004,134.468829 C163.231004,134.468829 160.558041,137.199452 160.889722,138.880735 C161.221404,140.562018 158.817688,142.555373 158.817688,142.555373 C158.817688,142.555373 154.938965,145.894534 155.005301,147.033594 C155.071638,148.172654 152.999603,149.374128 152.999603,149.374128 C152.999603,149.374128 150.127631,154.519401 149.257455,157.261726 C149.191046,157.471139 149.191046,157.69596 149.257455,157.905373 L149.206727,157.928778 C149.206727,157.928778 146.783501,163.390023 146.865446,165.547215 C146.912272,167.185589 145.987465,168.937088 145.550426,169.670455 L145.370928,169.73677 L145.515307,169.73677 C145.406047,169.920112 145.331906,170.029337 145.328004,170.037139 C145.328004,170.037139 134.542501,162.625449 118.766166,166.09334 C102.989831,169.56123 104.043407,178.794636 104.043407,178.794636 C104.043407,178.794636 104.667749,190.154026 109.213737,194.051014 C113.759725,197.948003 116.627795,198.127444 119.195401,201.072615 C121.763006,204.017787 135.151234,205.363594 135.151234,205.363594 C135.151234,205.363594 161.623324,206.697698 175.88563,205.363594 C190.147937,204.02949 196.598167,204.025589 196.598167,204.025589 C196.598167,204.025589 212.265243,202.075144 219.304696,203.311726 C226.344149,204.548308 236.329714,204.20503 236.329714,204.20503 C236.509412,203.868863 236.640778,203.509037 236.719928,203.136186 L236.864307,203.136186 C237.041315,202.812564 237.172634,202.465993 237.25452,202.106351 C240.646621,201.366464 244.088429,200.876238 247.552257,200.639617 C254.857055,200.284636 261.272166,197.433086 261.272166,197.433086 C261.272166,197.433086 266.762472,197.479896 275.003782,203.179096 C283.245093,208.878295 307.809038,205.628854 307.809038,205.628854 L321.361156,204.560011 C321.361156,204.560011 330.269732,203.132285 333.126096,206.877139 C335.982459,210.621993 342.928261,212.045818 345.24613,206.877139 C347.563998,201.70846 358.439251,191.729985 358.439251,191.729985 C358.439251,191.729985 368.424817,186.022984 372.877154,171.238613 C377.329491,156.454242 360.210821,171.948575 358.255851,173.72348 Z M280.419947,114.78104 C281.173059,113.977457 281.789597,113.049045 282.546611,112.245462 C283.568971,111.164915 284.841067,110.341828 285.85172,109.25348 C286.386008,108.686889 286.809524,108.025357 287.100404,107.303035 L287.123816,107.345945 L287.334532,107.903772 C287.361847,107.993492 287.381357,108.079312 287.40477,108.169032 C287.428183,108.258753 287.451596,108.375779 287.471106,108.481103 C287.490617,108.586427 287.494519,108.59813 287.502324,108.656643 C287.525736,108.81658 287.541345,108.980417 287.549149,109.144255 C287.549149,109.21057 287.549149,109.276885 287.549149,109.3432 C287.549149,109.409515 287.549149,109.557749 287.549149,109.666974 C287.549149,109.776199 287.549149,109.842514 287.549149,109.928333 C287.549149,110.08957 287.533541,110.249507 287.502324,110.408143 C287.502324,110.505665 287.475009,110.603187 287.4594,110.700709 C287.443792,110.798232 287.432085,110.868448 287.416477,110.950366 C287.400868,111.032285 287.389162,111.106402 287.369651,111.18442 C287.369651,111.18442 287.369651,111.18442 287.369651,111.207825 C287.33063,111.379464 287.291608,111.551103 287.248685,111.722743 C287.13141,112.180892 286.986771,112.631603 286.815548,113.07245 C286.522887,113.852628 286.1795,114.632806 285.879035,115.412984 C285.79709,115.623632 285.719048,115.838181 285.644907,116.048829 C285.61369,116.14245 285.582473,116.232171 285.547354,116.325792 C285.512234,116.419413 285.481017,116.540341 285.445898,116.645665 L285.445898,116.692476 C285.329019,117.076902 285.233916,117.467611 285.161042,117.862743 C285.159181,117.89262 285.159181,117.922585 285.161042,117.952463 C285.161042,117.979769 285.161042,118.010976 285.161042,118.038283 L285.125923,118.303543 C285.125923,118.303543 285.125923,118.303543 285.125923,118.33475 C285.125923,118.365957 285.125923,118.443975 285.125923,118.494687 C285.125923,118.646821 285.125923,118.795055 285.098608,118.94719 C285.098608,119.025208 285.098608,119.099324 285.098608,119.173441 C285.098608,119.356783 285.098608,119.540125 285.125923,119.719566 C285.125923,119.789782 285.125923,119.863899 285.153238,119.934115 C285.180553,120.004331 285.153238,120.105754 285.180553,120.191574 C285.182368,120.204513 285.182368,120.217643 285.180553,120.230582 C285.180553,120.312501 285.207868,120.390519 285.223476,120.468537 C285.239085,120.546554 285.2664,120.698689 285.289813,120.815716 L285.324932,120.96395 C285.324932,121.041967 285.356149,121.123886 285.379562,121.201904 C285.402974,121.279922 285.406877,121.311129 285.422485,121.365741 C285.438094,121.420354 285.422485,121.44766 285.453702,121.486669 L285.512234,121.697317 C285.512234,121.75583 285.547354,121.814344 285.562962,121.868956 L285.680026,122.259045 C285.719048,122.372171 285.754167,122.485297 285.789286,122.598422 C286.378508,124.408435 287.084795,126.195042 286.799939,127.997253 C286.780178,128.142913 286.752826,128.287443 286.717994,128.430252 C286.347291,129.916491 285.297617,131.117965 284.322083,132.296034 C282.882437,134.017305 281.53058,135.810092 280.271666,137.667558 C279.746434,138.399353 279.286802,139.17604 278.898114,139.988588 C278.804463,140.195335 278.718616,140.405983 278.640573,140.616631 L278.54302,140.87799 C277.871852,142.984471 278.230849,145.270392 278.593747,147.450989 L280.084363,156.399629 C280.131189,156.676593 280.178015,156.953556 280.220938,157.23442 L280.267764,157.54259 L280.302883,157.784445 C280.357513,158.174534 280.404338,158.588028 280.435556,158.98982 C280.435556,159.028829 280.435556,159.071739 280.435556,159.110748 C280.435556,159.274585 280.435556,159.434521 280.458968,159.598359 C280.458968,159.652971 280.458968,159.707584 280.458968,159.762196 C280.458968,159.922133 280.458968,160.078168 280.458968,160.238105 C280.458968,160.284915 280.458968,160.331726 280.458968,160.378537 C280.458968,160.581383 280.458968,160.768626 280.416045,160.983175 C280.416045,160.983175 280.416045,161.014382 280.416045,161.029985 C280.392632,161.236732 280.361415,161.44348 280.322394,161.646326 C280.2756,161.890668 280.213035,162.131727 280.135091,162.36799 C279.749022,163.430142 279.214315,164.432233 278.546922,165.344369 L277.567486,164.993289 C277.567486,164.993289 269.373,154.460887 265.982044,149.666694 C262.591088,144.872501 263.664176,142.539769 263.664176,142.539769 C264.198768,134.16456 257.779755,127.747596 254.572199,126.156034 C253.374244,125.559197 252.277743,124.271904 251.372448,122.89489 C251.667468,122.885611 251.962711,122.903895 252.254331,122.949502 L252.024105,122.387774 C252.102147,122.387774 252.176288,122.387774 252.254331,122.415081 L248.531693,113.357215 C249.429736,112.962914 250.377715,112.693837 251.349035,112.557533 C251.645597,112.510722 251.946062,112.467812 252.242624,112.432704 C254.45519,114.039537 257.029761,115.076539 259.738627,115.451993 C259.906419,115.475398 260.074211,115.4832 260.242003,115.502704 C260.199079,115.561218 260.160058,115.623632 260.124939,115.682145 L260.078113,115.775767 C260.05794,115.813279 260.04097,115.852427 260.027385,115.892793 C260.010254,115.937023 259.997192,115.982723 259.988364,116.029324 C259.988364,116.060532 259.988364,116.083937 259.988364,116.115144 C259.976723,116.194035 259.976723,116.274207 259.988364,116.353098 C261.576533,116.489629 263.328592,116.700277 264.36656,117.913454 C264.564802,118.202812 264.816434,118.451715 265.107966,118.646821 C265.363794,118.745595 265.63823,118.78688 265.911806,118.767749 L267.640452,118.767749 C269.662523,118.804671 271.683283,118.641337 273.673154,118.280138 C276.135402,117.753518 278.632769,116.66907 280.419947,114.78104 Z M247.618593,113.887736 C247.866426,113.681618 248.139094,113.507324 248.430237,113.368918 C248.34439,113.419629 248.059535,113.59907 247.618593,113.887736 Z M258.9582,173.017419 C251.001745,168.215424 246.124075,170.165868 246.124075,170.165868 L245.234388,170.165868 C241.332252,170.165868 210.825354,168.574305 210.825354,168.574305 L210.294664,168.574305 C210.471216,168.558698 210.648802,168.558698 210.825354,168.574305 C210.825354,168.574305 210.548303,166.768194 209.927863,165.78907 C209.873077,165.703585 209.813133,165.621514 209.748365,165.543314 C210.111264,163.982959 210.844865,160.339528 210.692682,157.445068 C210.489771,153.6378 210.692682,150.162107 210.692682,150.162107 C218.98472,153.013657 230.429685,147.271548 230.593575,147.181828 C239.568487,144.665754 243.080409,146.643505 243.080409,146.643505 C243.7945,149.850036 251.817291,163.393924 251.817291,163.393924 C251.817291,163.393924 259.125992,168.917584 261.962845,173.196859 C262.377246,173.807498 262.846117,174.379364 263.363711,174.905449 C262.918868,174.753314 262.493535,174.60118 262.091615,174.449045 C261.008024,174.062507 259.959691,173.583534 258.9582,173.017419 Z"/>
      <path fill="#9A6F6F" fill-rule="nonzero" d="M343.669667,99.4427425 C329.1147,105.961129 320.346601,81.9472533 320.346601,81.9472533 C320.346601,81.9472533 315.792808,77.7381936 302.463112,78.7914338 C289.133416,79.8446739 267.570214,76.3338734 267.570214,76.3338734 C267.570214,76.3338734 259.504499,83.8781936 249.159937,84.393111 C249.159937,84.393111 241.62101,87.0223105 240.575238,89.1287908 C239.72067,90.8373804 238.16762,94.4066942 237.613517,95.6744833 C237.581458,95.7690161 237.543667,95.8615085 237.500355,95.9514465 C237.445725,96.072374 237.422312,96.1386892 237.422312,96.1386892 L236.989175,96.3415354 L228.303021,100.511586 L216.381996,103.846847 L208.839167,104.720646 L196.040162,95.8539242 C196.040162,95.8539242 197.519071,94.4730094 199.692561,92.7332127 C203.013278,90.1001123 207.933872,86.6595278 211.648705,86.1290068 C211.648705,86.1290068 216.690265,82.9419801 220.065612,79.6457286 C221.318198,78.4169484 234.437178,72.4368848 245.714351,68.1186002 C255.113993,64.5198816 264.938664,62.1480816 274.94525,61.0618912 L312.987173,69.0938226 C317.166907,69.9746145 321.152749,71.6041246 324.752112,73.9036193 C335.073262,80.546834 354.634669,94.5354236 343.669667,99.4427425 Z"/>
      <g fill="#000" fill-rule="nonzero" opacity=".1" transform="translate(196.185 60.933)">
        <path d="M1.6115821 35.9857052C1.6115821 35.9857052 3.09049158 34.6008895 5.26398124 32.8649936 8.58469884 30.2318933 13.5052921 26.7913088 17.2201254 26.2607878 17.2201254 26.2607878 22.261685 23.0737611 25.6370325 19.7775095 26.8896181 18.5448285 40.0085987 12.5686658 51.2857713 8.25038119 60.6862822 4.66049356 70.5111537 2.29913436 80.5166709 1.22487929L118.558593 9.25290978C122.737539 10.1343625 126.722209 11.765256 130.319631 14.0666074 130.925762 14.4540957 131.557908 14.8636891 132.216069 15.2953875 130.986896 14.468399 129.816255 13.6999238 128.743168 13.0133672 125.145191 10.7139225 121.160636 9.08439819 116.98213 8.20357052L78.940208.171639136C68.9335396 1.25735768 59.1088085 3.62917208 49.7093084 7.22834816 38.4282337 11.5466328 25.309253 17.5266963 24.0605696 18.7554765 20.6813199 22.0517281 15.6436626 25.2387548 15.6436626 25.2387548 11.9288293 25.7692757 7.00433383 29.2098602 3.68751837 31.8429606 1.5140287 33.5710546.0351192225 34.9636722.0351192225 34.9636722L12.8341248 43.8303939 12.8848525 43.8303939 1.6115821 35.9857052zM125.929728 22.0634307C125.450503 21.6736457 124.926525 21.342335 124.368873 21.0765057 124.720066 22.0049174 129.160696 33.5047395 136.734742 37.9205464 129.827961 32.7362643 125.929728 22.0634307 125.929728 22.0634307z"/>
      </g>
      <path fill="#AD5975" fill-rule="nonzero" d="M295.162216,139.344941 C295.113759,139.546711 295.055152,139.745909 294.98662,139.941777 C294.955403,140.0432 294.91248,140.144623 294.87736,140.242145 C294.778126,140.48583 294.666109,140.724115 294.541777,140.956008 C294.491049,141.061332 294.432517,141.166656 294.381789,141.268079 C294.369284,141.2913 294.35493,141.313476 294.338866,141.334394 C294.284236,141.435818 294.229606,141.529439 294.171074,141.62306 C293.78086,142.286211 293.328212,142.918155 292.895075,143.573505 C292.750696,143.784153 292.606317,143.998702 292.469743,144.217152 C292.445258,144.261798 292.417885,144.304799 292.387798,144.345881 C292.313657,144.466809 292.235614,144.595538 292.165376,144.73597 C292.095137,144.876402 292.040508,144.946618 291.985878,145.051942 C291.931248,145.157266 291.923443,145.161167 291.896129,145.215779 L291.728337,145.539553 C291.532633,145.946029 291.37711,146.370641 291.263983,146.807342 C290.663054,149.284407 291.724435,151.823886 292.586807,154.219032 C294.327159,159.079541 295.287085,164.51738 293.640383,169.370087 C293.601362,169.483213 293.562341,169.600239 293.519417,169.717266 C293.476494,169.834293 293.402353,170.025436 293.339919,170.177571 C293.246268,170.411624 293.14091,170.641777 293.023846,170.871929 C292.134159,172.603924 290.608424,174.160379 288.731496,173.992641 C286.152185,173.766389 284.899599,170.606669 282.550513,169.530023 C280.509696,168.59381 277.930384,169.358384 276.006631,168.203721 C276.166958,167.677825 276.385531,167.171472 276.658288,166.694077 C277.005578,166.054331 277.438715,165.441891 277.828929,164.833352 C278.483541,163.934507 279.008934,162.948396 279.389783,161.903784 C279.464611,161.670879 279.525847,161.433826 279.573184,161.193823 C279.575389,161.175685 279.575389,161.157348 279.573184,161.13921 C279.592694,161.018283 279.616107,160.905157 279.631716,160.784229 C279.647324,160.663302 279.662933,160.554077 279.674639,160.429248 C279.6767,160.408494 279.6767,160.387588 279.674639,160.366834 C279.674639,160.230303 279.674639,160.093772 279.701954,159.95334 C279.705868,158.635372 279.575119,157.320451 279.31174,156.029045 C278.825274,153.095576 278.336206,150.162107 277.844537,147.228638 C277.485541,145.083149 277.134349,142.836237 277.797712,140.764865 C277.84844,140.616631 277.903069,140.468397 277.957699,140.324064 C278.012329,140.179731 278.078666,140.031497 278.145002,139.891065 C278.528231,139.092815 278.979969,138.329282 279.495141,137.609045 C280.733419,135.78863 282.061446,134.026728 283.479222,132.32334 C284.439147,131.153073 285.469311,129.982806 285.820503,128.523873 C285.858473,128.382871 285.88715,128.239531 285.90635,128.094776 C286.132674,126.686554 285.734656,125.282234 285.2664,123.874013 C285.206567,123.710176 285.151937,123.546338 285.10251,123.382501 C284.93862,122.898791 284.774731,122.41118 284.634254,121.915767 C284.587428,121.75583 284.544505,121.591993 284.501581,121.428155 C284.418404,121.10017 284.351982,120.768165 284.302572,120.433429 C284.250587,120.102975 284.2219,119.769276 284.216725,119.434801 C284.216725,119.278765 284.216725,119.118829 284.216725,118.962793 C284.216725,118.806758 284.216725,118.72874 284.247942,118.607812 C284.279159,118.486885 284.283062,118.358155 284.302572,118.217723 C284.322083,118.077291 284.333789,118.030481 284.3533,117.936859 C284.372811,117.843238 284.411832,117.652095 284.450853,117.515563 C284.472972,117.403075 284.502962,117.292278 284.540602,117.183988 C284.560113,117.094267 284.587428,117.004547 284.610841,116.918727 L284.712296,116.606656 L284.872284,116.154153 C284.923012,116.005919 284.981544,115.853784 285.040076,115.705551 C285.332736,114.925373 285.66832,114.145195 285.96098,113.396224 C286.125526,112.963069 286.267494,112.521676 286.386313,112.073823 C286.386313,112.073823 286.386313,112.073823 286.386313,112.073823 C286.386313,111.991904 286.429236,111.902183 286.448747,111.816364 C286.472794,111.730322 286.492331,111.643083 286.507279,111.555004 C286.534442,111.447085 286.555289,111.337675 286.569713,111.22733 C286.597028,111.082997 286.624343,110.930862 286.639952,110.782628 C286.65556,110.634394 286.671169,110.48226 286.682875,110.330125 C286.694581,110.17799 286.682875,110.029757 286.682875,109.881523 C286.689585,109.353055 286.614559,108.826725 286.460453,108.321167 C286.402461,108.114778 286.326738,107.913785 286.234129,107.72043 C286.166403,107.586849 286.092173,107.456663 286.011708,107.330341 C285.512234,106.518956 284.735709,105.898715 284.283062,105.052222 C284.015998,104.532644 283.881929,103.954992 283.892848,103.370938 C283.89145,103.211748 283.901885,103.052674 283.924065,102.89503 C283.947606,102.733711 283.984145,102.574557 284.033325,102.419121 C284.049415,102.356501 284.070287,102.295207 284.095759,102.235779 C284.124375,102.170765 284.15169,102.10835 284.177704,102.048537 C284.215964,101.970561 284.258968,101.895002 284.306474,101.822285 C284.345496,101.771574 284.380615,101.716961 284.419636,101.67015 C284.833263,101.147431 285.496626,100.889973 286.405823,101.155233 L286.628245,101.22935 C287.148136,101.396173 287.650092,101.614402 288.126665,101.880798 C289.574295,102.705879 290.806905,103.860581 291.724435,105.251167 C293.32431,107.661917 294.007184,110.579782 294.206193,113.46644 C294.327098,114.696244 294.265295,115.937164 294.022793,117.14888 C294.022793,117.199591 293.995478,117.258105 293.987673,117.308816 C293.956456,117.425843 293.929141,117.54287 293.89012,117.655995 C293.653248,118.364074 293.379729,119.05937 293.070671,119.73907 C293.070671,119.73907 293.070671,119.73907 293.070671,119.73907 C292.820206,120.302801 292.629268,120.89112 292.50096,121.494471 C292.134159,123.499528 292.934097,125.500684 293.581851,127.431624 C294.19548,129.264736 294.683082,131.137625 295.04125,133.037203 C295.493898,135.13198 295.712417,137.328181 295.162216,139.344941 Z"/>
      <g fill="#000" fill-rule="nonzero" opacity=".1" transform="translate(275.788 101.502)">
        <path d="M17.3371895 18.24446C17.6481975 17.5624468 17.923029 16.8645197 18.1605402 16.1535832 18.211268 15.985845 18.2580936 15.8181067 18.2971149 15.6464676 17.8987904 16.4814875 17.5774842 17.3510873 17.3371895 18.24446zM10.3055407 5.82792884C11.1718149 7.23224905 11.0859679 8.94864041 10.656733 10.5987166 10.6879501 10.5128971 10.7230693 10.4309784 10.7542864 10.3451588 11.4995943 8.3947141 11.9249271 6.05418043 10.8323291 4.2519695 10.3289536 3.4405845 9.54852639 2.81644219 9.09978077 1.97385006 8.81390263 1.41630316 8.67935228.793533986 8.70956719.167738247 8.05010623.986925032 8.0032806 2.45365947 8.59250311 3.55371029 9.02173806 4.39630241 9.80216522 5.01654384 10.3055407 5.82792884zM16.0221697 43.7445743C16.0026591 43.8303939 15.9870505 43.9162135 15.971442 44.0059339 16.8299119 42.1842186 18.3439406 40.6394663 19.0931507 38.7514358 19.2508286 38.3555828 19.3748356 37.9471431 19.4638536 37.5304574 18.4610046 39.6798475 16.5606645 41.4235451 16.0221697 43.7445743zM18.0785953 67.114803C17.2747554 69.0964549 15.6007391 71.1132147 13.4662708 70.925972 10.886959 70.7036213 9.63827552 67.5439009 7.28528761 66.4633545 5.28739406 65.5466455 2.77441858 66.2566074.866274156 65.2072681.595130868 65.6854673.376635915 66.1916382.214617471 66.7169123 2.13837044 67.8871792 4.71768223 67.1070013 6.75849927 68.0393139 9.09978077 69.1198602 10.3601706 72.2834816 12.9394824 72.5058323 15.0739507 72.6891741 16.747967 70.6724142 17.551807 68.6907624 17.7672099 68.1559047 17.9509281 67.6088337 18.1020081 67.0523888L18.0785953 67.114803zM3.55484575 54.5422363C3.83970166 56.2508259 4.12065544 58.0257306 3.78507176 59.707014 3.91599799 59.4256265 4.02937669 59.1364078 4.12455758 58.8410165 4.7254865 56.9568869 4.40551136 54.9167217 4.08163409 52.966277 3.59516782 50.0328081 3.10610013 47.098039 2.61443101 44.1619695 2.29835801 42.2544346 1.98618714 40.2610801 2.38810713 38.4003558 2.25459788 38.6855905 2.13861911 38.9787016 2.04081704 39.2780559 1.37745395 41.3494282 1.73254831 43.5924396 2.08764267 45.7379288 2.57931179 48.6765989 3.06837948 51.6113681 3.55484575 54.5422363zM10.6021031 25.4611055C11.3552153 22.441817 9.04124873 19.4810419 8.99832524 16.372033 9.00476808 15.6488785 9.10845335 14.9298737 9.30659397 14.2343456 8.79661657 15.409752 8.51456821 16.6712836 8.47543904 17.9518933 8.50275399 20.9165693 10.6138095 23.7447141 10.1572596 26.6235705 10.3483942 26.2538574 10.4976012 25.8639494 10.6021031 25.4611055z"/>
      </g>
      <path fill="#9A6F6F" fill-rule="nonzero" d="M370.672447,170.641777 C366.290348,185.188194 356.468672,190.797673 356.468672,190.797673 C356.468672,190.797673 345.772918,200.616211 343.490169,205.710773 C341.207419,210.805335 334.374779,209.393213 331.573046,205.710773 C328.771312,202.028333 319.999311,203.436554 319.999311,203.436554 L306.669615,204.485894 C306.669615,204.485894 282.515394,207.688524 274.406756,202.079045 C266.298117,196.469566 260.905366,196.426656 260.905366,196.426656 C260.905366,196.426656 254.59171,199.227495 247.407878,199.582476 C243.995193,199.809741 240.604052,200.289565 237.262325,201.018003 C235.401006,201.408092 233.773815,201.798181 232.607077,202.075144 C231.440338,202.352107 230.745758,202.558854 230.745758,202.558854 L212.889584,200.760544 L196.024553,199.055856 L186.909164,197.823175 L184.517155,192.619388 L182.214894,187.618448 L181.434467,185.909858 L182.527065,168.039884 L211.285806,168.039884 C211.285806,168.039884 241.277622,169.600239 245.129031,169.600239 L246.003109,169.600239 C246.003109,169.600239 250.798834,167.681002 258.626518,172.401078 C259.624543,172.960628 260.668982,173.433086 261.748227,173.8132 C274.188236,178.459159 309.139667,184.497736 309.139667,184.497736 L331.772055,183.093416 C331.772055,183.093416 344.49692,178.459159 351.672947,175.404763 C354.064957,174.38273 355.844331,173.536237 356.320391,173.103238 C358.220731,171.343937 375.054545,156.091459 370.672447,170.641777 Z"/>
      <path fill="#67647E" fill-rule="nonzero" d="M332.144264,206.485535 C329.342531,202.803095 319.999311,203.436554 319.999311,203.436554 L306.669615,204.485894 C306.669615,204.485894 282.515394,207.688524 274.406756,202.079045 C266.298117,196.469566 260.905366,196.426656 260.905366,196.426656 C260.905366,196.426656 254.59171,199.227495 247.407878,199.582476 C243.995193,199.809741 240.604052,200.289565 237.262325,201.018003 C235.401006,201.408092 233.773815,201.798181 232.607077,202.075144 C231.440338,202.352107 230.745758,202.558854 230.745758,202.558854 L212.889584,200.760544 L196.024553,199.055856 L186.909164,197.823175 L184.517155,192.619388 L182.214894,187.618448 L181.434467,185.909858 L182.527065,168.039884 L211.285806,168.039884 C211.285806,168.039884 241.277622,169.600239 245.129031,169.600239 L246.003109,169.600239 C246.003109,169.600239 250.798834,167.681002 258.626518,172.401078 C259.624543,172.960628 260.668982,173.433086 261.748227,173.8132 C274.188236,178.459159 309.139667,184.497736 309.139667,184.497736 L331.772055,183.093416 C331.772055,183.093416 334.945998,210.167975 332.144264,206.485535 Z"/>
      <path fill="#000" fill-rule="nonzero" d="M192.411175,185.605589 L193.796434,190.536313 L189.059241,193.103098 L184.521057,192.603784 L182.218797,187.602844 L181.438369,185.894255 L182.530967,168.02428 L211.270198,168.02428 C205.272615,168.562603 192.411175,185.605589 192.411175,185.605589 Z" opacity=".1"/>
      <path fill="#67647E" fill-rule="nonzero" d="M191.884387,185.605589 L193.269645,190.536313 L188.536354,193.103098 L176.568504,191.788499 L170.122175,186.596415 C159.586409,169.506618 146.845935,169.432501 146.845935,169.432501 C146.845935,169.432501 148.4263,167.127075 148.359964,165.024496 C148.293628,162.921917 150.677833,157.530887 150.677833,157.530887 L150.904156,157.421662 C151.707996,157.031574 154.435589,155.681866 154.607283,155.623352 C154.607283,155.623352 208.718201,164.365246 209.771778,164.696821 C210.043714,164.809648 210.266475,165.01574 210.400022,165.278054 C211.012657,166.237673 211.285806,168.008676 211.285806,168.008676 C205.57308,167.482056 191.884387,185.605589 191.884387,185.605589 Z"/>
      <path fill="#9A6F6F" fill-rule="nonzero" d="M255.824785,112.619947 C254.234895,112.586631 252.645019,112.687108 251.071983,112.920316 C248.45365,113.345513 245.944577,114.340239 247.056686,116.653467 C249.159937,121.034166 235.834143,128.746224 235.834143,128.746224 L217.244368,140.667342 L205.670633,123.136745 L211.636999,108.937507 L228.291314,100.523289 L237.414508,96.1464909 C237.414508,96.1464909 241.027886,97.4610907 244.204224,97.3869738 C245.671427,97.3557667 247.048881,97.028092 247.934666,96.1464909 C250.7364,93.3417514 255.824785,112.619947 255.824785,112.619947 Z"/>
      <path fill="#000" fill-rule="nonzero" d="M255.824785,112.619947 C254.234895,112.586631 252.645019,112.687108 251.071983,112.920316 C246.681087,109.837376 244.071003,104.806706 244.079356,99.4427425 C244.077457,98.7555362 244.119163,98.0689015 244.204224,97.3869738 C245.671427,97.3557667 247.048881,97.028092 247.934666,96.1464909 C250.7364,93.3417514 255.824785,112.619947 255.824785,112.619947 Z" opacity=".1"/>
      <path fill="#9A6F6F" fill-rule="nonzero" d="M278.090372,99.4427425 C278.091407,103.812809 276.355843,108.004301 273.265483,111.095136 C270.175124,114.185972 265.983115,115.922966 261.611652,115.924 C260.847926,115.924257 260.085127,115.870813 259.328903,115.764064 C250.744202,114.574592 244.547366,106.94216 245.148915,98.2990571 C245.750465,89.655954 252.944892,82.9549429 261.611652,82.9653855 C262.242617,82.9670891 262.873047,83.0022465 263.500286,83.0707095 C271.815476,84.0350621 278.088697,91.0744577 278.090372,99.4427425 Z"/>
      <path fill="#000" fill-rule="nonzero" d="M351.735382,175.724636 C351.735382,177.815513 340.618197,182.063581 331.030649,185.340328 C324.305737,187.581878 317.235236,188.608232 310.15032,188.371319 C309.577585,188.341838 309.003549,188.393052 308.445087,188.523454 C305.815047,189.221713 271.624533,181.158575 271.624533,181.158575 C271.624533,181.158575 264.643612,177.920837 261.756031,173.805398 C274.19604,178.451358 309.147471,184.489934 309.147471,184.489934 L331.779859,183.085614 C331.779859,183.085614 344.504724,178.451358 351.680752,175.396961 C351.728618,175.499129 351.747514,175.612471 351.735382,175.724636 Z" opacity=".1"/>
      <path fill="#9A6F6F" fill-rule="nonzero" d="M248.633149,118.268435 C248.633149,118.268435 251.087592,124.716605 254.24442,126.292565 C257.401248,127.868524 263.711001,134.180163 263.188115,142.418842 C263.188115,142.418842 262.134539,144.700862 265.466963,149.440443 C268.799387,154.180023 276.865101,164.51348 276.865101,164.51348 C276.865101,164.51348 293.343821,170.298499 298.6039,173.805398 L298.623411,173.805398 C302.759416,174.399238 306.824257,175.412183 310.755151,176.828588 C313.002781,177.608765 315.753787,178.361637 318.24335,178.361637 C323.679025,178.361637 351.735382,171.000659 351.735382,174.679197 C351.735382,176.773975 340.618197,181.022044 331.026747,184.298791 C324.302084,186.534777 317.233168,187.55713 310.15032,187.318079 C309.577622,187.290521 309.003852,187.341711 308.445087,187.470214 C305.815047,188.168473 271.620631,180.105335 271.620631,180.105335 C271.620631,180.105335 264.413386,176.777876 261.60775,172.553213 C258.802114,168.328549 251.618282,162.929718 251.618282,162.929718 C251.618282,162.929718 243.728164,149.608181 243.033584,146.452361 C243.033584,146.452361 239.002677,144.174242 228.478617,147.677241 C217.954557,151.180239 226.188063,139.785741 226.188063,139.785741 L237.937394,126.132628 L248.633149,118.268435 Z"/>
      <path fill="#000" fill-rule="nonzero" d="M251.965573,123.140646 L248.301467,114.231014 C244.887812,116.397404 241.708694,118.912694 238.815375,121.736326 C234.429374,126.117025 231.448142,128.757927 229.344891,129.272844 C227.24164,129.787762 220.053906,133.446796 217.072674,125.925881 C214.091442,118.404966 215.316713,113.322107 218.122348,110.868448 C220.927984,108.414788 239.911875,96.8759573 239.911875,96.8759573 L237.41841,96.6848137 C237.41841,96.6848137 220.06171,102.758499 214.626035,99.9849662 C214.626035,99.9849662 204.979955,101.596034 202.876704,98.0891339 C200.773452,94.5822343 198.787265,94.028308 198.787265,94.028308 L186.04289,111.235131 L190.604486,149.272704 L202.349915,149.272704 L214.973325,144.365385 L231.807139,142.961065 C231.807139,142.961065 238.120795,137.000506 238.998775,134.195767 C239.876756,131.391027 246.545506,122.262946 251.965573,123.140646 Z" opacity=".1"/>
      <path fill="#124F69" fill-rule="nonzero" d="M251.965573,122.621828 L248.301467,113.712196 C244.887812,115.878586 241.708694,118.393876 238.815375,121.217507 C234.429374,125.602107 231.448142,128.239108 229.344891,128.754026 C227.24164,129.268943 220.053906,132.927978 217.072674,125.407063 C214.091442,117.886148 215.316713,112.803289 218.122348,110.349629 C220.927984,107.89597 239.911875,96.8759573 239.911875,96.8759573 L237.41841,96.1620945 C237.41841,96.1620945 220.06171,102.231878 214.626035,99.4583461 C214.626035,99.4583461 204.979955,101.069413 202.876704,97.5625138 C200.773452,94.0556142 198.787265,93.5016879 198.787265,93.5016879 L186.04289,110.708511 L190.604486,148.746084 L202.349915,148.746084 L214.973325,143.838765 L231.807139,142.434445 C231.807139,142.434445 238.120795,136.477787 238.998775,133.673047 C239.876756,130.868308 246.545506,121.736326 251.965573,122.621828 Z"/>
      <path fill="#000" fill-rule="nonzero" d="M210.400022,165.285856 C210.197111,166.253276 210.033221,166.873518 210.033221,166.873518 C210.033221,166.873518 209.311326,166.608257 200.437869,168.320748 C191.564412,170.033238 182.749487,168.320748 182.749487,168.320748 C177.595747,167.723388 172.495143,166.733587 167.492136,165.359973 C159.867362,163.191078 149.87009,160.624293 150.712952,157.948283 C150.767582,157.792247 150.822212,157.616707 150.888548,157.445068 C151.692388,157.054979 154.419981,155.705271 154.591675,155.646758 C154.591675,155.646758 208.702592,164.388651 209.756169,164.720227 C210.031361,164.826035 210.259696,165.026629 210.400022,165.285856 Z" opacity=".1"/>
      <path fill="#000" fill-rule="nonzero" d="M248.301467,114.231014 L251.345133,121.108283 C251.345133,121.108283 246.66257,118.623416 240.676694,128.812539 C234.690817,139.001662 233.902586,140.448892 233.902586,140.448892 C233.902586,140.448892 229.696083,143.319947 230.74966,146.978981 C230.74966,146.978981 218.286238,151.26996 210.06834,148.434013 C210.06834,148.434013 208.226532,153.98888 208.425541,157.737635 C208.54829,159.739234 208.558712,161.746139 208.456758,163.748905 C208.456758,163.748905 210.798039,161.974 201.916778,163.686491 C193.035517,165.398981 184.228397,164.899668 184.228397,164.899668 C179.382793,164.109523 174.58588,163.045474 169.860732,161.712641 C162.232057,159.543746 150.396879,160.101574 151.251447,157.421662 C152.106014,154.741751 154.935063,149.666694 154.935063,149.666694 C154.935063,149.666694 156.971978,148.496427 156.886131,147.365169 C156.800284,146.233912 160.636083,142.961065 160.636083,142.961065 C160.636083,142.961065 163.000778,140.991116 162.672998,139.344941 C162.345219,137.698765 164.975258,135.007152 164.975258,135.007152 L169.973894,125.215919 C169.973894,125.215919 174.180397,116.076135 177.075782,115.682145 C179.971166,115.288155 185.29368,106.873937 185.29368,106.873937 C185.29368,106.873937 194.760261,99.251599 194.826597,97.6717387 C194.892934,96.0918785 199.559888,93.2676345 199.559888,93.2676345 C199.559888,93.2676345 200.313,99.7197057 206.583733,99.9849662 C212.854465,100.250227 221.138699,99.9849662 221.138699,99.9849662 L237.406704,96.1620945 C237.406704,96.1620945 230.281404,102.602463 228.634702,103.062768 C226.988001,103.523073 222.040093,107.072882 219.519313,107.743835 C216.998533,108.414788 211.875029,111.855373 212.074038,116.770493 C212.273047,121.685614 213.982182,124.182183 213.982182,124.182183 C213.982182,124.182183 219.109589,133.934407 224.236995,132.76414 C224.236995,132.76414 229.965331,133.072311 232.259787,129.674636 C234.554242,126.276961 248.301467,114.231014 248.301467,114.231014 Z" opacity=".1"/>
      <path fill="#000" fill-rule="nonzero" d="M237.937394,95.6198709 L237.492551,95.9592483 L236.981371,96.3493372 L228.295217,100.519388 L216.374192,103.854649 L208.831363,104.728448 L196.032357,95.861726 C196.032357,95.861726 197.511267,94.4808111 199.684757,92.7410145 C200.035949,94.3013702 201.468033,98.68597 206.595439,98.9005189 C212.858367,99.1696803 221.150406,98.9005189 221.150406,98.9005189 L237.609615,95.6666815 L237.937394,95.6198709 Z" opacity=".1"/>
      <path fill="#F1F3F4" fill-rule="nonzero" d="M248.301467,113.704394 L251.345133,121.116084 C251.345133,121.116084 246.135782,118.108499 240.149905,128.297622 C234.164029,138.486745 233.3797,139.930074 233.3797,139.930074 C233.3797,139.930074 229.696083,143.327749 230.74966,146.986783 C230.74966,146.986783 219.371032,152.748397 211.153134,149.920252 C211.153134,149.920252 210.958027,153.341332 211.153134,157.086186 C211.348241,160.83104 210.037123,165.828079 210.037123,165.828079 C210.037123,165.828079 209.311326,165.56672 200.433967,167.275309 C191.556608,168.983899 182.749487,167.275309 182.749487,167.275309 C177.59567,166.680388 172.49498,165.691874 167.492136,164.318435 C159.867362,162.149541 149.87009,159.582755 150.712952,156.906745 C151.555813,154.230735 154.396568,149.147876 154.396568,149.147876 C154.396568,149.147876 156.433483,147.977609 156.371049,146.846351 C156.308615,145.715093 160.117099,142.442247 160.117099,142.442247 C160.117099,142.442247 162.485696,140.491802 162.154014,138.830023 C161.822333,137.168244 164.456274,134.488333 164.456274,134.488333 L169.45491,124.697101 C169.45491,124.697101 173.661413,115.557317 176.556797,115.163327 C179.452182,114.769337 184.774696,106.355119 184.774696,106.355119 C184.774696,106.355119 194.256886,98.7093753 194.31932,97.1295151 C194.381754,95.5496549 199.056513,92.7254109 199.056513,92.7254109 C199.056513,92.7254109 199.805723,99.1774821 206.080357,99.4427425 C212.354992,99.708003 220.639226,99.4427425 220.639226,99.4427425 L237.41841,96.1464909 C237.41841,96.1464909 229.770224,102.060239 228.127425,102.520544 C226.484625,102.980849 221.528913,106.530659 219.008133,107.201612 C216.487353,107.872565 211.359947,111.344356 211.555054,116.275081 C211.750161,121.205805 213.463198,123.68677 213.463198,123.68677 C213.463198,123.68677 218.590605,133.415589 223.721913,132.233619 C223.721913,132.233619 229.446347,132.537889 231.740802,129.144115 C234.035258,125.750341 248.301467,113.704394 248.301467,113.704394 Z"/>
      <path fill="#000" fill-rule="nonzero" d="M197.281041 137.554432C197.281041 137.554432 203.723467 149.51846 206.681286 150.817457 209.639105 152.116453 209.049883 149.896847 209.049883 149.896847 209.049883 149.896847 198.201945 140.17583 197.281041 137.554432zM184.852738 146.627901C184.852738 146.627901 191.166394 156.684394 195.833348 156.684394L184.852738 146.627901zM170.976743 134.203568C170.976743 134.203568 178.343976 157.472374 191.888289 159.313594 191.888289 159.313594 174.199907 146.300227 170.976743 134.203568zM172.291763 154.316554C172.291763 154.316554 184.458623 163.979058 191.888289 162.535729 191.888289 162.535729 179.198543 160.366834 172.291763 154.316554zM163.262221 170.895335C163.262221 170.895335 175.425178 180.557838 182.858747 179.110608 182.858747 179.110608 170.165099 176.941713 163.262221 170.895335zM166.442461 176.379985C166.442461 176.379985 178.605419 186.042488 186.035085 184.599159 186.035085 184.599159 173.34534 182.430265 166.442461 176.379985zM168.280367 167.482056C168.280367 167.482056 180.443325 177.132857 187.872991 175.673924 187.872991 175.673924 175.183246 173.516732 168.280367 167.482056z" opacity=".1"/>
      <polygon fill="#000" fill-rule="nonzero" points="224.303 110.276 216.679 120.071 217.728 122.041" opacity=".1"/>
      <path fill="#000" fill-rule="nonzero" d="M278.090372,99.4427425 C278.091407,103.812809 276.355843,108.004301 273.265483,111.095136 C270.175124,114.185972 265.983115,115.922966 261.611652,115.924 C260.847926,115.924257 260.085127,115.870813 259.328903,115.764064 C259.572109,115.486616 259.775658,115.176796 259.933734,114.843454 C260.421501,113.482044 258.37288,112.06212 259.016732,110.759223 C259.348414,110.064865 260.242003,109.889324 261.010723,109.86982 C261.779444,109.850316 262.634012,109.86982 263.192017,109.339299 C263.83587,108.719058 263.746121,107.697025 263.91001,106.819324 C264.167551,105.48522 265.104064,104.373467 266.122521,103.46456 C267.140979,102.555652 268.280402,101.771574 269.158383,100.733937 C270.50462,99.1345723 271.136766,97.0436955 271.304558,94.9606206 C271.413818,93.6148137 271.304558,92.1831873 270.594369,91.0597311 C269.813942,89.8543563 268.475509,89.1756015 267.250239,88.4344325 C266.110514,87.8042104 265.11816,86.9385057 264.339245,85.8949535 C263.839772,85.1615862 263.340298,84.0186256 263.500286,83.0902139 C271.808086,84.0537016 278.078802,91.0819033 278.090372,99.4427425 Z" opacity=".1"/>
      <path fill="#AD5975" fill-rule="nonzero" d="M287.127719,100.250227 C287.063139,100.523788 286.959308,100.786569 286.81945,101.030405 C286.780428,101.100621 286.733603,101.174737 286.690679,101.248854 L286.452649,101.611637 C286.077476,102.080657 285.828924,102.638043 285.730754,103.230506 C285.683928,103.952171 286.078044,104.611421 286.335585,105.297978 L286.378508,105.418905 C286.413768,105.516032 286.443729,105.615 286.468258,105.715373 C286.627327,106.393691 286.574205,107.104479 286.316074,107.751637 C286.0338,108.473834 285.61666,109.13575 285.086901,109.702082 C284.091857,110.774826 282.839271,111.586211 281.836422,112.647253 C281.087212,113.427431 280.482381,114.351942 279.740975,115.139922 C277.985014,116.996745 275.526669,118.061688 273.0254,118.568804 C271.067353,118.921463 269.07954,119.082162 267.090251,119.048613 L265.392822,119.048613 C265.127027,119.064452 264.860921,119.023219 264.612395,118.927685 C264.325728,118.735389 264.078124,118.490511 263.882695,118.206021 C262.860336,117.035754 261.1512,116.813403 259.590346,116.680773 C259.55741,116.380109 259.650663,116.079253 259.847887,115.849884 C260.100315,115.550795 260.315225,115.221983 260.487837,114.87076 C260.979506,113.505449 258.926983,112.089426 259.574737,110.778727 C259.634587,110.655588 259.716597,110.544513 259.81667,110.451053 C259.88203,110.385371 259.953944,110.326551 260.031287,110.275513 C260.500341,110.012101 261.030789,109.877512 261.568729,109.885424 C261.857487,109.885424 262.157951,109.885424 262.450612,109.850316 C262.915086,109.832036 263.360109,109.659027 263.714904,109.358804 C264.358756,108.746364 264.269007,107.72043 264.432897,106.846631 C264.690437,105.504725 265.62695,104.396872 266.645408,103.491866 C267.663865,102.586859 268.803289,101.79888 269.681269,100.761243 C271.027506,99.1657794 271.659652,97.0671009 271.827444,94.9918277 C271.936704,93.6460208 271.827444,92.2104935 271.117255,91.0909382 C270.438284,90.0376981 269.322273,89.3862495 268.233577,88.7504045 L267.773125,88.4773423 C266.92743,87.9898993 266.151661,87.390215 265.466963,86.6946358 C265.254156,86.4355595 265.059869,86.1618198 264.885544,85.875449 C264.397777,85.1576854 263.913912,84.0537336 264.034879,83.1448264 C264.03957,83.0841586 264.050023,83.0240744 264.066096,82.9653855 C264.296322,81.9628569 265.287464,81.9511542 266.227879,81.8263258 C266.481518,81.7951186 266.731255,81.7678124 266.984893,81.7522089 C267.359191,81.7307496 267.734411,81.7307496 268.108708,81.7522089 C269.71219,81.8122484 271.280066,82.2421418 272.689816,83.0082953 C273.212702,83.2930602 273.712176,83.6246358 274.25067,83.8703918 C275.530571,84.4438226 276.982165,84.5179395 278.301087,84.9392355 C280.970148,85.7740259 283.042182,87.958524 284.357202,90.4238861 C285.672222,92.8892483 286.327781,95.6393753 286.971633,98.3543944 C287.162697,98.9671342 287.215996,99.6145032 287.127719,100.250227 Z"/>
      <path fill="#000" fill-rule="nonzero" d="M237.266227,201.002399 C237.184723,201.357203 237.053347,201.698673 236.876013,202.016631 C236.876013,202.016631 235.135661,202.079045 232.583664,202.059541 C229.099057,202.032234 224.119931,201.852793 220.096829,201.142831 C217.697853,200.79728 215.272786,200.666731 212.850563,200.752743 L195.985532,199.048054 L186.870142,197.815373 L182.187579,187.610646 C184.895662,187.75888 187.229139,187.653556 187.229139,187.653556 C192.407273,182.746237 197.226411,183.534216 199.856451,185.664102 C202.48649,187.793988 207.399279,189.490875 207.746569,189.490875 C207.980697,189.490875 215.734241,189.654712 220.721171,189.756135 C224.58421,189.813606 228.372852,190.826804 231.748607,192.705208 C237.570593,195.958549 237.65644,199.360125 237.266227,201.002399 Z" opacity=".1"/>
      <path fill="#9A6F6F" fill-rule="nonzero" d="M150.67393,168.028181 L146.845935,169.432501 C146.845935,169.432501 136.23993,162.137838 120.721136,165.555017 C105.202342,168.972196 106.255918,178.088575 106.255918,178.088575 C106.255918,178.088575 106.868554,189.260722 111.328695,193.095297 C115.788836,196.929871 118.606178,197.105411 121.146469,199.999871 C123.686759,202.894331 136.840859,204.20503 136.840859,204.20503 C136.840859,204.20503 162.879811,205.519629 176.90799,204.20503 C190.936168,202.89043 197.269334,202.89043 197.269334,202.89043 C197.269334,202.89043 212.674967,200.963391 219.601258,202.18827 C226.527549,203.413149 236.349225,203.06597 236.349225,203.06597 C236.349225,203.06597 239.24461,198.275678 231.241329,193.746745 C227.866497,191.866064 224.077271,190.85271 220.213893,190.797673 C215.230866,190.692349 207.477322,190.532412 207.239292,190.532412 C206.888099,190.532412 201.979212,188.835525 199.349173,186.70564 C196.719133,184.575754 191.899996,183.783873 186.725763,188.691192 C186.725763,188.691192 176.416792,188.116262 173.184193,187.10351 C169.951594,186.090758 163.929486,174.363225 163.929486,174.363225 L150.67393,168.028181 Z"/>
      <path fill="#67647E" fill-rule="nonzero" d="M150.67393,168.028181 L146.845935,169.432501 C146.845935,169.432501 136.23993,162.137838 120.721136,165.555017 C105.202342,168.972196 106.255918,178.088575 106.255918,178.088575 C106.255918,178.088575 106.868554,189.260722 111.328695,193.095297 C115.788836,196.929871 118.606178,197.105411 121.146469,199.999871 C123.686759,202.894331 136.840859,204.20503 136.840859,204.20503 C136.840859,204.20503 162.879811,205.519629 176.90799,204.20503 C190.936168,202.89043 190.019567,203.350581 190.019567,203.350581 C190.019567,203.350581 188.921633,198.464118 186.725763,188.691192 C183.360875,188.373968 181.029031,188.151653 179.730233,188.024246 C176.624226,187.71956 174.762891,187.419505 173.438519,187.004588 C170.20592,185.991837 163.929486,174.363225 163.929486,174.363225 L150.67393,168.028181 Z"/>
      <path fill="#000" fill-rule="nonzero" d="M169.72806,185.246707 C169.72806,185.246707 169.642213,186.834369 173.193156,186.573009 C176.478755,186.327253 163.46123,174.608981 163.46123,174.608981 L150.193968,168.270036 L146.365972,169.678257 C146.365972,169.678257 159.207902,168.15691 169.72806,185.246707 Z" opacity=".1"/>
      <path fill="#67647E" fill-rule="nonzero" d="M170.254848,184.720087 C170.254848,184.720087 170.169001,186.307749 173.719945,186.046389 C177.005543,185.804534 163.988018,174.082361 163.988018,174.082361 L150.720756,167.743416 L146.888859,169.151637 C146.888859,169.151637 159.73469,167.63029 170.254848,184.720087 Z"/>
      <path stroke="#000" d="M132.556314,173.883416 C132.556314,173.883416 136.325777,171.956377 141.851201,174.367126 C143.824084,175.216399 145.855909,175.921704 147.930729,176.477507 C151.257834,177.375355 154.45148,178.709333 157.428528,180.444712 C161.276034,182.679922 166.497091,185.363734 169.40028,185.363734" opacity=".1"/>
      <path fill="#000" fill-rule="nonzero" d="M266.446399,119.017406 C266.180496,119.035647 265.913873,118.994334 265.665971,118.896478 C265.377557,118.706327 265.129574,118.461075 264.936272,118.174814 C263.913912,117.004547 262.185266,116.782196 260.643923,116.653467 C260.519054,115.974712 261.303384,115.4832 261.537512,114.843454 C262.033083,113.478143 259.976657,112.06212 260.624412,110.755322 C260.959996,110.064865 261.853585,109.889324 262.622305,109.86982 C263.391026,109.850316 264.245594,109.86982 264.799697,109.335398 C265.44355,108.719058 265.353801,107.693124 265.521592,106.819324 C265.775231,105.481319 266.711744,104.369566 267.730201,103.46456 C268.748659,102.559553 269.891985,101.771574 270.769965,100.733937 C272.1123,99.1384732 272.744446,97.0436955 272.91614,94.9645214 C273.0254,93.6148137 272.91614,92.1831873 272.202049,91.0441275 C271.421622,89.8426536 270.083189,89.1638988 268.857919,88.4188289 C267.718194,87.7886069 266.72584,86.9229022 265.946925,85.8793499 C265.431843,85.1225773 264.908957,83.9289052 265.127477,82.9731873 C265.345996,82.0174693 266.352747,81.958956 267.293162,81.8341275 C267.570214,81.7951186 267.843363,81.7717133 268.124317,81.7561098 C267.494999,81.7274761 266.864381,81.7535802 266.239585,81.8341275 C265.299171,81.958956 264.288517,81.9706587 264.0739,82.9731873 C263.859283,83.9757159 264.378267,85.1225773 264.897251,85.8793499 C265.676166,86.9229022 266.668519,87.7886069 267.808244,88.4188289 C268.998395,89.156097 270.348534,89.8543563 271.128962,91.0246231 C271.858661,92.1636828 271.952312,93.5953092 271.843052,94.945017 C271.671358,97.0241911 271.062625,99.1189687 269.696878,100.714432 C268.818897,101.759871 267.679474,102.54395 266.661016,103.445055 C265.642559,104.346161 264.709948,105.461815 264.448505,106.79982 C264.280713,107.673619 264.370462,108.699553 263.730512,109.315894 C263.176409,109.846415 262.317939,109.830811 261.549218,109.850316 C260.780497,109.86982 259.886908,110.04536 259.551325,110.735818 C258.919179,112.042615 260.959996,113.46644 260.468326,114.82395 C260.230296,115.471497 259.449869,115.955208 259.570835,116.633962 C261.13169,116.762692 262.856434,116.97334 263.863185,118.155309 C264.054333,118.443348 264.302715,118.688995 264.592884,118.876974 C264.840539,118.975736 265.10737,119.017081 265.373311,118.997901 C265.939121,118.997901 266.508833,118.997901 267.078545,118.997901 L266.446399,119.017406 Z" opacity=".1"/>
      <path fill="#565988" fill-rule="nonzero" d="M286.538496,108.340671 C286.694581,107.841358 286.870178,107.28353 287.041872,106.690595 C287.546259,105.121793 287.928508,103.51634 288.185197,101.8886 C287.708625,101.622203 287.206668,101.403974 286.686777,101.237152 C286.729701,101.163035 286.776526,101.088918 286.815548,101.018702 L286.464355,101.163035 C286.464355,101.163035 286.464355,101.326872 286.464355,101.599934 C286.43704,102.341103 286.382411,103.909261 286.347291,105.286275 C286.347291,105.30968 286.347291,105.329185 286.347291,105.348689 C286.319976,106.437037 286.304368,107.400557 286.347291,107.743835 L286.538496,108.340671 Z"/>
    </g>
    <g fill-rule="nonzero" transform="translate(342.136 206.33)">
      <path fill="#124F69" d="M37.4133606,0 C37.4133606,0 42.0440134,6.00394169 35.278967,15.0707461 C28.5139206,24.1375506 22.9448707,31.797752 25.1957973,37.4485207 C25.1957973,37.4485207 35.4016333,20.6058202 43.7000084,20.3987877 C51.9983835,20.1917552 46.5458665,10.0958776 37.4133606,0 Z"/>
      <path fill="#000" d="M37.1509482,0 C37.5560951,0.578355974 37.8742752,1.21218934 38.0954787,1.88155982 C46.1975878,11.3319833 50.5154415,20.1491309 42.7261315,20.3744309 C35.4765533,20.5753742 26.7795127,33.4540118 24.6880523,36.7056395 C24.7555188,36.9552963 24.8413852,37.2049531 24.9333849,37.4485207 C24.9333849,37.4485207 35.1392209,20.6058202 43.437596,20.3987877 C51.7359711,20.1917552 46.2834542,10.0958776 37.1509482,0 Z" opacity=".1"/>
      <path fill="#FFD037" d="M46.1326891,7.18912092 C46.1326891,9.30206997 45.8934898,11.0192217 45.5990907,11.0192217 C45.3046916,11.0192217 45.0654923,9.30206997 45.0654923,7.18912092 C45.0654923,5.07617186 45.3660248,6.06870989 45.6788238,6.06870989 C45.9916229,6.06870989 46.1326891,5.07617186 46.1326891,7.18912092 Z"/>
      <path fill="#FFD037" d="M48.7184813,10.0029526 C46.8784869,11.0198474 45.2163585,11.6287664 45.0752923,11.3730204 C44.934226,11.1172744 46.3326218,10.0882013 48.2032829,9.07739566 C50.0739439,8.06659006 49.3379462,8.79729291 49.4790124,9.07739566 C49.6200786,9.35749842 50.5830091,8.992147 48.7184813,10.0029526 Z"/>
      <path fill="#124F69" d="M13.1306707,0 C13.1306707,0 8.5000179,6.00394169 15.2650643,15.0707461 C22.0301106,24.1375506 27.5991606,31.797752 25.3421007,37.4485207 C25.3421007,37.4485207 15.142398,20.6058202 6.84402287,20.3987877 C-1.45435222,20.1917552 3.96136486,10.0958776 13.1306707,0 Z"/>
      <path fill="#000" d="M13.1528767,0 C12.7407969,0.560029731 12.410426,1.17501858 12.1715463,1.82675711 C4.07557057,11.2771805 -0.242283138,20.0943282 7.54702682,20.3196282 C14.7966051,20.5205715 23.4936456,33.3992091 25.585106,36.6508368 C25.5160547,36.9031528 25.4320872,37.1512098 25.3336401,37.393718 C25.3336401,37.393718 15.1339374,20.5510175 6.83556228,20.343985 C-1.46281281,20.1369525 3.98357084,10.0958776 13.1528767,0 Z" opacity=".1"/>
      <path fill="#FFD037" d="M4.31061231 7.18912092C4.31061231 9.30206997 4.54981159 11.0192217 4.85034402 11.0192217 5.15087645 11.0192217 5.38394242 9.30206997 5.38394242 7.18912092 5.38394242 5.07617186 5.08340999 6.06870989 4.77061093 6.06870989 4.45781187 6.06870989 4.31061231 5.07617186 4.31061231 7.18912092zM1.13422327 10.0029526C2.97421774 11.0198474 4.63634609 11.6287664 4.77741233 11.3730204 4.91847857 11.1172744 3.51394946 10.0882013 1.64942172 9.07739566-.215106017 8.06659006.514758459 8.79729291.373692216 9.07739566.232625973 9.35749842-.730304471 8.992147 1.13422327 10.0029526z"/>
      <path fill="#A8A8A8" d="M5.87810769,36.1212843 C5.87810769,36.1212843 18.8071356,35.7254869 22.7079238,32.9670837 C26.6087121,30.2086805 42.6043975,26.9205177 43.5611946,31.3412699 C44.5179917,35.7620221 62.9976696,53.323247 48.4003801,53.4389417 C33.8030905,53.5546363 14.4770152,51.179852 10.5823602,48.811157 C6.68770526,46.4424619 5.87810769,36.1212843 5.87810769,36.1212843 Z"/>
      <path fill="#000" d="M48.6641126,52.3664931 C34.0606898,52.4882769 14.7346144,50.1134927 10.8460928,47.756976 C7.88370167,45.9667541 6.69997189,39.536569 6.30743974,36.5711333 L5.87810769,36.5711333 C5.87810769,36.5711333 6.69383858,46.9227569 10.5884936,49.2792736 C14.4831485,51.6357903 33.8030905,54.0044853 48.4065134,53.8887907 C52.6201007,53.8522556 54.0736964,52.3664931 53.9939633,50.1622062 C53.4112984,51.5140065 51.7982365,52.3238688 48.6641126,52.3664931 Z" opacity=".2"/>
    </g>
    <circle cx="341" cy="56" r="33" fill="#F7DAC4"/>
  </g>
</svg>
