<svg xmlns="http://www.w3.org/2000/svg" xmlns:xlink="http://www.w3.org/1999/xlink" width="147" height="148" viewBox="0 0 147 148">
  <defs>
    <ellipse id="3xstaticon-a" cx="73.5" cy="74.608" rx="73.5" ry="73.608"/>
    <linearGradient id="3xstaticon-b" x1="50%" x2="94.669%" y1="0%" y2="31.25%">
      <stop offset="0%" stop-color="#C1A197"/>
      <stop offset="100%" stop-color="#458A9A"/>
    </linearGradient>
  </defs>
  <g fill="none" fill-rule="evenodd" transform="translate(0 -1)">
    <g opacity=".75">
      <use fill="#FFF" xlink:href="#3xstaticon-a"/>
      <ellipse cx="73.5" cy="74.608" stroke="#DAE2E0" stroke-width="1.875" rx="72.563" ry="72.671"/>
    </g>
    <path fill="url(#3xstaticon-b)" d="M78.5441176,1.17061973 C76.8773771,1.05748664 75.1953921,1 73.5,1 C32.9070709,1 0,33.9554636 0,74.6080882 C0,115.260713 32.9070709,148.216176 73.5,148.216176 C106.403148,148.216176 134.256586,126.564 143.628731,96.7109813 L138.750032,94.8918806 C130.11989,122.76635 104.170735,143.011564 73.5,143.011564 C35.777278,143.011564 5.1969697,112.386285 5.1969697,74.6080882 C5.1969697,36.8298916 35.777278,6.2046123 73.5,6.2046123 C75.1965297,6.2046123 76.8786129,6.26655597 78.5441176,6.38830815 L78.5441176,1.17061973 Z"/>
    <text fill="#385C6C" font-family="Montserrat-Medium, Montserrat" font-size="40" font-weight="400">
      <tspan x="47.08" y="89">3X</tspan>
    </text>
  </g>
</svg>
