<svg xmlns="http://www.w3.org/2000/svg" xmlns:xlink="http://www.w3.org/1999/xlink" width="147" height="148" viewBox="0 0 147 148">
  <defs>
    <ellipse id="3xstaticon-a" cx="73.5" cy="73.608" rx="73.5" ry="73.608"/>
    <linearGradient id="3xstaticon-b" x1="50%" x2="94.669%" y1="0%" y2="31.25%">
      <stop offset="0%" stop-color="#C1A197"/>
      <stop offset="100%" stop-color="#458A9A"/>
    </linearGradient>
  </defs>
  <g fill="none" fill-rule="evenodd">
    <g opacity=".75">
      <use fill="#FFF" xlink:href="#3xstaticon-a"/>
      <ellipse cx="73.5" cy="73.608" stroke="#DAE2E0" stroke-width="1.875" rx="72.563" ry="72.671"/>
    </g>
    <path fill="url(#3xstaticon-b)" d="M78.5441176,0.170619729 C76.8773771,0.0574866409 75.1953921,0 73.5,0 C32.9070709,0 0,32.9554636 0,73.6080882 C0,114.260713 32.9070709,147.216176 73.5,147.216176 C114.092929,147.216176 147,114.260713 147,73.6080882 C147,60.7353756 143.700469,48.6344429 137.902182,38.1072428 L133.368347,40.6534762 C138.744331,50.4278957 141.80303,61.6602679 141.80303,73.6080882 C141.80303,111.386285 111.222722,142.011564 73.5,142.011564 C35.777278,142.011564 5.1969697,111.386285 5.1969697,73.6080882 C5.1969697,35.8298916 35.777278,5.2046123 73.5,5.2046123 C75.1965297,5.2046123 76.8786129,5.26655597 78.5441176,5.38830815 L78.5441176,0.170619729 Z"/>
    <text fill="#385C6C" font-family="Montserrat-Medium, Montserrat" font-size="40" font-weight="400">
      <tspan x="47.08" y="88">3X</tspan>
    </text>
  </g>
</svg>
