<svg xmlns="http://www.w3.org/2000/svg" xmlns:xlink="http://www.w3.org/1999/xlink" width="148" height="147" viewBox="0 0 148 147">
  <defs>
    <ellipse id="97percentstaticon-a" cx="74.141" cy="73.249" rx="73.141" ry="73.249"/>
    <linearGradient id="97percentstaticon-b" x1="43.108%" x2="88.583%" y1="2.612%" y2="22.003%">
      <stop offset="0%" stop-color="#C1A197"/>
      <stop offset="100%" stop-color="#458A9A"/>
    </linearGradient>
  </defs>
  <g fill="none" fill-rule="evenodd">
    <g opacity=".748">
      <use fill="#FFF" xlink:href="#97percentstaticon-a"/>
      <ellipse cx="74.141" cy="73.249" stroke="#DAE2E0" stroke-width="1.875" rx="72.204" ry="72.312"/>
    </g>
    <path fill="url(#97percentstaticon-b)" d="M74.3963415,0.00344730222 C74.157589,0.00115084246 73.9185628,0 73.6792683,0 C33.2843535,0 0.537804878,32.7947053 0.537804878,73.2490244 C0.537804878,113.703343 33.2843535,146.498049 73.6792683,146.498049 C114.074183,146.498049 146.820732,113.703343 146.820732,73.2490244 C146.820732,53.3394005 138.889113,35.2850298 126.017703,22.0821409 L122.66623,26.0608586 C134.421619,38.2973138 141.649113,54.927892 141.649113,73.2490244 C141.649113,110.842937 111.217977,141.318825 73.6792683,141.318825 C36.1405596,141.318825 5.7094235,110.842937 5.7094235,73.2490244 C5.7094235,35.6551117 36.1405596,5.17922395 73.6792683,5.17922395 C73.9185836,5.17922395 74.15761,5.18046257 74.3963415,5.18293376 L74.3963415,0.00344730222 Z"/>
    <text fill="#385C6C" font-family="Montserrat-Medium, Montserrat" font-size="40" font-weight="400">
      <tspan x="30" y="88">97%</tspan>
    </text>
  </g>
</svg>
