<svg xmlns="http://www.w3.org/2000/svg" width="16" height="18" viewBox="0 0 16 18">
  <g fill="#FFF">
    <path d="M4.44310797,9.80065385 C4.30639158,9.66530769 4.08540754,9.66530769 3.94869114,9.80065385 C3.81197475,9.936 3.81197475,10.1547692 3.94869114,10.2901154 L7.43793128,13.7443846 C7.50296772,13.8098077 7.59178093,13.8461538 7.68479004,13.8461538 C7.68723765,13.8461538 7.68968526,13.8447692 7.69213286,13.8447692 C7.69458047,13.8447692 7.69667842,13.8461538 7.69947569,13.8461538 C7.8159119,13.8461538 7.91381622,13.7862692 7.97745403,13.6997308 L11.4359242,10.2759231 C11.5726406,10.1405769 11.5726406,9.92180769 11.4359242,9.78646154 C11.2992078,9.65111538 11.0782238,9.65111538 10.9415074,9.78646154 L8.04913398,12.6498462 L8.04913398,0.346153846 C8.04913398,0.154730769 7.89283673,0 7.69947569,0 C7.50611465,0 7.34981739,0.154730769 7.34981739,0.346153846 L7.34981739,12.6789231 L4.44310797,9.80065385 Z"/>
    <path d="M10.1398601,3.38461538 C9.9465035,3.38461538 9.79020979,3.53654741 9.79020979,3.72450805 C9.79020979,3.91246869 9.9465035,4.06440072 10.1398601,4.06440072 L14.6853147,4.06440072 L14.6853147,17.3202147 L0.699300699,17.3202147 L0.699300699,4.06440072 L5.24475524,4.06440072 C5.43811189,4.06440072 5.59440559,3.91246869 5.59440559,3.72450805 C5.59440559,3.53654741 5.43811189,3.38461538 5.24475524,3.38461538 L0,3.38461538 L0,18 L15.3846154,18 L15.3846154,3.38461538 L10.1398601,3.38461538 Z"/>
  </g>
</svg>
