<svg xmlns="http://www.w3.org/2000/svg" width="25" height="25" viewBox="0 0 25 25">
  <path fill="#00758F" d="M884.619743,127 L866.367054,127 C864.507518,127 863,128.507457 863,130.367054 L863,148.619866 C863,150.479462 864.507457,151.986919 866.367054,151.986919 L875.369193,151.986919 L875.384535,143.057946 L873.064792,143.057946 C872.763325,143.057946 872.518643,142.814181 872.517482,142.512714 L872.506357,139.634535 C872.505196,139.331418 872.750611,139.085086 873.053729,139.085086 L875.369254,139.085086 L875.369254,136.304034 C875.369254,133.07665 877.340342,131.319315 880.219377,131.319315 L882.581846,131.319315 C882.884108,131.319315 883.129218,131.564364 883.129218,131.866687 L883.129218,134.293582 C883.129218,134.595782 882.884291,134.84077 882.582152,134.840954 L881.132335,134.841626 C879.566626,134.841626 879.263447,135.585636 879.263447,136.677506 L879.263447,139.085147 L882.703851,139.085147 C883.031663,139.085147 883.286002,139.371394 883.247372,139.696944 L882.906235,142.575122 C882.873594,142.85055 882.640037,143.058068 882.362714,143.058068 L879.27879,143.058068 L879.263447,151.987042 L884.619866,151.987042 C886.479401,151.987042 887.986858,150.479584 887.986858,148.620049 L887.986858,130.367054 C887.986797,128.507457 886.47934,127 884.619743,127 Z" transform="translate(-863 -127)"/>
</svg>
