<svg xmlns="http://www.w3.org/2000/svg" width="26" height="25" viewBox="0 0 26 25">
  <path fill="#00758F" d="M989.842191,2164.3641 C988.699534,2162.40629 987.149592,2160.85629 985.191958,2159.71375 C983.234033,2158.57115 981.096562,2158 978.77803,2158 C976.45979,2158 974.32162,2158.57133 972.364103,2159.71375 C970.406294,2160.85624 968.85641,2162.40629 967.713753,2164.3641 C966.57127,2166.32185 966,2168.45973 966,2170.77768 C966,2173.56206 966.812354,2176.06585 968.437471,2178.28969 C970.062413,2180.51369 972.161597,2182.05262 974.734848,2182.90664 C975.034382,2182.96224 975.256119,2182.92314 975.400291,2182.79033 C975.544522,2182.65734 975.61655,2182.49079 975.61655,2182.29138 C975.61655,2182.2581 975.613695,2181.95874 975.608159,2181.39295 C975.602448,2180.82716 975.599767,2180.33357 975.599767,2179.91241 L975.217075,2179.97861 C974.973077,2180.02331 974.665268,2180.04225 974.293648,2180.03689 C973.922203,2180.0317 973.536597,2179.99277 973.137354,2179.9204 C972.737937,2179.84866 972.366434,2179.68228 972.022552,2179.42162 C971.678846,2179.16096 971.434848,2178.81976 971.290618,2178.39854 L971.124242,2178.01568 C971.013345,2177.76078 970.838753,2177.47762 970.600233,2177.16725 C970.361713,2176.85659 970.120513,2176.64598 969.876515,2176.53508 L969.760023,2176.45169 C969.682401,2176.39627 969.610373,2176.32943 969.543765,2176.25186 C969.477214,2176.1743 969.427389,2176.09668 969.394114,2176.01894 C969.360781,2175.94114 969.388403,2175.87733 969.477273,2175.82727 C969.566142,2175.77721 969.726748,2175.75291 969.95979,2175.75291 L970.292424,2175.80262 C970.514277,2175.84709 970.788695,2175.9799 971.116026,2176.20186 C971.443182,2176.42366 971.712121,2176.712 971.922902,2177.06678 C972.178147,2177.52168 972.485664,2177.8683 972.846329,2178.10682 C973.206702,2178.34534 973.570047,2178.46439 973.936014,2178.46439 C974.301981,2178.46439 974.618065,2178.43666 974.884382,2178.38147 C975.150408,2178.32599 975.4,2178.2426 975.633042,2178.13176 C975.732867,2177.38829 976.004662,2176.81713 976.448193,2176.41789 C975.816026,2176.35146 975.247669,2176.2514 974.742832,2176.11836 C974.238287,2175.98514 973.7169,2175.76894 973.179021,2175.46917 C972.640851,2175.16981 972.194406,2174.79808 971.839569,2174.3546 C971.484674,2173.9109 971.193415,2173.32838 970.9662,2172.60758 C970.738869,2171.88648 970.625175,2171.05466 970.625175,2170.11189 C970.625175,2168.76952 971.063403,2167.62721 971.939685,2166.68432 C971.529196,2165.67512 971.567949,2164.54376 972.056061,2163.29038 C972.377739,2163.19044 972.854779,2163.26544 973.486946,2163.51492 C974.119231,2163.76451 974.582168,2163.97832 974.876224,2164.15559 C975.17028,2164.33281 975.405886,2164.48298 975.583392,2164.60478 C976.615152,2164.31649 977.679895,2164.17232 978.777914,2164.17232 C979.875932,2164.17232 980.940909,2164.31649 981.972727,2164.60478 L982.604953,2164.20565 C983.037296,2163.93934 983.547844,2163.69528 984.135373,2163.47343 C984.723252,2163.25169 985.172786,2163.19062 985.483508,2163.29056 C985.982459,2164.544 986.026923,2165.67529 985.616317,2166.6845 C986.492541,2167.62739 986.930944,2168.76999 986.930944,2170.11206 C986.930944,2171.05484 986.816841,2171.88928 986.58986,2172.61591 C986.362587,2173.34266 986.068823,2173.92459 985.70845,2174.36294 C985.347669,2174.80122 984.898368,2175.17005 984.36049,2175.46935 C983.822494,2175.76888 983.300932,2175.98508 982.796387,2176.1183 C982.291608,2176.25152 981.723252,2176.35163 981.091084,2176.41818 C981.667657,2176.91713 981.956002,2177.70472 981.956002,2178.78059 L981.956002,2182.29091 C981.956002,2182.49033 982.02535,2182.65682 982.164161,2182.78986 C982.302797,2182.92267 982.521737,2182.96177 982.82127,2182.90612 C985.394872,2182.05221 987.494056,2180.51323 989.118939,2178.28922 C990.743648,2176.06538 991.556294,2173.5616 991.556294,2170.77721 C991.555711,2168.45956 990.984149,2166.32185 989.842191,2164.3641 Z" transform="translate(-966 -2158)"/>
</svg>
