<svg xmlns="http://www.w3.org/2000/svg" width="26" height="25" viewBox="0 0 26 25">
  <path fill="#00758F" d="M944.158991,137.008224 C942.789474,137.008224 941.674342,138.122807 941.674342,139.492325 C941.674342,140.86239 942.789474,141.977522 944.158991,141.977522 C945.529057,141.977522 946.64364,140.86239 946.64364,139.492325 C946.64364,138.122807 945.529057,137.008224 944.158991,137.008224 Z M944.158991,137.008224 C942.789474,137.008224 941.674342,138.122807 941.674342,139.492325 C941.674342,140.86239 942.789474,141.977522 944.158991,141.977522 C945.529057,141.977522 946.64364,140.86239 946.64364,139.492325 C946.64364,138.122807 945.529057,137.008224 944.158991,137.008224 Z M948.298246,132.957237 L940.020285,132.957237 C938.699013,132.957237 937.623904,134.032346 937.623904,135.353618 L937.623904,143.631579 C937.623904,144.952851 938.699013,146.027961 940.020285,146.027961 L948.298246,146.027961 C949.619518,146.027961 950.694627,144.952851 950.694627,143.631579 L950.694627,135.353618 C950.694627,134.032346 949.619518,132.957237 948.298246,132.957237 Z M944.158991,143.795504 C941.786732,143.795504 939.85636,141.865132 939.85636,139.492325 C939.85636,137.120066 941.786732,135.189693 944.158991,135.189693 C946.531798,135.189693 948.462171,137.120066 948.462171,139.492325 C948.462171,141.865132 946.531798,143.795504 944.158991,143.795504 Z M948.600329,136.079496 C948.038925,136.079496 947.582237,135.622807 947.582237,135.061404 C947.582237,134.5 948.038925,134.043311 948.600329,134.043311 C949.161732,134.043311 949.618421,134.5 949.618421,135.061404 C949.618421,135.622807 949.161732,136.079496 948.600329,136.079496 Z M944.158991,137.008224 C942.789474,137.008224 941.674342,138.122807 941.674342,139.492325 C941.674342,140.86239 942.789474,141.977522 944.158991,141.977522 C945.529057,141.977522 946.64364,140.86239 946.64364,139.492325 C946.64364,138.122807 945.529057,137.008224 944.158991,137.008224 Z M948.298246,132.957237 L940.020285,132.957237 C938.699013,132.957237 937.623904,134.032346 937.623904,135.353618 L937.623904,143.631579 C937.623904,144.952851 938.699013,146.027961 940.020285,146.027961 L948.298246,146.027961 C949.619518,146.027961 950.694627,144.952851 950.694627,143.631579 L950.694627,135.353618 C950.694627,134.032346 949.619518,132.957237 948.298246,132.957237 Z M944.158991,143.795504 C941.786732,143.795504 939.85636,141.865132 939.85636,139.492325 C939.85636,137.120066 941.786732,135.189693 944.158991,135.189693 C946.531798,135.189693 948.462171,137.120066 948.462171,139.492325 C948.462171,141.865132 946.531798,143.795504 944.158991,143.795504 Z M948.600329,136.079496 C948.038925,136.079496 947.582237,135.622807 947.582237,135.061404 C947.582237,134.5 948.038925,134.043311 948.600329,134.043311 C949.161732,134.043311 949.618421,134.5 949.618421,135.061404 C949.618421,135.622807 949.161732,136.079496 948.600329,136.079496 Z M944.158991,137.008224 C942.789474,137.008224 941.674342,138.122807 941.674342,139.492325 C941.674342,140.86239 942.789474,141.977522 944.158991,141.977522 C945.529057,141.977522 946.64364,140.86239 946.64364,139.492325 C946.64364,138.122807 945.529057,137.008224 944.158991,137.008224 Z M931.666667,127 L931.666667,151.985197 L956.651864,151.985197 L956.651864,127 L931.666667,127 Z M952.51261,143.631579 C952.51261,145.955592 950.622259,147.845943 948.298246,147.845943 L940.020285,147.845943 C937.696272,147.845943 935.805921,145.955592 935.805921,143.631579 L935.805921,135.353618 C935.805921,133.029605 937.696272,131.139254 940.020285,131.139254 L948.298246,131.139254 C950.622259,131.139254 952.51261,133.029605 952.51261,135.353618 L952.51261,143.631579 Z M948.298246,132.957237 L940.020285,132.957237 C938.699013,132.957237 937.623904,134.032346 937.623904,135.353618 L937.623904,143.631579 C937.623904,144.952851 938.699013,146.027961 940.020285,146.027961 L948.298246,146.027961 C949.619518,146.027961 950.694627,144.952851 950.694627,143.631579 L950.694627,135.353618 C950.694627,134.032346 949.619518,132.957237 948.298246,132.957237 Z M944.158991,143.795504 C941.786732,143.795504 939.85636,141.865132 939.85636,139.492325 C939.85636,137.120066 941.786732,135.189693 944.158991,135.189693 C946.531798,135.189693 948.462171,137.120066 948.462171,139.492325 C948.462171,141.865132 946.531798,143.795504 944.158991,143.795504 Z M948.600329,136.079496 C948.038925,136.079496 947.582237,135.622807 947.582237,135.061404 C947.582237,134.5 948.038925,134.043311 948.600329,134.043311 C949.161732,134.043311 949.618421,134.5 949.618421,135.061404 C949.618421,135.622807 949.161732,136.079496 948.600329,136.079496 Z M944.158991,137.008224 C942.789474,137.008224 941.674342,138.122807 941.674342,139.492325 C941.674342,140.86239 942.789474,141.977522 944.158991,141.977522 C945.529057,141.977522 946.64364,140.86239 946.64364,139.492325 C946.64364,138.122807 945.529057,137.008224 944.158991,137.008224 Z M944.158991,137.008224 C942.789474,137.008224 941.674342,138.122807 941.674342,139.492325 C941.674342,140.86239 942.789474,141.977522 944.158991,141.977522 C945.529057,141.977522 946.64364,140.86239 946.64364,139.492325 C946.64364,138.122807 945.529057,137.008224 944.158991,137.008224 Z M944.158991,137.008224 C942.789474,137.008224 941.674342,138.122807 941.674342,139.492325 C941.674342,140.86239 942.789474,141.977522 944.158991,141.977522 C945.529057,141.977522 946.64364,140.86239 946.64364,139.492325 C946.64364,138.122807 945.529057,137.008224 944.158991,137.008224 Z M948.298246,132.957237 L940.020285,132.957237 C938.699013,132.957237 937.623904,134.032346 937.623904,135.353618 L937.623904,143.631579 C937.623904,144.952851 938.699013,146.027961 940.020285,146.027961 L948.298246,146.027961 C949.619518,146.027961 950.694627,144.952851 950.694627,143.631579 L950.694627,135.353618 C950.694627,134.032346 949.619518,132.957237 948.298246,132.957237 Z M944.158991,143.795504 C941.786732,143.795504 939.85636,141.865132 939.85636,139.492325 C939.85636,137.120066 941.786732,135.189693 944.158991,135.189693 C946.531798,135.189693 948.462171,137.120066 948.462171,139.492325 C948.462171,141.865132 946.531798,143.795504 944.158991,143.795504 Z M948.600329,136.079496 C948.038925,136.079496 947.582237,135.622807 947.582237,135.061404 C947.582237,134.5 948.038925,134.043311 948.600329,134.043311 C949.161732,134.043311 949.618421,134.5 949.618421,135.061404 C949.618421,135.622807 949.161732,136.079496 948.600329,136.079496 Z M944.158991,137.008224 C942.789474,137.008224 941.674342,138.122807 941.674342,139.492325 C941.674342,140.86239 942.789474,141.977522 944.158991,141.977522 C945.529057,141.977522 946.64364,140.86239 946.64364,139.492325 C946.64364,138.122807 945.529057,137.008224 944.158991,137.008224 Z M944.158991,137.008224 C942.789474,137.008224 941.674342,138.122807 941.674342,139.492325 C941.674342,140.86239 942.789474,141.977522 944.158991,141.977522 C945.529057,141.977522 946.64364,140.86239 946.64364,139.492325 C946.64364,138.122807 945.529057,137.008224 944.158991,137.008224 Z M944.158991,137.008224 C942.789474,137.008224 941.674342,138.122807 941.674342,139.492325 C941.674342,140.86239 942.789474,141.977522 944.158991,141.977522 C945.529057,141.977522 946.64364,140.86239 946.64364,139.492325 C946.64364,138.122807 945.529057,137.008224 944.158991,137.008224 Z M948.298246,132.957237 L940.020285,132.957237 C938.699013,132.957237 937.623904,134.032346 937.623904,135.353618 L937.623904,143.631579 C937.623904,144.952851 938.699013,146.027961 940.020285,146.027961 L948.298246,146.027961 C949.619518,146.027961 950.694627,144.952851 950.694627,143.631579 L950.694627,135.353618 C950.694627,134.032346 949.619518,132.957237 948.298246,132.957237 Z M944.158991,143.795504 C941.786732,143.795504 939.85636,141.865132 939.85636,139.492325 C939.85636,137.120066 941.786732,135.189693 944.158991,135.189693 C946.531798,135.189693 948.462171,137.120066 948.462171,139.492325 C948.462171,141.865132 946.531798,143.795504 944.158991,143.795504 Z M948.600329,136.079496 C948.038925,136.079496 947.582237,135.622807 947.582237,135.061404 C947.582237,134.5 948.038925,134.043311 948.600329,134.043311 C949.161732,134.043311 949.618421,134.5 949.618421,135.061404 C949.618421,135.622807 949.161732,136.079496 948.600329,136.079496 Z M944.158991,137.008224 C942.789474,137.008224 941.674342,138.122807 941.674342,139.492325 C941.674342,140.86239 942.789474,141.977522 944.158991,141.977522 C945.529057,141.977522 946.64364,140.86239 946.64364,139.492325 C946.64364,138.122807 945.529057,137.008224 944.158991,137.008224 Z" transform="translate(-931 -127)"/>
</svg>
