<svg xmlns="http://www.w3.org/2000/svg" width="46" height="45" viewBox="0 0 46 45">
  <path fill="#385C6C" d="M45.0960259,31.0833369 C45.0961231,31.0731317 45.0971922,31.063121 45.0971922,31.0529158 C45.0971922,31.0506803 45.0969006,31.0484449 45.0968035,31.0461123 C45.0967063,31.0295896 45.09554,31.013067 45.0942765,30.9964471 C45.0936933,30.9883801 45.0933045,30.9803132 45.0924298,30.9723434 C45.0908747,30.9580562 45.0883477,30.9438661 45.0859179,30.9295788 C45.0841685,30.9193737 45.0827106,30.9090713 45.0804752,30.8989633 C45.0780454,30.8879806 45.0749352,30.877095 45.0720194,30.8661123 C45.0685205,30.8529914 45.065216,30.8398704 45.0610367,30.8271382 C45.0583153,30.8187797 45.0549136,30.8104212 45.0519006,30.8020626 C45.0464579,30.7871922 45.0409179,30.7725162 45.0345032,30.7581317 C45.0335313,30.7558963 45.032851,30.7535637 45.0317819,30.7512311 L37.3218143,13.7891469 L37.3218143,11.5658747 L37.3704104,11.5658747 C38.2011123,11.5658747 38.8768898,10.8900972 38.8768898,10.0593952 L38.8768898,9.94393089 C38.8768898,9.20060475 38.3442765,8.57517279 37.6104752,8.45669546 L24.8812095,6.4025378 L24.8812095,5.09734341 C25.3643521,4.55588553 25.6587473,3.84259179 25.6587473,3.06155508 C25.6587473,1.37342333 24.285324,0 22.5971922,0 C20.9090605,0 19.5356371,1.37342333 19.5356371,3.06155508 C19.5356371,3.84259179 19.8300324,4.55588553 20.3131749,5.09734341 L20.3131749,6.33168467 L7.5762311,8.45455724 C6.84690065,8.57614471 6.3174946,9.20109071 6.3174946,9.94052916 L6.3174946,10.0593952 C6.3174946,10.8900972 6.99327214,11.5658747 7.82397408,11.5658747 L7.87257019,11.5658747 L7.87257019,13.7891469 L0.1625054,30.7512311 C0.161436285,30.7534665 0.16075594,30.7558963 0.159784017,30.7581317 C0.153466523,30.772419 0.147926566,30.7871922 0.142483801,30.8019654 C0.13937365,30.810324 0.136069114,30.8186825 0.13325054,30.8271382 C0.129071274,30.8398704 0.125669546,30.8529914 0.122267819,30.8661123 C0.119352052,30.877095 0.116241901,30.8879806 0.113812095,30.8989633 C0.111673866,30.9090713 0.11011879,30.9193737 0.10836933,30.9295788 C0.105939525,30.9438661 0.103412527,30.9580562 0.101857451,30.9723434 C0.100982721,30.9803132 0.100691145,30.9884773 0.100010799,30.9965443 C0.0987473002,31.013067 0.0976781857,31.0295896 0.0974838013,31.0460151 C0.0974838013,31.0483477 0.0970950324,31.0505832 0.0970950324,31.0528186 C0.0970950324,31.063121 0.0981641469,31.0731317 0.0982613391,31.0834341 C0.098650108,31.0915983 0.0985529158,31.0998596 0.0992332613,31.1080238 C0.144719222,34.1063067 3.86193305,36.4470842 8.60151188,36.4470842 C13.3410907,36.4470842 17.0583045,34.1063067 17.1036933,31.108121 C17.1043737,31.0999568 17.1042765,31.0916955 17.1046652,31.0834341 C17.1047624,31.0732289 17.1058315,31.0632181 17.1058315,31.053013 C17.1058315,31.0507775 17.10554,31.0485421 17.1054428,31.0462095 C17.1053456,31.0296868 17.1041793,31.0131641 17.1029158,30.9965443 C17.1023326,30.9884773 17.1019438,30.9804104 17.1010691,30.9724406 C17.099514,30.9581533 17.096987,30.9439633 17.0945572,30.929676 C17.0928078,30.9194708 17.0913499,30.9091685 17.0891145,30.8990605 C17.0866847,30.8880778 17.0835745,30.8771922 17.0806587,30.8662095 C17.0771598,30.8530886 17.0738553,30.8399676 17.069676,30.8272354 C17.0669546,30.8188769 17.0635529,30.8105184 17.06054,30.8021598 C17.0550972,30.7872894 17.0495572,30.7726134 17.0431425,30.7582289 C17.0421706,30.7559935 17.0414903,30.7536609 17.0404212,30.7513283 L9.33045356,13.7891469 L9.33045356,11.5658747 L20.3131749,11.5658747 L20.3131749,27.4028618 C19.850054,27.6601296 19.5356371,28.1539633 19.5356371,28.7203024 L19.5356371,39.4586825 L14.9180346,40.9016955 C13.9594276,41.2013391 13.3153348,42.0774298 13.3153348,43.0818143 L13.3153348,44.2710583 C13.3153348,44.6736285 13.6416091,45 14.0442765,45 L31.150108,45 C31.5527754,45 31.8790497,44.6736285 31.8790497,44.2710583 L31.8790497,43.0817171 C31.8790497,42.0773326 31.2349568,41.2012419 30.2763499,40.9015983 L25.6587473,39.4586825 L25.6587473,28.7203024 C25.6587473,28.1539633 25.3443305,27.6601296 24.8812095,27.4028618 L24.8812095,11.5658747 L35.8639309,11.5658747 L35.8639309,13.7891469 L28.1538661,30.7513283 C28.152797,30.7535637 28.1521166,30.7559935 28.1511447,30.7582289 C28.1448272,30.7725162 28.1392873,30.7872894 28.1338445,30.8020626 C28.1307343,30.8104212 28.1274298,30.8187797 28.1246112,30.8272354 C28.120432,30.8399676 28.1170302,30.8530886 28.1136285,30.8662095 C28.1107127,30.8771922 28.1076026,30.8880778 28.1051728,30.8990605 C28.1030346,30.9091685 28.1014795,30.9194708 28.09973,30.929676 C28.0973002,30.9439633 28.0947732,30.9581533 28.0932181,30.9724406 C28.0923434,30.9804104 28.0920518,30.9885745 28.0913715,30.9966415 C28.090108,31.0131641 28.0890389,31.0296868 28.0888445,31.0461123 C28.0888445,31.0484449 28.0884557,31.0506803 28.0884557,31.0529158 C28.0884557,31.0632181 28.0895248,31.0732289 28.089622,31.0835313 C28.0900108,31.0916955 28.0899136,31.0999568 28.090594,31.108121 C28.1360799,34.1063067 31.8532937,36.4470842 36.5928726,36.4470842 C41.3324514,36.4470842 45.0496652,34.1063067 45.095054,31.108121 C45.0957343,31.0998596 45.0956371,31.0915983 45.0960259,31.0833369 Z M8.60151188,15.7086933 L15.2447948,30.3239741 L1.95822894,30.3239741 L8.60151188,15.7086933 Z M8.60151188,34.9892009 C5.2262203,34.9892009 2.31395248,33.5816631 1.68200864,31.7818575 L15.5211123,31.7818575 C14.8890713,33.5816631 11.9768035,34.9892009 8.60151188,34.9892009 Z M24.2008639,28.7203024 L24.2008639,39.2656587 L20.9935205,39.2656587 L20.9935205,28.7203024 C20.9935205,28.6934773 21.0153888,28.6717063 21.0421166,28.6717063 L24.1522678,28.6717063 C24.1789957,28.6717063 24.2008639,28.6934773 24.2008639,28.7203024 Z M21.7710583,27.2138229 L21.7710583,6.00890929 C22.0340605,6.08277538 22.3109611,6.12311015 22.5971922,6.12311015 C22.8834233,6.12311015 23.160324,6.08277538 23.4233261,6.00890929 L23.4233261,27.2138229 L21.7710583,27.2138229 Z M22.5971922,1.45788337 C23.4814471,1.45788337 24.2008639,2.17730022 24.2008639,3.06155508 C24.2008639,3.94580994 23.4814471,4.66522678 22.5971922,4.66522678 C21.7129374,4.66522678 20.9935205,3.94580994 20.9935205,3.06155508 C20.9935205,2.17730022 21.7129374,1.45788337 22.5971922,1.45788337 Z M7.82397408,10.1079914 C7.79724622,10.1079914 7.77537797,10.0862203 7.77537797,10.0593952 L7.77537797,9.94052916 C7.77537797,9.91661987 7.7924838,9.89650108 7.81600432,9.89261339 L20.3131749,7.80978402 L20.3131749,10.1079914 L7.82397408,10.1079914 Z M30.4211663,43.0817171 L30.4211663,43.5421166 L14.7732181,43.5421166 L14.7732181,43.0817171 C14.7732181,42.7184125 15.0061879,42.4014687 15.3529698,42.2931965 L20.3758639,40.7235421 L24.8186177,40.7235421 L29.8415119,42.2931965 C30.1881965,42.4015659 30.4211663,42.7184125 30.4211663,43.0817171 Z M24.8812095,7.87937365 L37.3780886,9.89601512 C37.4018035,9.89980562 37.4190065,9.9200216 37.4190065,9.94402808 L37.4190065,10.0594924 C37.4190065,10.0863175 37.3971382,10.1080886 37.3704104,10.1080886 L24.8812095,10.1080886 L24.8812095,7.87937365 Z M36.5928726,15.7086933 L43.2361555,30.3239741 L29.9495896,30.3239741 L36.5928726,15.7086933 Z M36.5928726,34.9892009 C33.217581,34.9892009 30.3053132,33.5816631 29.6733693,31.7818575 L43.512473,31.7818575 C42.880432,33.5816631 39.9681641,34.9892009 36.5928726,34.9892009 Z"/>
</svg>
