<svg xmlns="http://www.w3.org/2000/svg" width="54" height="50" viewBox="0 0 54 50">
  <g fill="#385C6C">
    <g transform="rotate(-1 55.704 -1782.701)">
      <path d="M15.1905373,19.9186871 C15.1109764,19.3866237 14.8715804,18.9060768 14.4981228,18.5281511 C14.0362415,18.0609985 13.4213505,17.8038277 12.7672393,17.8038277 L9.38615392,17.8038277 C8.73418203,17.8038277 8.12081911,18.0609985 7.65893778,18.5281511 C7.28497078,18.9063859 7.04577861,19.3869328 6.96631953,19.9186871 L5.11135767,19.6354489 C5.25092039,18.7001135 5.67307219,17.8531806 6.33237875,17.1861437 C7.14836231,16.3608477 8.23277492,15.9058531 9.38595017,15.9058531 L12.7670356,15.9058531 C13.9225539,15.9058531 15.0082908,16.3605386 15.8244781,17.1861437 C16.483479,17.8529745 16.9057327,18.6999074 17.0454992,19.6354489 L15.1905373,19.9186871 Z M11.0784284,14.9298196 C8.99476703,14.9298196 7.29964017,13.2156563 7.29964017,11.1084213 C7.29964017,9.00098025 8.99476703,7.28650782 11.0784284,7.28650782 C13.1615804,7.28650782 14.8565036,9.00098025 14.8565036,11.1084213 C14.8565036,13.2155532 13.1615804,14.9298196 11.0784284,14.9298196 Z M11.0784284,9.18396723 C10.0292631,9.18396723 9.17568925,10.0472824 9.17568925,11.1084213 C9.17568925,12.1692511 10.0292631,13.0320511 11.0784284,13.0320511 C12.1270844,13.0320511 12.9803526,12.1692511 12.9803526,11.1084213 C12.9803526,10.0472824 12.1270844,9.18396723 11.0784284,9.18396723 Z"/>
      <path d="M11.0784284,22.1150458 C5.07794411,22.1150458 0.195999046,17.1773858 0.195999046,11.1084213 C0.195999046,5.03945679 5.07794411,0.101693767 11.0784284,0.101693767 C17.0789127,0.101693767 21.9608578,5.03935376 21.9608578,11.1083183 C21.9608578,17.1772828 17.0789127,22.1150458 11.0784284,22.1150458 Z M11.0293324,1.78945748 C5.97479294,1.78945748 1.86266571,5.95367131 1.86266571,11.0720004 C1.86266571,16.1903295 5.97489664,20.3548583 11.0293324,20.3548583 C16.0837681,20.3548583 20.1959991,16.1904345 20.1959991,11.0720004 C20.1959991,5.95356633 16.0837681,1.78945748 11.0293324,1.78945748 Z"/>
    </g>
    <g transform="rotate(-1 40.3 -17.573)">
      <path d="M15.1827951,19.8669644 C15.1022271,19.3346949 14.8595945,18.8535299 14.4814096,18.4756041 C14.0141974,18.0089668 13.3928641,17.7523111 12.73233,17.7523111 L9.30865229,17.7523111 C8.64811814,17.7523111 8.02678481,18.0091728 7.55957269,18.4756041 C7.17849924,18.857033 6.936073,19.337889 6.85890923,19.8659341 L4.97881626,19.592381 C5.11509077,18.6568395 5.54289572,17.8069187 6.21580911,17.1343179 C7.04212158,16.3087129 8.14046723,15.8542335 9.30854914,15.8542335 L12.7322268,15.8542335 C13.900515,15.8542335 14.9986543,16.3087129 15.8247605,17.1340089 C16.4924127,17.8003246 16.9197019,18.6474635 17.0612375,19.5838292 L15.1827951,19.8669644 Z"/>
      <path d="M11.0201816,22.0624989 C4.94374183,22.0624989 0,17.1253541 0,11.0569047 C0,4.9879402 4.94374183,0.0502802011 11.0201816,0.0502802011 C17.0966215,0.0502802011 22.0403633,4.98824928 22.0403633,11.0569047 C22.0403633,17.1253541 17.0966215,22.0624989 11.0201816,22.0624989 Z M10.9704641,1.73804391 C5.85194321,1.73804391 1.68776371,5.90251682 1.68776371,11.0211644 C1.68776371,16.1392869 5.85204821,20.3034448 10.9704641,20.3034448 C16.0888801,20.3034448 20.2531646,16.1392869 20.2531646,11.0211644 C20.2531646,5.90251682 16.0889851,1.73804391 10.9704641,1.73804391 Z"/>
      <path d="M11.0201816,14.878097 C8.91035111,14.878097 7.19407643,13.1639336 7.19407643,11.0569047 C7.19407643,8.94946366 8.91035111,7.23499122 11.0201816,7.23499122 C13.1302185,7.23499122 14.8468027,8.94946366 14.8468027,11.0569047 C14.8469058,13.1638306 13.1303216,14.878097 11.0201816,14.878097 Z M11.0201816,9.13245063 C9.95804518,9.13245063 9.09418245,9.99545668 9.09418245,11.0569047 C9.09418245,12.1175285 9.95804518,12.9805345 11.0201816,12.9805345 C12.0826276,12.9805345 12.9470061,12.1177345 12.9470061,11.0569047 C12.9470061,9.99555972 12.0826276,9.13245063 11.0201816,9.13245063 Z"/>
    </g>
    <path d="M21.6694042,45.7783183 C21.737879,45.5748897 21.9242172,45.1584495 22.398426,44.6860735 C23.2279784,43.8584985 24.3305953,43.4027639 25.5035501,43.4027639 L28.9417174,43.4027639 C29.3331605,43.4027639 29.7167261,43.4535019 30.0849071,43.5518611 C30.6873875,41.7681081 32.3805227,40.4799429 34.3694869,40.4799429 C34.9971205,40.4799429 35.5952868,40.6082146 36.1390151,40.8398527 C36.3735859,40.0243349 36.499271,39.1632886 36.499271,38.2734862 C36.499271,33.1409358 32.3176853,28.9651517 27.178004,28.9651517 C22.0383227,28.9651517 17.8564207,33.1409358 17.8564207,38.2734862 C17.8564207,41.3499043 19.3588263,44.0825823 21.6694042,45.7783183 Z M23.2485518,46.7137796 C24.4432613,47.2706462 25.7749385,47.5818208 27.178004,47.5818208 C28.2878785,47.5818208 29.3530916,47.3870833 30.3411743,47.0300272 C30.0992881,46.5574628 29.9385783,46.0369763 29.8775017,45.4869747 C29.5843243,45.3682444 29.2679034,45.306083 28.9419247,45.306083 L25.5037573,45.306083 C24.8404676,45.306083 24.2165422,45.5636542 23.7476918,46.0313735 C23.4816354,46.2962958 23.321068,46.5719415 23.2485518,46.7137796 Z M37.6839213,41.9262454 C38.4313891,42.7307041 38.8888889,43.8068014 38.8888889,44.9874463 C38.8888889,47.472852 36.8613513,49.4949495 34.3694869,49.4949495 C33.2898766,49.4949495 32.2974426,49.1154304 31.5192784,48.4831378 C30.1989545,49.0392574 28.7486967,49.3468688 27.2277709,49.3468688 C21.1259818,49.3468688 16.1616162,44.3955736 16.1616162,38.3098497 C16.1616162,32.2241257 21.126189,27.2727273 27.2277709,27.2727273 C33.3293526,27.2727273 38.2939252,32.2243325 38.2939252,38.3100564 C38.2939252,39.5760015 38.0791082,40.792849 37.6839213,41.9262454 Z M36.7338535,44.1670504 C36.9316895,43.9697423 36.9316895,43.6508197 36.7338535,43.4535114 C36.5360173,43.2562033 36.2162412,43.2562033 36.0184052,43.4535114 L33.8462558,45.6198644 L32.6860559,44.4627604 C32.4882197,44.2654524 32.1684437,44.2654524 31.9706077,44.4627604 C31.7727715,44.6600688 31.7727715,44.9789913 31.9706077,45.1762997 L33.4885318,46.6901731 C33.5871967,46.7885749 33.7167262,46.838028 33.8462558,46.838028 C33.9757854,46.838028 34.1053149,46.7885749 34.20398,46.6901731 L36.7338535,44.1670504 Z" transform="rotate(-1 27.525 38.384)"/>
    <path d="M27.0207127,42.4242424 C24.931926,42.4242424 23.2323232,40.7251836 23.2323232,38.6367212 C23.2323232,36.5478501 24.931926,34.8484848 27.0207127,34.8484848 C29.1089887,34.8484848 30.8080808,36.5478501 30.8080808,38.6367212 C30.8082852,40.7250815 29.109295,42.4242424 27.0207127,42.4242424 Z M27.0207127,36.7292245 C25.9689666,36.7292245 25.1132933,37.5846262 25.1132933,38.6367212 C25.1132933,39.687999 25.9686603,40.5434007 27.0207127,40.5434007 C28.071948,40.5434007 28.9273151,39.6882034 28.9273151,38.6367212 C28.9273151,37.5847282 28.0721524,36.7292245 27.0207127,36.7292245 Z" transform="rotate(-1 27.02 38.636)"/>
    <path d="M36.6160597,20.2956676 C36.4366624,20.1350789 36.1122863,20.1843841 35.8935168,20.4177765 C35.6747474,20.6511688 35.6160807,21.0671187 35.8468152,21.2736623 C36.0775497,21.4802059 37.042633,22.5466244 37.042633,22.5466244 L30.5219153,22.3709406 L30.3030303,23.9598054 L37.042633,23.8571825 C37.042633,23.8571825 35.8687182,25.1287111 35.7346038,25.2992202 C35.6004894,25.4697292 35.6658271,25.7996993 35.8787657,26.0267054 C36.0917042,26.2537114 36.3620769,26.340901 36.5514102,26.1807688 C36.7407435,26.0206366 39.3939394,23.2018881 39.3939394,23.2018881 C39.3939394,23.2018881 36.795457,20.4562563 36.6160597,20.2956676 Z" transform="scale(-1 1) rotate(45 0 -60.9)"/>
    <path d="M21.4645446,20.2956676 C21.2851473,20.1350789 20.9607711,20.1843841 20.7420017,20.4177765 C20.5232323,20.6511688 20.4645655,21.0671187 20.6953,21.2736623 C20.9260346,21.4802058 21.8911178,22.5466244 21.8911178,22.5466244 L15.3704001,22.3709406 L15.1515152,23.9598054 L21.8911178,23.8571825 C21.8911178,23.8571825 20.7172031,25.128711 20.5830887,25.2992201 C20.4489743,25.4697291 20.514312,25.7996992 20.7272505,26.0267053 C20.9401891,26.2537114 21.2105618,26.3409011 21.399895,26.1807687 C21.5892283,26.0206366 24.2424242,23.2018881 24.2424242,23.2018881 C24.2424242,23.2018881 21.6439419,20.4562563 21.4645446,20.2956676 Z" transform="rotate(45 19.697 23.232)"/>
  </g>
</svg>
