<svg xmlns="http://www.w3.org/2000/svg" width="106" height="98" viewBox="0 0 106 98">
  <g fill="#385C6C" transform="translate(-1 -1)">
    <g transform="rotate(-1 111.408 -3565.402)">
      <path d="M30.3810746,39.8373742 C30.2219527,38.7732474 29.7431609,37.8121537 28.9962456,37.0563021 C28.0724829,36.1219971 26.842701,35.6076554 25.5344787,35.6076554 L18.7723078,35.6076554 C17.4683641,35.6076554 16.2416382,36.1219971 15.3178756,37.0563021 C14.5699416,37.8127719 14.0915572,38.7738655 13.9326391,39.8373742 L10.2227153,39.2708977 C10.5018408,37.4002269 11.3461444,35.7063611 12.6647575,34.3722873 C14.2967246,32.7216955 16.4655498,31.8117062 18.7719003,31.8117062 L25.5340712,31.8117062 C27.8451077,31.8117062 30.0165816,32.7210772 31.6489562,34.3722873 C32.9669581,35.705949 33.8114654,37.3998148 34.0909983,39.2708977 L30.3810746,39.8373742 Z M22.1568568,29.8596393 C17.9895341,29.8596393 14.5992803,26.4313126 14.5992803,22.2168426 C14.5992803,18.0019605 17.9895341,14.5730156 22.1568568,14.5730156 C26.3231609,14.5730156 29.7130072,18.0019605 29.7130072,22.2168426 C29.7130072,26.4311065 26.3231609,29.8596393 22.1568568,29.8596393 Z M22.1568568,18.3679345 C20.0585261,18.3679345 18.3513785,20.0945648 18.3513785,22.2168426 C18.3513785,24.3385022 20.0585261,26.0641023 22.1568568,26.0641023 C24.2541689,26.0641023 25.9607053,24.3385022 25.9607053,22.2168426 C25.9607053,20.0945648 24.2541689,18.3679345 22.1568568,18.3679345 Z"/>
      <path d="M22.1568568,44.2300916 C10.1558882,44.2300916 0.391998092,34.3547716 0.391998092,22.2168426 C0.391998092,10.0789136 10.1558882,0.203387535 22.1568568,0.203387535 C34.1578254,0.203387535 43.9217156,10.0787075 43.9217156,22.2166366 C43.9217156,34.3545656 34.1578254,44.2300916 22.1568568,44.2300916 Z M22.0586648,3.57891496 C11.9495859,3.57891496 3.72533143,11.9073426 3.72533143,22.1440008 C3.72533143,32.380659 11.9497933,40.7097166 22.0586648,40.7097166 C32.1675362,40.7097166 40.3919981,32.380869 40.3919981,22.1440008 C40.3919981,11.9071327 32.1675362,3.57891496 22.0586648,3.57891496 Z"/>
    </g>
    <g transform="rotate(-1 80.6 -35.146)">
      <path d="M30.3655903,39.7339289 C30.2044542,38.6693899 29.719189,37.7070598 28.9628191,36.9512083 C28.0283949,36.0179336 26.7857282,35.5046222 25.4646599,35.5046222 L18.6173046,35.5046222 C17.2962363,35.5046222 16.0535696,36.0183457 15.1191454,36.9512083 C14.3569985,37.714066 13.872146,38.6757779 13.7178185,39.7318682 L9.95763252,39.184762 C10.2301815,37.313679 11.0857914,35.6138374 12.4316182,34.2686359 C14.0842432,32.6174258 16.2809345,31.7084669 18.6170983,31.7084669 L25.4644536,31.7084669 C27.80103,31.7084669 29.9973087,32.6174258 31.649521,34.2680177 C32.9848254,35.6006491 33.8394037,37.294927 34.122475,39.1676585 L30.3655903,39.7339289 Z"/>
      <path d="M22.0403633,44.1249977 C9.88748366,44.1249977 0,34.2507081 0,22.1138094 C0,9.97588039 9.88748366,0.100560402 22.0403633,0.100560402 C34.1932429,0.100560402 44.0807266,9.97649857 44.0807266,22.1138094 C44.0807266,34.2507081 34.1932429,44.1249977 22.0403633,44.1249977 Z M21.9409283,3.47608783 C11.7038864,3.47608783 3.37552743,11.8050336 3.37552743,22.0423287 C3.37552743,32.2785737 11.7040964,40.6068895 21.9409283,40.6068895 C32.1777601,40.6068895 40.5063291,32.2785737 40.5063291,22.0423287 C40.5063291,11.8050336 32.1779701,3.47608783 21.9409283,3.47608783 Z"/>
      <path d="M22.0403633,29.7561939 C17.8207022,29.7561939 14.3881529,26.3278672 14.3881529,22.1138094 C14.3881529,17.8989273 17.8207022,14.4699824 22.0403633,14.4699824 C26.260437,14.4699824 29.6936053,17.8989273 29.6936053,22.1138094 C29.6938116,26.3276612 26.2606433,29.7561939 22.0403633,29.7561939 Z M22.0403633,18.2649013 C19.9160904,18.2649013 18.1883649,19.9909134 18.1883649,22.1138094 C18.1883649,24.2350569 19.9160904,25.9610691 22.0403633,25.9610691 C24.1652552,25.9610691 25.8940123,24.235469 25.8940123,22.1138094 C25.8940123,19.9911194 24.1652552,18.2649013 22.0403633,18.2649013 Z"/>
    </g>
    <path d="M43.3388084,91.5566365 C43.4757581,91.1497794 43.8484343,90.3168989 44.7968521,89.372147 C46.4559569,87.716997 48.6611906,86.8055277 51.0071002,86.8055277 L57.8834348,86.8055277 C58.6663209,86.8055277 59.4334522,86.9070038 60.1698143,87.1037222 C61.3747751,83.5362161 64.7610455,80.9598858 68.7389738,80.9598858 C69.9942409,80.9598858 71.1905735,81.2164291 72.2780302,81.6797055 C72.7471719,80.0486698 72.9985419,78.3265771 72.9985419,76.5469725 C72.9985419,66.2818715 64.6353706,57.9303035 54.3560081,57.9303035 C44.0766455,57.9303035 35.7128414,66.2818715 35.7128414,76.5469725 C35.7128414,82.6998087 38.7176525,88.1651646 43.3388084,91.5566365 Z M46.4971036,93.4275593 C48.8865227,94.5412925 51.5498771,95.1636415 54.3560081,95.1636415 C56.5757569,95.1636415 58.7061833,94.7741667 60.6823486,94.0600544 C60.1985762,93.1149256 59.8771565,92.0739526 59.7550035,90.9739494 C59.1686486,90.7364887 58.5358068,90.6121661 57.8838494,90.6121661 L51.0075146,90.6121661 C49.6809351,90.6121661 48.4330844,91.1273085 47.4953836,92.062747 C46.9632709,92.5925915 46.642136,93.143883 46.4971036,93.4275593 Z M75.3678425,83.8524908 C76.8627782,85.4614082 77.7777778,87.6136029 77.7777778,89.9748927 C77.7777778,94.9457041 73.7227025,98.989899 68.7389738,98.989899 C66.5797532,98.989899 64.5948851,98.2308607 63.0385568,96.9662755 C60.397909,98.0785149 57.4973933,98.6937377 54.4555417,98.6937377 C42.2519636,98.6937377 32.3232323,88.7911472 32.3232323,76.6196994 C32.3232323,64.4482515 42.252378,54.5454545 54.4555417,54.5454545 C66.6587051,54.5454545 76.5878504,64.448665 76.5878504,76.6201129 C76.5878504,79.152003 76.1582163,81.5856981 75.3678425,83.8524908 Z M73.467707,88.3341007 C73.8633789,87.9394846 73.8633789,87.3016394 73.467707,86.9070228 C73.0720345,86.5124067 72.4324824,86.5124067 72.0368105,86.9070228 L67.6925116,91.2397288 L65.3721119,88.9255209 C64.9764394,88.5309048 64.3368873,88.5309048 63.9412154,88.9255209 C63.5455429,89.3201375 63.5455429,89.9579827 63.9412154,90.3525993 L66.9770636,93.3803462 C67.1743933,93.5771497 67.4334525,93.676056 67.6925116,93.676056 C67.9515707,93.676056 68.2106299,93.5771497 68.4079601,93.3803462 L73.467707,88.3341007 Z" transform="rotate(-1 55.05 76.768)"/>
    <path d="M54.0414255,84.8484848 C49.8638521,84.8484848 46.4646465,81.4503671 46.4646465,77.2734424 C46.4646465,73.0957003 49.8638521,69.6969697 54.0414255,69.6969697 C58.2179774,69.6969697 61.6161616,73.0957003 61.6161616,77.2734424 C61.6165704,81.450163 58.21859,84.8484848 54.0414255,84.8484848 Z M54.0414255,73.458449 C51.9379333,73.458449 50.2265865,75.1692524 50.2265865,77.2734424 C50.2265865,79.3759981 51.9373205,81.0868015 54.0414255,81.0868015 C56.143896,81.0868015 57.8546303,79.3764068 57.8546303,77.2734424 C57.8546303,75.1694565 56.1443048,73.458449 54.0414255,73.458449 Z" transform="rotate(-1 54.04 77.273)"/>
    <path d="M73.2321194,40.5913352 C72.8733249,40.2701578 72.2245726,40.3687682 71.7870336,40.835553 C71.3494948,41.3023377 71.2321613,42.1342374 71.6936304,42.5473246 C72.1550994,42.9604117 74.085266,45.0932487 74.085266,45.0932487 L61.0438305,44.7418813 L60.6060606,47.9196108 L74.085266,47.714365 C74.085266,47.714365 71.7374365,50.2574221 71.4692077,50.5984403 C71.2009789,50.9394585 71.3316542,51.5993986 71.7575314,52.0534108 C72.1834085,52.5074229 72.7241538,52.681802 73.1028204,52.3615376 C73.481487,52.0412732 78.7878788,46.4037761 78.7878788,46.4037761 C78.7878788,46.4037761 73.590914,40.9125126 73.2321194,40.5913352 Z" transform="scale(-1 1) rotate(45 0 -121.799)"/>
    <path d="M42.9290891,40.5913352 C42.5702945,40.2701578 41.9215422,40.3687682 41.4840034,40.835553 C41.0464645,41.3023377 40.9291311,42.1342374 41.3906001,42.5473246 C41.8520691,42.9604117 43.7822356,45.0932487 43.7822356,45.0932487 L30.7408002,44.7418813 L30.3030303,47.9196108 L43.7822356,47.714365 C43.7822356,47.714365 41.4344062,50.2574221 41.1661774,50.5984401 C40.8979485,50.9394582 41.0286239,51.5993983 41.454501,52.0534105 C41.8803782,52.5074227 42.4211235,52.6818022 42.7997901,52.3615374 C43.1784567,52.0412732 48.4848485,46.4037762 48.4848485,46.4037762 C48.4848485,46.4037762 43.2878837,40.9125126 42.9290891,40.5913352 Z" transform="rotate(45 39.394 46.465)"/>
  </g>
</svg>
