<svg xmlns="http://www.w3.org/2000/svg" width="25" height="25" viewBox="0 0 25 25">
  <g fill="none">
    <path fill="#385C6C" d="M12.5,0 C5.59609375,0 0,5.59609375 0,12.5 C0,19.403125 5.59609375,25 12.5,25 C19.4039062,25 25,19.403125 25,12.5 C25,5.59609375 19.4039062,0 12.5,0 Z"/>
    <g fill="#FFF" transform="translate(4.688 6.25)">
      <path d="M14.8117188,2.403125 L10.3117187,0.153125 C10.2914062,0.14296875 10.26875,0.13828125 10.246875,0.1375 C10.2453125,0.1375 10.24375,0.13671875 10.2421875,0.13671875 C10.1875,0.13671875 10.1328125,0.1640625 10.1039062,0.21171875 L7.33046875,4.71875 L10.4265625,9.75 L14.8554688,2.553125 C14.8875,2.50078125 14.8679687,2.43125 14.8117188,2.403125 Z"/>
      <polygon points="5.863 3.135 5.863 7.992 10.18 10.15"/>
      <path d="M10.5578125 10.3359375L14.521875 12.3179687C14.7382813 12.4257812 14.915625 12.3164062 14.915625 12.075L14.915625 3.2546875 10.5578125 10.3359375zM5.38671875 2.42578125L1.234375.35.971875.21875C.934375.2.8984375.190625.865625.190625.81953125.190625.78046875.20859375.75234375.2421875.72578125.275.709375.321875.709375.38046875L.709375 9.85703125C.709375 10.0179687.82734375 10.209375.971875 10.28125L5.0515625 12.3210937C5.10859375 12.3492187 5.1625 12.3625 5.2109375 12.3625 5.3484375 12.3625 5.44453125 12.25625 5.44453125 12.0773438L5.44453125 2.5203125C5.4453125 2.48046875 5.42265625 2.44375 5.38671875 2.42578125z"/>
    </g>
  </g>
</svg>
