<svg width="50" height="50" viewBox="0 0 50 50" fill="none" xmlns="http://www.w3.org/2000/svg">
<g clip-path="url(#clip0)">
<path d="M35.2016 43.3582C34.7549 43.2448 34.3025 43.5181 34.1917 43.964L33.3584 47.2973C33.2459 47.7448 33.5183 48.1964 33.965 48.3082C34.0325 48.3256 34.1008 48.3332 34.1675 48.3332C34.5409 48.3332 34.88 48.0806 34.9751 47.7023L35.8084 44.369C35.92 43.9223 35.6483 43.4699 35.2016 43.3582Z" fill="#385C6C"/>
<path d="M25 26.6666C25.1083 26.6666 25.2167 26.6458 25.3184 26.6034L34.4851 22.81C34.9101 22.6341 35.1117 22.1466 34.9359 21.7216C34.7601 21.2957 34.2709 21.0957 33.8468 21.27L25 24.9316L1.6667 15.2766V14.9999C1.6667 14.54 1.29336 14.1666 0.833398 14.1666C0.373437 14.1666 0 14.54 0 14.9999V15.8332C0 16.1707 0.20332 16.4749 0.515039 16.6033L24.6817 26.6033C24.7833 26.6457 24.8917 26.6666 25 26.6666Z" fill="#385C6C"/>
<path d="M34.9129 35.2041C34.7096 34.7916 34.2112 34.6216 33.7971 34.8258C32.2146 35.6083 29.5712 36.5183 25.8329 36.6425V29.1666C25.8329 28.7066 25.4596 28.3333 24.9996 28.3333C24.5396 28.3333 24.1663 28.7066 24.1663 29.1666V36.635C13.8188 36.305 10.4797 30.0366 9.99961 28.9933V23.3333C9.99961 22.8733 9.62627 22.5 9.16631 22.5C8.70635 22.5 8.33301 22.8733 8.33301 23.3333V29.1666C8.33301 29.2725 8.35303 29.3774 8.39219 29.4766C8.53721 29.8374 12.0839 38.3332 24.9997 38.3332C29.5139 38.3332 32.6772 37.2382 34.5355 36.3198C34.9486 36.1157 35.1179 35.6166 34.9129 35.2041Z" fill="#385C6C"/>
<path d="M37.5003 44.1666C37.0395 44.1666 36.667 44.54 36.667 44.9999V47.4999C36.667 47.9599 37.0395 48.3332 37.5003 48.3332C37.9611 48.3332 38.3336 47.9599 38.3336 47.4999V44.9999C38.3336 44.54 37.9611 44.1666 37.5003 44.1666Z" fill="#385C6C"/>
<path d="M49.1667 14.1666C48.7059 14.1666 48.3334 14.5399 48.3334 14.9999V15.2749L38.3334 19.3907V17.8849L49.4851 13.2698C49.7967 13.1415 50.0001 12.8373 50.0001 12.4998C50.0001 12.1623 49.7968 11.859 49.4859 11.7298L25.3184 1.72988C25.1142 1.6457 24.8858 1.6457 24.6817 1.72988L0.515039 11.7299C0.20332 11.8591 0 12.1624 0 12.4999C0 12.8374 0.20332 13.1416 0.515039 13.2699L24.6817 23.2699C24.7834 23.3124 24.8917 23.3333 25.0001 23.3333C25.1085 23.3333 25.2168 23.3125 25.3185 23.2699L34.0568 19.6541C34.4827 19.4791 34.6844 18.9916 34.5085 18.5657C34.3326 18.1407 33.8451 17.9398 33.4201 18.1148L25 21.5982L3.0125 12.4999L25 3.40156L46.9875 12.4999L37.42 16.4591L28.2559 13.0374C28.3042 12.8641 28.3334 12.6857 28.3334 12.4999C28.3334 11.0982 26.8692 9.9999 25.0001 9.9999C23.131 9.9999 21.6668 11.0982 21.6668 12.4999C21.6668 13.9016 23.131 14.9999 25.0001 14.9999C25.8343 14.9999 26.5784 14.7724 27.1567 14.4058L36.6667 17.9566V20.6267V20.6275V38.4867C35.6992 38.8325 35 39.7483 35 40.8334C35 42.2117 36.1217 43.3334 37.5 43.3334C38.8783 43.3334 40 42.2117 40 40.8334C40 39.7484 39.3009 38.8326 38.3333 38.4867V33.7567C40.7258 31.9509 41.5833 29.5459 41.6208 29.4393C41.6508 29.3518 41.6666 29.2593 41.6666 29.1668V23.3335C41.6666 22.8735 41.2941 22.5002 40.8333 22.5002C40.3725 22.5002 40 22.8735 40 23.3335V29.0127C39.8559 29.366 39.355 30.4552 38.3333 31.5302V21.1933L49.4842 16.6041C49.7967 16.4758 50 16.1708 50 15.8333V15C50 14.5399 49.6275 14.1666 49.1667 14.1666ZM25 13.3332C23.9825 13.3332 23.3333 12.8398 23.3333 12.4999C23.3333 12.1599 23.9824 11.6666 25 11.6666C26.0176 11.6666 26.6667 12.16 26.6667 12.4999C26.6667 12.8399 26.0175 13.3332 25 13.3332ZM37.5 41.6666C37.04 41.6666 36.6667 41.2925 36.6667 40.8333C36.6667 40.3741 37.04 40 37.5 40C37.96 40 38.3333 40.3741 38.3333 40.8333C38.3333 41.2924 37.96 41.6666 37.5 41.6666Z" fill="#385C6C"/>
<path d="M40.8077 43.9641C40.6961 43.5183 40.2427 43.2457 39.7978 43.3582C39.3511 43.4699 39.0794 43.9224 39.1911 44.3691L40.0244 47.7024C40.1194 48.0807 40.4586 48.3332 40.8319 48.3332C40.8986 48.3332 40.9669 48.3257 41.0345 48.3082C41.4812 48.1966 41.7528 47.7449 41.6411 47.2974L40.8077 43.9641Z" fill="#385C6C"/>
</g>
<defs>
<clipPath id="clip0">
<rect width="50" height="50" fill="white"/>
</clipPath>
</defs>
</svg>
