<svg xmlns="http://www.w3.org/2000/svg" width="87" height="68" viewBox="0 0 87 68">
  <path fill="#BFB0AC" fill-rule="evenodd" d="M507.843305,235.501425 C507.843305,239.634399 506.180453,243.250697 502.854701,246.350427 C499.528948,249.450158 495.605911,251 491.08547,251 C483.981921,251 478.525185,248.642949 474.7151,243.928775 C470.905014,239.214601 469,232.692349 469,224.361823 C469,216.612497 472.27727,208.79871 478.831909,200.920228 C485.386547,193.041746 493.281055,187.068396 502.51567,183 L506.777778,189.877493 C499.480495,193.429268 493.765453,197.56218 489.632479,202.276353 C485.499505,206.990527 483.110165,212.705569 482.464387,219.421652 L487.888889,219.421652 C491.892708,219.421652 495.153834,219.87369 497.672365,220.777778 C500.190896,221.681866 502.225063,222.941113 503.774929,224.555556 C505.260216,226.105421 506.309589,227.816705 506.923077,229.689459 C507.536565,231.562213 507.843305,233.499515 507.843305,235.501425 Z M555.598291,235.501425 C555.598291,239.634399 553.935439,243.250697 550.609687,246.350427 C547.283934,249.450158 543.360896,251 538.840456,251 C531.736907,251 526.280171,248.642949 522.470085,243.928775 C518.66,239.214601 516.754986,232.692349 516.754986,224.361823 C516.754986,216.612497 520.032256,208.79871 526.586895,200.920228 C533.141533,193.041746 541.036041,187.068396 550.270655,183 L554.532764,189.877493 C547.235481,193.429268 541.520439,197.56218 537.387464,202.276353 C533.25449,206.990527 530.86515,212.705569 530.219373,219.421652 L535.643875,219.421652 C539.647693,219.421652 542.908819,219.87369 545.42735,220.777778 C547.945882,221.681866 549.980049,222.941113 551.529915,224.555556 C553.015202,226.105421 554.064574,227.816705 554.678063,229.689459 C555.291551,231.562213 555.598291,233.499515 555.598291,235.501425 Z" opacity=".403" transform="translate(-469 -183)"/>
</svg>
