<svg xmlns="http://www.w3.org/2000/svg" width="49" height="45" viewBox="0 0 49 45">
  <g fill="#385C6C">
    <path d="M47.4814954 25.5828365L45.0335705 23.1299638C44.0643675 22.1600033 42.375136 22.1600033 41.405933 23.1299638L28.1816393 36.3763367 26.3592283 43.071388 25.9132918 43.518069C25.5799135 43.8520039 25.5790543 44.3907752 25.9081365 44.7272922L25.9038404 44.7445053 25.9201656 44.740202C26.0868548 44.9037269 26.3033789 44.9880712 26.5207622 44.9880712 26.7407231 44.9880712 26.9606841 44.9037269 27.1282325 44.7358987L27.5750282 44.2883571 34.2580609 42.4629034 47.4814954 29.2165306C48.4816304 28.2138651 48.4816304 26.5846413 47.4814954 25.5828365zM30.1655841 36.8230177L38.9666003 28.0073074 42.6122814 31.6590753 33.8112652 40.4747856 30.1655841 36.8230177zM29.3905654 38.4806432L32.1572619 41.2519589 28.3526246 42.2916327 29.3905654 38.4806432zM46.2665548 27.9987008L43.8272221 30.4421062 40.1815409 26.7903383 42.6208736 24.3469329C42.9405044 24.0259078 43.4981398 24.0259078 43.8177706 24.3469329L46.2665548 26.7998055C46.5964962 27.1294372 46.5964962 27.6682085 46.2665548 27.9987008zM6.13055265 25.8203778L28.470338 25.8203778C28.9446289 25.8203778 29.3295606 25.4356641 29.3295606 24.9597207 29.3295606 24.4837774 28.9446289 24.0990637 28.470338 24.0990637L6.13055265 24.0990637C5.65626182 24.0990637 5.27133013 24.4837774 5.27133013 24.9597207 5.27133013 25.4356641 5.65626182 25.8203778 6.13055265 25.8203778zM25.033448 29.2630061L6.13055265 29.2630061C5.65626182 29.2630061 5.27133013 29.6477198 5.27133013 30.1236631 5.27133013 30.5996065 5.65626182 30.9843202 6.13055265 30.9843202L25.033448 30.9843202C25.5077388 30.9843202 25.8926705 30.5996065 25.8926705 30.1236631 25.8926705 29.6477198 25.508598 29.2630061 25.033448 29.2630061zM6.13055265 10.3285507L17.3004453 10.3285507C17.7747362 10.3285507 18.1596679 9.94383698 18.1596679 9.46789362 18.1596679 8.99195027 17.7747362 8.60723656 17.3004453 8.60723656L6.13055265 8.60723656C5.65626182 8.60723656 5.27133013 8.99195027 5.27133013 9.46789362 5.27133013 9.94383698 5.65626182 10.3285507 6.13055265 10.3285507zM17.3004453 36.1482626C17.7747362 36.1482626 18.1596679 35.7635489 18.1596679 35.2876055 18.1596679 34.8116621 17.7747362 34.4269484 17.3004453 34.4269484L6.13055265 34.4269484C5.65626182 34.4269484 5.27133013 34.8116621 5.27133013 35.2876055 5.27133013 35.7635489 5.65626182 36.1482626 6.13055265 36.1482626L17.3004453 36.1482626zM31.0480056 13.7711789L6.13055265 13.7711789C5.65626182 13.7711789 5.27133013 14.1558926 5.27133013 14.631836 5.27133013 15.1077794 5.65626182 15.4924931 6.13055265 15.4924931L31.0480056 15.4924931C31.5222964 15.4924931 31.9072281 15.1077794 31.9072281 14.631836 31.9072281 14.1558926 31.5231556 13.7711789 31.0480056 13.7711789zM6.13055265 20.6564354L18.1596679 20.6564354C18.6339587 20.6564354 19.0188904 20.2717217 19.0188904 19.7957784 19.0188904 19.319835 18.6339587 18.9351213 18.1596679 18.9351213L6.13055265 18.9351213C5.65626182 18.9351213 5.27133013 19.319835 5.27133013 19.7957784 5.27133013 20.2717217 5.65626182 20.6564354 6.13055265 20.6564354zM31.9072281 19.7957784C31.9072281 19.319835 31.5222964 18.9351213 31.0480056 18.9351213L25.033448 18.9351213C24.5591572 18.9351213 24.1742255 19.319835 24.1742255 19.7957784 24.1742255 20.2717217 24.5591572 20.6564354 25.033448 20.6564354L31.0480056 20.6564354C31.5231556 20.6564354 31.9072281 20.2717217 31.9072281 19.7957784zM22.2066059 20.4059842C22.361266 20.24332 22.4557804 20.0186886 22.4557804 19.7949177 22.4557804 19.5711469 22.361266 19.347376 22.2066059 19.1838512 21.8801013 18.8654081 21.3044223 18.8654081 20.9865099 19.1838512 20.8318499 19.347376 20.7373354 19.5711469 20.7373354 19.7949177 20.7373354 20.0281558 20.8318499 20.24332 20.9865099 20.4059842 21.1497622 20.5617632 21.3731601 20.6555748 21.5965579 20.6555748 21.8199558 20.6555748 22.0442128 20.5617632 22.2066059 20.4059842z"/>
    <path d="M21.5965579,43.0335191 L1.83444007,43.0335191 L1.83444007,1.72198006 L7.84899768,1.72198006 L29.3295606,1.72198006 L35.3441182,1.72198006 L35.3441182,20.6564354 C35.3441182,21.1323788 35.7290498,21.5170925 36.2033407,21.5170925 C36.6776315,21.5170925 37.0625632,21.1323788 37.0625632,20.6564354 L37.0625632,0.861322998 C37.0625632,0.385379642 36.6776315,0.000665935164 36.2033407,0.000665935164 L7.84899768,0.000665935164 L0.975217555,0.000665935164 C0.500926726,0.000665935164 0.11599504,0.385379642 0.11599504,0.861322998 L0.11599504,43.8941761 C0.11599504,44.3701195 0.500926726,44.7548332 0.975217555,44.7548332 L21.5965579,44.7548332 C22.0708487,44.7548332 22.4557804,44.3701195 22.4557804,43.8941761 C22.4557804,43.4182328 22.071708,43.0335191 21.5965579,43.0335191 Z"/>
  </g>
</svg>
