<svg xmlns="http://www.w3.org/2000/svg" width="107" height="99" viewBox="0 0 107 99">
  <g fill="#385C6C">
    <path d="M104.45929 56.2822402L99.073855 50.8859204C96.9416084 48.7520073 93.2252992 48.7520073 91.0930526 50.8859204L61.9996064 80.0279407 57.9903023 94.7570535 57.009242 95.7397518C56.2758097 96.4744086 56.2739194 97.6597055 56.9979003 98.4000428L56.9884489 98.4379117 57.0243644 98.4284444C57.3910805 98.7881991 57.8674335 98.9737567 58.3456767 98.9737567 58.8295909 98.9737567 59.313505 98.7881991 59.6821114 98.4189772L60.665062 97.4343855 75.367734 93.4183875 104.45929 64.2763673C106.659587 62.0705032 106.659587 58.4862108 104.45929 56.2822402zM66.3642849 81.0106389L85.7265206 61.6160763 93.7470191 69.6499657 74.3847834 89.0445284 66.3642849 81.0106389zM64.6592438 84.657415L70.7459761 90.7543097 62.375774 93.0415919 64.6592438 84.657415zM101.786421 61.5971418L96.4198885 66.9726337 88.39939 58.9387443 93.765922 53.5632524C94.4691097 52.8569972 95.6959076 52.8569972 96.3990953 53.5632524L101.786421 58.9595722C102.512292 59.6847618 102.512292 60.8700588 101.786421 61.5971418zM13.4872158 56.8048312L62.6347437 56.8048312C63.6781835 56.8048312 64.5250332 55.958461 64.5250332 54.9113856 64.5250332 53.8643103 63.6781835 53.0179401 62.6347437 53.0179401L13.4872158 53.0179401C12.443776 53.0179401 11.5969263 53.8643103 11.5969263 54.9113856 11.5969263 55.958461 12.443776 56.8048312 13.4872158 56.8048312zM55.0735856 64.3786133L13.4872158 64.3786133C12.443776 64.3786133 11.5969263 65.2249835 11.5969263 66.2720589 11.5969263 67.3191343 12.443776 68.1655044 13.4872158 68.1655044L55.0735856 68.1655044C56.1170254 68.1655044 56.9638751 67.3191343 56.9638751 66.2720589 56.9638751 65.2249835 56.1189157 64.3786133 55.0735856 64.3786133zM13.4872158 22.7228115L38.0609798 22.7228115C39.1044196 22.7228115 39.9512693 21.8764414 39.9512693 20.829366 39.9512693 19.7822906 39.1044196 18.9359204 38.0609798 18.9359204L13.4872158 18.9359204C12.443776 18.9359204 11.5969263 19.7822906 11.5969263 20.829366 11.5969263 21.8764414 12.443776 22.7228115 13.4872158 22.7228115zM38.0609798 79.5261776C39.1044196 79.5261776 39.9512693 78.6798075 39.9512693 77.6327321 39.9512693 76.5856567 39.1044196 75.7392866 38.0609798 75.7392866L13.4872158 75.7392866C12.443776 75.7392866 11.5969263 76.5856567 11.5969263 77.6327321 11.5969263 78.6798075 12.443776 79.5261776 13.4872158 79.5261776L38.0609798 79.5261776zM68.3056123 30.2965937L13.4872158 30.2965937C12.443776 30.2965937 11.5969263 31.1429638 11.5969263 32.1900392 11.5969263 33.2371146 12.443776 34.0834847 13.4872158 34.0834847L68.3056123 34.0834847C69.3490521 34.0834847 70.1959018 33.2371146 70.1959018 32.1900392 70.1959018 31.1429638 69.3509424 30.2965937 68.3056123 30.2965937zM13.4872158 45.444158L39.9512693 45.444158C40.9947091 45.444158 41.8415588 44.5977878 41.8415588 43.5507124 41.8415588 42.503637 40.9947091 41.6572669 39.9512693 41.6572669L13.4872158 41.6572669C12.443776 41.6572669 11.5969263 42.503637 11.5969263 43.5507124 11.5969263 44.5977878 12.443776 45.444158 13.4872158 45.444158zM70.1959018 43.5507124C70.1959018 42.503637 69.3490521 41.6572669 68.3056123 41.6572669L55.0735856 41.6572669C54.0301457 41.6572669 53.183296 42.503637 53.183296 43.5507124 53.183296 44.5977878 54.0301457 45.444158 55.0735856 45.444158L68.3056123 45.444158C69.3509424 45.444158 70.1959018 44.5977878 70.1959018 43.5507124zM48.854533 44.8931653C49.1947851 44.5353041 49.402717 44.0411148 49.402717 43.548819 49.402717 43.0565231 49.1947851 42.5642273 48.854533 42.2044726 48.136223 41.5038978 46.869729 41.5038978 46.1703219 42.2044726 45.8300697 42.5642273 45.6221379 43.0565231 45.6221379 43.548819 45.6221379 44.0619427 45.8300697 44.5353041 46.1703219 44.8931653 46.5294769 45.2358789 47.0209521 45.4422645 47.5124274 45.4422645 48.0039027 45.4422645 48.4972683 45.2358789 48.854533 44.8931653z"/>
    <path d="M47.5124274,94.6737419 L4.03576815,94.6737419 L4.03576815,3.78835613 L17.2677949,3.78835613 L64.5250332,3.78835613 L77.75706,3.78835613 L77.75706,45.444158 C77.75706,46.4912333 78.6039097,47.3376035 79.6473495,47.3376035 C80.6907893,47.3376035 81.537639,46.4912333 81.537639,45.444158 L81.537639,1.89491059 C81.537639,0.847835213 80.6907893,0.00146505736 79.6473495,0.00146505736 L17.2677949,0.00146505736 L2.14547862,0.00146505736 C1.1020388,0.00146505736 0.255189087,0.847835213 0.255189087,1.89491059 L0.255189087,96.5671875 C0.255189087,97.6142629 1.1020388,98.460633 2.14547862,98.460633 L47.5124274,98.460633 C48.5558672,98.460633 49.402717,97.6142629 49.402717,96.5671875 C49.402717,95.5201121 48.5577575,94.6737419 47.5124274,94.6737419 Z"/>
  </g>
</svg>
