<svg xmlns="http://www.w3.org/2000/svg" width="42" height="45" viewBox="0 0 42 45">
  <g fill="none" fill-rule="evenodd">
    <path fill="#385C6C" fill-rule="nonzero" d="M32.2323769,25.4120907 L32.2323769,5.22406493 C32.2323769,4.8113638 31.8973834,4.47776994 31.4846237,4.47776994 L25.5025978,4.47776994 L25.5025978,2.98517996 C25.5025978,2.57247883 25.1676044,2.23888497 24.7548446,2.23888497 L20.2683252,2.23888497 L20.2683252,0.746294989 C20.2683252,0.33359386 19.9333318,0 19.520572,0 L12.7907929,0 C12.3780331,0 12.0430397,0.33359386 12.0430397,0.746294989 L12.0430397,2.23888497 L7.55652031,2.23888497 C7.14376053,2.23888497 6.80876708,2.57247883 6.80876708,2.98517996 L6.80876708,4.47776994 L0.826741247,4.47776994 C0.413981464,4.47776994 0.0789880172,4.8113638 0.0789880172,5.22406493 L0.0789880172,42.5388144 C0.0789880172,42.9515155 0.413981464,43.2851094 0.826741247,43.2851094 L26.3281174,43.2851094 C27.8251194,44.2254411 29.589817,44.7776994 31.4846237,44.7776994 C36.8445188,44.7776994 41.2054157,40.425307 41.2054157,35.0758645 C41.2054157,29.9779234 37.2430713,25.79494 32.2323769,25.4120907 Z M13.5385462,1.49258998 L18.7728188,1.49258998 L18.7728188,2.98517996 L18.7728188,4.47776994 L13.5385462,4.47776994 L13.5385462,2.98517996 L13.5385462,1.49258998 Z M8.30427354,3.73147495 L12.0430397,3.73147495 L12.0430397,5.22406493 C12.0430397,5.63676606 12.3780331,5.97035992 12.7907929,5.97035992 L19.520572,5.97035992 C19.9333318,5.97035992 20.2683252,5.63676606 20.2683252,5.22406493 L20.2683252,3.73147495 L24.0070914,3.73147495 L24.0070914,5.22406493 L24.0070914,6.7166549 L8.30427354,6.7166549 L8.30427354,5.22406493 L8.30427354,3.73147495 Z M1.57449448,41.7925194 L1.57449448,5.97035992 L6.80876708,5.97035992 L6.80876708,7.46294989 C6.80876708,7.87565102 7.14376053,8.20924488 7.55652031,8.20924488 L24.7548446,8.20924488 C25.1676044,8.20924488 25.5025978,7.87565102 25.5025978,7.46294989 L25.5025978,5.97035992 L30.7368704,5.97035992 L30.7368704,25.4023888 C30.6942485,25.405374 30.6531221,25.4143296 30.6105001,25.418061 C30.4646883,25.4314944 30.3211196,25.4523906 30.177551,25.4725406 C30.0063155,25.4956757 29.8343323,25.5188109 29.6660878,25.5501553 C29.5217714,25.5777682 29.3811938,25.6120977 29.2391207,25.645681 C29.0753628,25.6844884 28.9116048,25.724042 28.7515856,25.7710586 C28.6117558,25.8121048 28.4749169,25.8591214 28.3380781,25.906138 C28.1810499,25.9598712 28.0255172,26.015097 27.8722278,26.0770395 C27.73838,26.1307728 27.6067754,26.1889838 27.4751708,26.2486874 C27.3256202,26.3166002 27.1783128,26.3867519 27.0332487,26.4613814 C26.9053829,26.5270554 26.7797603,26.5964608 26.6556333,26.6681052 C26.5150557,26.748705 26.3767214,26.83229 26.2406303,26.9203529 C26.1194942,26.9979675 26.0006015,27.0778211 25.883952,27.1606598 C25.7515997,27.2539467 25.6229861,27.3509651 25.495868,27.4509686 C25.3837051,27.5390314 25.2730376,27.6278405 25.1653611,27.7203811 C25.0419818,27.826355 24.9223413,27.9360603 24.8049441,28.0480046 C24.7025019,28.1450229 24.6008074,28.2427876 24.502104,28.3442837 C24.3884455,28.461452 24.2800213,28.5830981 24.1723448,28.7062368 C24.0796234,28.8122107 23.986902,28.9174382 23.8994149,29.0271436 C23.796225,29.1555064 23.6997648,29.2883469 23.6033046,29.4219337 C23.5217995,29.5353705 23.4387989,29.6473147 23.3617803,29.7644831 C23.2698067,29.9040402 23.1860583,30.0480752 23.1008145,30.1921101 C23.0312734,30.3115173 22.9594891,30.4286856 22.8944346,30.5503317 C22.814425,30.7018296 22.7433884,30.8578052 22.6708563,31.0130346 C22.6140271,31.1361733 22.5534591,31.257073 22.5011164,31.3831969 C22.4338186,31.5466355 22.3762416,31.7145519 22.3179168,31.8817219 C22.2737994,32.0063532 22.2259432,32.1294919 22.18706,32.256362 C22.132474,32.4354728 22.0905998,32.6190614 22.0464824,32.8019037 C22.01732,32.9235498 21.9821756,33.0422107 21.956752,33.1653493 C21.9156256,33.3705805 21.8887065,33.5810356 21.8610396,33.7907445 C21.8468323,33.8967184 21.8258952,33.9997071 21.8146789,34.1064273 C21.78103,34.4265879 21.7638317,34.7489873 21.7638317,35.0758645 C21.7638317,35.4005028 21.78103,35.7229023 21.8131834,36.0415702 C21.8251474,36.16247 21.8490755,36.278892 21.8655261,36.3990455 C21.8924452,36.5953211 21.9163733,36.7915967 21.9552565,36.9848871 C21.9814279,37.1154887 22.0188155,37.2423589 22.0502212,37.3714679 C22.0935909,37.5498324 22.1339695,37.7289432 22.1878078,37.9043225 C22.2244477,38.0229834 22.2700606,38.1379128 22.311187,38.2550812 C22.3739983,38.4364308 22.4360618,38.6185268 22.5100894,38.7953987 C22.5512158,38.894656 22.5998198,38.9894354 22.644685,39.0864538 C22.7306766,39.2760127 22.8181637,39.4648253 22.9161194,39.6484139 C22.9594891,39.7282675 23.0080931,39.8051359 23.053706,39.8834968 C23.1643735,40.0767872 23.2765365,40.2678387 23.4006635,40.4529199 C23.4462764,40.5208327 23.4963759,40.5850141 23.5434844,40.6521807 C23.6750889,40.8387544 23.8096845,41.0238356 23.9554964,41.2014538 C24.0093346,41.2671277 24.0676594,41.3283239 24.1229931,41.3925053 C24.2388949,41.5268384 24.3495623,41.6641567 24.4729416,41.7925194 L1.57449448,41.7925194 L1.57449448,41.7925194 Z M31.4846237,43.2851094 C29.7961969,43.2851094 28.2251673,42.773151 26.9180947,41.8992396 C26.6631108,41.7290843 26.4223343,41.5440032 26.1912786,41.3499665 C26.1105212,41.2820536 26.0342504,41.2081704 25.956484,41.1365261 C25.8091767,41.0029393 25.6663558,40.865621 25.5302647,40.7230787 C25.4427776,40.6312844 25.3582815,40.5379975 25.2752808,40.4432181 C25.1526493,40.3029146 25.0374953,40.1566408 24.9253323,40.0081281 C24.853548,39.9133486 24.7795205,39.820808 24.7114749,39.7230434 C24.5462214,39.4834827 24.3906888,39.2372054 24.2516067,38.9819725 C24.2194533,38.9222689 24.1940297,38.8588338 24.1633718,38.7991302 C24.0541998,38.5856898 23.9525054,38.3692643 23.8620272,38.1468684 C23.8231441,38.04985 23.7894952,37.9505928 23.753603,37.8513356 C23.6833142,37.6558063 23.6190074,37.4580381 23.562926,37.2572848 C23.5345113,37.1535498 23.5068445,37.050561 23.4821686,36.9453335 C23.4320691,36.7326394 23.393186,36.5169601 23.3602848,36.2997883 C23.3460775,36.2065014 23.3281314,36.1147071 23.3176629,36.0199277 C23.2825185,35.7087227 23.2593381,35.3937862 23.2593381,35.0758645 C23.2593381,30.5495854 26.9495003,26.8666196 31.4846237,26.8666196 C36.019747,26.8666196 39.7099092,30.5495854 39.7099092,35.0758645 C39.7099092,39.6021436 36.019747,43.2851094 31.4846237,43.2851094 Z"/>
    <path fill="#385C6C" fill-rule="nonzero" d="M5.31326063 13.4333098L15.0340526 13.4333098C15.4468124 13.4333098 15.7818058 13.0997159 15.7818058 12.6870148 15.7818058 12.2743137 15.4468124 11.9407198 15.0340526 11.9407198L5.31326063 11.9407198C4.90050084 11.9407198 4.5655074 12.2743137 4.5655074 12.6870148 4.5655074 13.0997159 4.90050084 13.4333098 5.31326063 13.4333098zM15.0340526 34.3295695L5.31326063 34.3295695C4.90050084 34.3295695 4.5655074 34.6631634 4.5655074 35.0758645 4.5655074 35.4885656 4.90050084 35.8221595 5.31326063 35.8221595L15.0340526 35.8221595C15.4468124 35.8221595 15.7818058 35.4885656 15.7818058 35.0758645 15.7818058 34.6631634 15.4468124 34.3295695 15.0340526 34.3295695zM5.31326063 17.9110797L26.9981043 17.9110797C27.4108641 17.9110797 27.7458575 17.5774859 27.7458575 17.1647848 27.7458575 16.7520836 27.4108641 16.4184898 26.9981043 16.4184898L5.31326063 16.4184898C4.90050084 16.4184898 4.5655074 16.7520836 4.5655074 17.1647848 4.5655074 17.5774859 4.90050084 17.9110797 5.31326063 17.9110797zM5.31326063 26.8666196L23.2593381 26.8666196C23.6720979 26.8666196 24.0070914 26.5330258 24.0070914 26.1203246 24.0070914 25.7076235 23.6720979 25.3740296 23.2593381 25.3740296L5.31326063 25.3740296C4.90050084 25.3740296 4.5655074 25.7076235 4.5655074 26.1203246 4.5655074 26.5330258 4.90050084 26.8666196 5.31326063 26.8666196zM19.520572 29.8517996L5.31326063 29.8517996C4.90050084 29.8517996 4.5655074 30.1853934 4.5655074 30.5980946 4.5655074 31.0107957 4.90050084 31.3443896 5.31326063 31.3443896L19.520572 31.3443896C19.9333318 31.3443896 20.2683252 31.0107957 20.2683252 30.5980946 20.2683252 30.1853934 19.9333318 29.8517996 19.520572 29.8517996zM5.31326063 22.3888497L15.7818058 22.3888497C16.1945656 22.3888497 16.5295591 22.0552558 16.5295591 21.6425547 16.5295591 21.2298536 16.1945656 20.8962597 15.7818058 20.8962597L5.31326063 20.8962597C4.90050084 20.8962597 4.5655074 21.2298536 4.5655074 21.6425547 4.5655074 22.0552558 4.90050084 22.3888497 5.31326063 22.3888497zM26.9981043 20.8962597L21.7638317 20.8962597C21.3510719 20.8962597 21.0160784 21.2298536 21.0160784 21.6425547 21.0160784 22.0552558 21.3510719 22.3888497 21.7638317 22.3888497L26.9981043 22.3888497C27.4108641 22.3888497 27.7458575 22.0552558 27.7458575 21.6425547 27.7458575 21.2298536 27.4108641 20.8962597 26.9981043 20.8962597zM18.241914 21.1126853C18.0998409 21.253735 18.0250655 21.4477717 18.0250655 21.6425547 18.0250655 21.8365914 18.0998409 22.0306281 18.241914 22.1724241 18.3839871 22.3134739 18.5784029 22.3888497 18.7728188 22.3888497 18.9672346 22.3888497 19.1616504 22.3134739 19.3037236 22.1724241 19.4383191 22.0306281 19.520572 21.8365914 19.520572 21.6425547 19.520572 21.4477717 19.4383191 21.253735 19.3037236 21.1126853 19.0270549 20.8440191 18.5260602 20.8365561 18.241914 21.1126853z"/>
    <polyline stroke="#385C6C" stroke-linecap="round" stroke-width="2" points="33.322 32.405 36.271 35.351 33.322 38.297"/>
    <polyline stroke="#385C6C" stroke-linecap="round" stroke-width="2" points="35.092 35.351 31.017 35.351 26.277 35.351"/>
  </g>
</svg>
