<svg xmlns="http://www.w3.org/2000/svg" width="106" height="100" viewBox="0 0 92 100">
  <g fill="none" fill-rule="evenodd">
    <path fill="#385C6C" fill-rule="nonzero" d="M71.6275042,56.4713126 L71.6275042,11.6090332 C71.6275042,10.6919195 70.8830743,9.95059986 69.9658304,9.95059986 L56.6724396,9.95059986 L56.6724396,6.63373324 C56.6724396,5.71661962 55.9280097,4.97529993 55.0107658,4.97529993 L45.0407227,4.97529993 L45.0407227,1.65843331 C45.0407227,0.741319689 44.2962928,0 43.3790489,0 L28.4239843,0 C27.5067403,0 26.7623104,0.741319689 26.7623104,1.65843331 L26.7623104,4.97529993 L16.7922674,4.97529993 C15.8750234,4.97529993 15.1305935,5.71661962 15.1305935,6.63373324 L15.1305935,9.95059986 L1.83720277,9.95059986 C0.919958809,9.95059986 0.175528927,10.6919195 0.175528927,11.6090332 L0.175528927,94.5306987 C0.175528927,95.4478123 0.919958809,96.189132 1.83720277,96.189132 L58.5069275,96.189132 C61.8335986,98.2787579 65.7551488,99.5059986 69.9658304,99.5059986 C81.8767085,99.5059986 91.5675903,89.8340155 91.5675903,77.9463656 C91.5675903,66.6176076 82.7623806,57.3220889 71.6275042,56.4713126 Z M30.0856581,3.31686662 L41.717375,3.31686662 L41.717375,6.63373324 L41.717375,9.95059986 L30.0856581,9.95059986 L30.0856581,6.63373324 L30.0856581,3.31686662 Z M18.4539412,8.29216655 L26.7623104,8.29216655 L26.7623104,11.6090332 C26.7623104,12.5261468 27.5067403,13.2674665 28.4239843,13.2674665 L43.3790489,13.2674665 C44.2962928,13.2674665 45.0407227,12.5261468 45.0407227,11.6090332 L45.0407227,8.29216655 L53.3490919,8.29216655 L53.3490919,11.6090332 L53.3490919,14.9258998 L18.4539412,14.9258998 L18.4539412,11.6090332 L18.4539412,8.29216655 Z M3.49887661,92.8722653 L3.49887661,13.2674665 L15.1305935,13.2674665 L15.1305935,16.5843331 C15.1305935,17.5014467 15.8750234,18.2427664 16.7922674,18.2427664 L55.0107658,18.2427664 C55.9280097,18.2427664 56.6724396,17.5014467 56.6724396,16.5843331 L56.6724396,13.2674665 L68.3041565,13.2674665 L68.3041565,56.449753 C68.2094411,56.4563867 68.1180491,56.4762879 68.0233336,56.4845801 C67.6993072,56.5144319 67.3802659,56.560868 67.0612245,56.6056457 C66.6807012,56.6570572 66.2985162,56.7084686 65.9246396,56.7781228 C65.6039365,56.8394848 65.2915418,56.9157728 64.9758238,56.9904023 C64.6119172,57.0766408 64.2480107,57.1645378 63.8924125,57.2690191 C63.5816795,57.3602329 63.2775931,57.4647142 62.9735068,57.5691955 C62.6245553,57.6886027 62.2789272,57.8113267 61.938284,57.9489767 C61.6408444,58.0683839 61.3483898,58.1977417 61.0559352,58.3304164 C60.7236004,58.4813338 60.3962507,58.6372265 60.073886,58.8030699 C59.7897397,58.949012 59.5105785,59.1032463 59.2347407,59.2624559 C58.922346,59.4415667 58.6149363,59.6273112 58.3125117,59.8230064 C58.0433205,59.9954834 57.7791144,60.1729358 57.5198933,60.3570219 C57.225777,60.564326 56.9399691,60.7799224 56.6574846,61.0021524 C56.4082335,61.1978476 56.1623057,61.3952011 55.9230247,61.6008469 C55.6488485,61.8363444 55.3829807,62.0801341 55.1220979,62.3288991 C54.8944486,62.5444954 54.668461,62.7617502 54.44912,62.9872971 C54.1965456,63.2476711 53.9556029,63.5179958 53.7163218,63.7916373 C53.5102743,64.0271348 53.3042267,64.2609739 53.1098109,64.5047636 C52.8804999,64.7900141 52.666144,65.0852152 52.4517881,65.3820748 C52.2706656,65.6341567 52.0862198,65.8829217 51.9150674,66.1432957 C51.7106815,66.4534227 51.524574,66.7735004 51.3351432,67.093578 C51.1806076,67.3589273 51.0210869,67.6193013 50.8765213,67.889626 C50.6987221,68.2262879 50.5408631,68.5729005 50.3796808,68.9178546 C50.2533936,69.1914961 50.118798,69.4601623 50.0024808,69.7404375 C49.8529302,70.1036344 49.7249813,70.4767819 49.5953707,70.848271 C49.497332,71.1252294 49.3909848,71.3988709 49.3045778,71.6808045 C49.1832756,72.0788285 49.0902219,72.4868031 48.9921831,72.8931193 C48.9273778,73.1634439 48.8492792,73.4271348 48.7927823,73.7007763 C48.7013902,74.1568454 48.6415699,74.6245236 48.580088,75.0905434 C48.5485162,75.3260409 48.5019893,75.5549047 48.4770642,75.7920607 C48.4022889,76.5035286 48.3640704,77.2199718 48.3640704,77.9463656 C48.3640704,78.6677841 48.4022889,79.3842272 48.4737409,80.0923783 C48.5003277,80.3610445 48.5535012,80.6197601 48.590058,80.8867678 C48.6498783,81.3229358 48.7030519,81.7591037 48.7894589,82.188638 C48.8476175,82.4788638 48.9307012,82.7607975 49.0004915,83.0477064 C49.0968686,83.444072 49.186599,83.842096 49.3062395,84.2318278 C49.3876615,84.4955187 49.4890236,84.7509174 49.5804157,85.0112915 C49.7199963,85.4142908 49.8579152,85.8189485 50.0224209,86.2119972 C50.113813,86.4325688 50.2218218,86.6431898 50.3215222,86.8587862 C50.5126147,87.2800282 50.7070305,87.6996119 50.9247098,88.1075865 C51.0210869,88.2850388 51.1290957,88.4558574 51.2304578,88.6299929 C51.4763855,89.0595272 51.7256366,89.4840861 52.0014744,89.8953776 C52.1028365,90.046295 52.2141687,90.1889203 52.3188541,90.3381793 C52.6113087,90.7527876 52.91041,91.164079 53.2344364,91.5587862 C53.354077,91.7047283 53.4836875,91.8407198 53.6066514,91.9833451 C53.8642108,92.2818631 54.1101386,92.5870148 54.3843147,92.8722653 L3.49887661,92.8722653 L3.49887661,92.8722653 Z M69.9658304,96.189132 C66.2137708,96.189132 62.7225941,95.0514467 59.8179882,93.1094213 C59.2513574,92.7312985 58.7162984,92.3200071 58.2028412,91.8888144 C58.0233805,91.737897 57.8538897,91.5737121 57.6810756,91.4145025 C57.3537259,91.1176429 57.0363462,90.8124912 56.7339216,90.4957304 C56.5395057,90.2917431 56.3517366,90.084439 56.1672908,89.8738179 C55.8947763,89.5620325 55.6388785,89.2369795 55.3896274,88.9069513 C55.2301067,88.6963303 55.065601,88.4906845 54.9143887,88.2734298 C54.5471588,87.7410727 54.2015306,87.1937897 53.8924593,86.6266055 C53.8210073,86.4939308 53.7645104,86.352964 53.6963818,86.2202893 C53.4537774,85.7459774 53.2277897,85.2650318 53.0267272,84.7708186 C52.9403202,84.5552223 52.8655448,84.3346507 52.7857845,84.114079 C52.6295872,83.6795695 52.4866832,83.2400847 52.3620577,82.7939661 C52.2989141,82.5634439 52.2374321,82.3345801 52.1825969,82.100741 C52.0712647,81.6280875 51.9848577,81.1488003 51.9117441,80.6661962 C51.8801723,80.458892 51.8402921,80.2549047 51.8170286,80.0442837 C51.73893,79.352717 51.6874181,78.6528582 51.6874181,77.9463656 C51.6874181,67.8879675 59.8877785,59.7035992 69.9658304,59.7035992 C80.0438822,59.7035992 88.2442427,67.8879675 88.2442427,77.9463656 C88.2442427,88.0047636 80.0438822,96.189132 69.9658304,96.189132 Z"/>
    <path fill="#385C6C" fill-rule="nonzero" d="M11.8072458 29.8517996L33.4090058 29.8517996C34.3262498 29.8517996 35.0706796 29.1104799 35.0706796 28.1933663 35.0706796 27.2762526 34.3262498 26.534933 33.4090058 26.534933L11.8072458 26.534933C10.8900019 26.534933 10.145572 27.2762526 10.145572 28.1933663 10.145572 29.1104799 10.8900019 29.8517996 11.8072458 29.8517996zM33.4090058 76.2879323L11.8072458 76.2879323C10.8900019 76.2879323 10.145572 77.0292519 10.145572 77.9463656 10.145572 78.8634792 10.8900019 79.6047989 11.8072458 79.6047989L33.4090058 79.6047989C34.3262498 79.6047989 35.0706796 78.8634792 35.0706796 77.9463656 35.0706796 77.0292519 34.3262498 76.2879323 33.4090058 76.2879323zM11.8072458 39.8023994L59.9957873 39.8023994C60.9130313 39.8023994 61.6574611 39.0610797 61.6574611 38.1439661 61.6574611 37.2268525 60.9130313 36.4855328 59.9957873 36.4855328L11.8072458 36.4855328C10.8900019 36.4855328 10.145572 37.2268525 10.145572 38.1439661 10.145572 39.0610797 10.8900019 39.8023994 11.8072458 39.8023994zM11.8072458 59.7035992L51.6874181 59.7035992C52.604662 59.7035992 53.3490919 58.9622795 53.3490919 58.0451658 53.3490919 57.1280522 52.604662 56.3867325 51.6874181 56.3867325L11.8072458 56.3867325C10.8900019 56.3867325 10.145572 57.1280522 10.145572 58.0451658 10.145572 58.9622795 10.8900019 59.7035992 11.8072458 59.7035992zM43.3790489 66.3373324L11.8072458 66.3373324C10.8900019 66.3373324 10.145572 67.0786521 10.145572 67.9957657 10.145572 68.9128793 10.8900019 69.654199 11.8072458 69.654199L43.3790489 69.654199C44.2962928 69.654199 45.0407227 68.9128793 45.0407227 67.9957657 45.0407227 67.0786521 44.2962928 66.3373324 43.3790489 66.3373324zM11.8072458 49.7529993L35.0706796 49.7529993C35.9879236 49.7529993 36.7323535 49.0116796 36.7323535 48.094566 36.7323535 47.1774524 35.9879236 46.4361327 35.0706796 46.4361327L11.8072458 46.4361327C10.8900019 46.4361327 10.145572 47.1774524 10.145572 48.094566 10.145572 49.0116796 10.8900019 49.7529993 11.8072458 49.7529993zM59.9957873 46.4361327L48.3640704 46.4361327C47.4468264 46.4361327 46.7023966 47.1774524 46.7023966 48.094566 46.7023966 49.0116796 47.4468264 49.7529993 48.3640704 49.7529993L59.9957873 49.7529993C60.9130313 49.7529993 61.6574611 49.0116796 61.6574611 48.094566 61.6574611 47.1774524 60.9130313 46.4361327 59.9957873 46.4361327zM40.5375866 46.9170783C40.2218686 47.2305222 40.0557012 47.6617149 40.0557012 48.094566 40.0557012 48.5257586 40.2218686 48.9569513 40.5375866 49.2720536 40.8533046 49.5854975 41.2853398 49.7529993 41.717375 49.7529993 42.1494102 49.7529993 42.5814454 49.5854975 42.8971635 49.2720536 43.1962647 48.9569513 43.3790489 48.5257586 43.3790489 48.094566 43.3790489 47.6617149 43.1962647 47.2305222 42.8971635 46.9170783 42.2823441 46.3200423 41.1690227 46.303458 40.5375866 46.9170783z"/>
    <polyline stroke="#385C6C" stroke-linecap="round" stroke-width="3" points="74.05 72.011 80.603 78.557 74.05 85.104"/>
    <polyline stroke="#385C6C" stroke-linecap="round" stroke-width="3" points="77.982 78.557 68.927 78.557 58.393 78.557"/>
  </g>
</svg>
