<svg xmlns="http://www.w3.org/2000/svg" width="26" height="25" viewBox="0 0 26 25">
  <path fill="#00758F" d="M917.645849,127 L902.020817,127 C899.431748,127 897.333333,129.098415 897.333333,131.687484 L897.333333,147.312516 C897.333333,149.901585 899.431748,152 902.020817,152 L917.645849,152 C920.234919,152 922.333333,149.901534 922.333333,147.312516 L922.333333,131.687484 C922.333385,129.098415 920.234919,127 917.645849,127 Z M916.052121,136.693744 L916.061476,137.092189 C916.061476,141.160932 912.966178,145.848468 907.305198,145.848468 C905.567707,145.848468 903.950489,145.339104 902.588005,144.46563 C902.828655,144.493745 903.073931,144.50937 903.322394,144.50937 C904.764597,144.50937 906.091154,144.017173 907.144267,143.192168 C905.797409,143.167189 904.66144,142.276547 904.269266,141.054691 C904.458311,141.089076 904.64895,141.107837 904.848943,141.107837 C905.130198,141.107837 905.402048,141.071909 905.659865,141.001595 C904.252047,140.717205 903.191121,139.475046 903.191121,137.984424 L903.191121,137.945361 C903.606733,138.176605 904.080169,138.314097 904.584855,138.331316 C903.75985,137.779753 903.2161,136.837559 903.2161,135.770362 C903.2161,135.206309 903.367676,134.678185 903.631713,134.223509 C905.148908,136.086003 907.417658,137.310995 909.975477,137.439132 C909.922331,137.214108 909.895809,136.978186 909.895809,136.737588 C909.895809,135.03916 911.273918,133.660999 912.973939,133.660999 C913.85831,133.660999 914.658335,134.034413 915.220794,134.632851 C915.920797,134.493765 916.580194,134.237541 917.175497,133.885972 C916.945795,134.604736 916.458327,135.207851 915.822368,135.589078 C916.442702,135.515628 917.038005,135.348427 917.589568,135.104694 C917.177091,135.720299 916.653644,136.262507 916.052121,136.693744 Z" transform="translate(-897 -127)"/>
</svg>
